{
DisplayStrings = (
"/nna-deva"
);
classes = (
{
automatic = 1;
code = "A Aacute Abreve Acircumflex Adieresis Agrave Amacron Aogonek Aring Atilde AE B C Cacute Ccaron Ccedilla D Eth Dcaron Dcroat E Eacute Ecaron Ecircumflex Edieresis Edotaccent Egrave Emacron Eogonek F G Gbreve Gcommaaccent H I Iacute Icircumflex Idieresis Idotaccent Igrave Imacron Iogonek J K Kcommaaccent L Lacute Lcaron Lcommaaccent Lslash M N Nacute Ncaron Ncommaaccent Ntilde O Oacute Ocircumflex Odieresis Ograve Ohungarumlaut Omacron Oslash Otilde OE P Thorn Q R Racute Rcaron Rcommaaccent S Sacute Scaron Scedilla Scommaaccent Germandbls T Tcaron Tcedilla Tcommaaccent U Uacute Ucircumflex Udieresis Ugrave Uhungarumlaut Umacron Uogonek Uring V W X Y Yacute Ydieresis Z Zacute Zcaron Zdotaccent Delta Omega";
name = Uppercase;
},
{
automatic = 1;
code = "iMatra-deva iMatra-deva.01 iMatra-deva.02 iMatra-deva.03 iMatra-deva.04 iMatra-deva.05 iMatra-deva.06 iMatra-deva.07 iMatra-deva.08 iMatra-deva.09";
name = DevaIMatras;
},
{
automatic = 1;

glyphs = (
{
color = 4;
glyphname = A;
lastChange = "2015-05-04 16:38:41 +0000";
layers = (
{
anchors = (
{
name = bottom;
position = "{353, 0}";
},
{
name = ogonek;
position = "{626, 10}";
},
{
name = top;
position = "{361, 680}";
}
);
background = {
paths = (
{
closed = 1;
nodes = (
"221 0 LINE",
"221 55 LINE",
"150 81 LINE",
"353 628 LINE",
"554 82 LINE",
"484 55 LINE",
"484 0 LINE",
"714 0 LINE",
"714 55 LINE",
"645 87 LINE",
"417 688 LINE",
"305 688 LINE",
"77 86 LINE",
"8 55 LINE",
"8 0 LINE"
);
},
{
closed = 1;
nodes = (
"534 229 LINE",
"510 300 LINE",
"191 300 LINE",
"169 229 LINE"
);
}
);
};
hints = (
{
horizontal = 1;
origin = "{0, 10}";
target = "{0, 3}";
type = TTStem;
},
{
horizontal = 1;
origin = "{1, 3}";
target = "{1, 2}";
type = TTStem;
},
{
horizontal = 1;
origin = "{0, 14}";
target = "{0, 12}";
type = TTStem;
},
{
horizontal = 1;
origin = "{0, 12}";
target = "{0, 2}";
type = Align;
},
{
horizontal = 1;
origin = "{0, 6}";
target = "{0, 4}";
type = TTStem;
},
{
horizontal = 1;
origin = "{0, 4}";
target = "{0, 9}";
type = Align;
}
);
layerId = "0225C979-6A3F-4323-834E-E3153ADD1AE8";
name = Regular;
paths = (
{
closed = 1;
nodes = (
"221 0 LINE",
"221 55 LINE",
"150 81 LINE",
"353 628 LINE",
"554 82 LINE",
"484 55 LINE",
"484 0 LINE",
"714 0 LINE",
"714 55 LINE",
"645 87 LINE",
"417 688 LINE",
"305 688 LINE",
"77 86 LINE",
"8 55 LINE",
"8 0 LINE"
);
},
{
closed = 1;
nodes = (
"534 229 LINE",
"510 300 LINE",
"191 300 LINE",
"169 229 LINE"
);
}
);
width = 722;
}
);
leftKerningGroup = A;
rightKerningGroup = A;
unicode = 0041;
},
{
color = 6;
glyphname = AE;
lastChange = "2015-06-14 03:54:22 +0000";
layers = (
{
anchors = (
{
name = top;
position = "{532, 680}";
}
);
background = {
paths = (
{
closed = 1;
nodes = (
"526 225 LINE",
"526 296 LINE",
"196 296 LINE",
"196 225 LINE"
);
},
{
closed = 1;
nodes = (
"916 503 LINE",
"975 503 LINE",
"975 680 LINE",
"308 680 LINE",
"308 623 LINE",
"381 595 LINE",
"54 85 LINE",
"-10 55 LINE",
"-10 0 LINE",
"191 0 LINE",
"191 55 LINE",
"137 82 LINE",
"479 608 LINE",
"489 608 LINE",
"489 85 LINE",
"415 55 LINE",
"415 0 LINE",
"975 0 LINE",
"975 187 LINE",
"916 187 LINE",
"890 72 LINE",
"575 72 LINE",
"575 306 LINE",
"749 306 LINE",
"764 229 LINE",
"819 229 LINE",
"819 455 LINE",
"764 455 LINE",
"749 378 LINE",
"575 378 LINE",
"575 608 LINE",
"890 608 LINE"
);
}
);
};
hints = (
{
horizontal = 1;
origin = "{1, 3}";
target = "{1, 5}";
type = TTStem;
},
{
horizontal = 1;
origin = "{1, 5}";
target = "{1, 12}";
type = Align;
},
{
horizontal = 1;
origin = "{1, 5}";
target = "{1, 30}";
type = Align;
},
{
horizontal = 1;
origin = "{1, 22}";
target = "{1, 29}";
type = TTStem;
},
{
horizontal = 1;
origin = "{0, 3}";
target = "{0, 2}";
type = TTStem;
},
{
horizontal = 1;
origin = "{1, 8}";
target = "{1, 6}";
type = TTStem;
},
{
horizontal = 1;
origin = "{1, 6}";
target = "{1, 11}";
type = Align;
},
{
horizontal = 1;
origin = "{1, 16}";
target = "{1, 14}";
type = TTStem;
},
{
horizontal = 1;
origin = "{1, 14}";
target = "{1, 21}";
type = Align;
},
{
horizontal = 1;
origin = "{1, 28}";
target = "{1, 27}";
type = TTStem;
},
{
horizontal = 1;
origin = "{1, 24}";
target = "{1, 23}";
type = TTStem;
}
);
layerId = "0225C979-6A3F-4323-834E-E3153ADD1AE8";
name = Regular;
paths = (
{
closed = 1;
nodes = (
"526 225 LINE",
"526 296 LINE",
"216 296 LINE",
"216 225 LINE"
);
},
{
closed = 1;
nodes = (
"916 503 LINE",
"975 503 LINE",
"975 680 LINE",
"308 680 LINE",
"308 623 LINE",
"381 595 LINE",
"54 85 LINE",
"-10 55 LINE",
"-10 0 LINE",
"191 0 LINE",
"191 55 LINE",
"137 82 LINE",
"479 608 LINE",
"489 608 LINE",
"489 85 LINE",
"415 55 LINE",
"415 0 LINE",
"975 0 LINE",
"975 187 LINE",
"916 187 LINE",
"890 72 LINE",
"575 72 LINE",
"575 306 LINE",
"749 306 LINE",
"764 229 LINE",
"819 229 LINE",
"819 455 LINE",
"764 455 LINE",
"749 378 LINE",
"575 378 LINE",
"575 608 LINE",
"890 608 LINE"
);
}
);
width = 1027;
}
);
rightKerningGroup = E;
rightMetricsKey = "=E";
unicode = 00C6;
},
{
color = 4;
glyphname = B;
lastChange = "2015-05-08 17:07:53 +0000";
layers = (
{
anchors = (
{
name = bottom;
position = "{355, 0}";
},
{
name = top;
position = "{355, 680}";
}
);
background = {
guideLines = (
{
angle = 90;
position = "{640, 687}";
}
);
paths = (
{
closed = 1;
nodes = (
"476 0 LINE SMOOTH",
"590 0 OFFCURVE",
"650 60 OFFCURVE",
"650 176 CURVE SMOOTH",
"650 285 OFFCURVE",
"600 335 OFFCURVE",
"530 346 CURVE",
"599 364 OFFCURVE",
"640 420 OFFCURVE",
"640 514 CURVE SMOOTH",
"640 615 OFFCURVE",
"588 680 OFFCURVE",
"462 680 CURVE SMOOTH",
"55 680 LINE",
"55 623 LINE",
"129 594 LINE",
"129 86 LINE",
"55 55 LINE",
"55 0 LINE"
);
},
{
closed = 1;
nodes = (
"215 306 LINE",
"451 306 LINE SMOOTH",
"530 306 OFFCURVE",
"560 272 OFFCURVE",
"560 189 CURVE SMOOTH",
"560 106 OFFCURVE",
"530 72 OFFCURVE",
"459 72 CURVE SMOOTH",
"215 72 LINE"
);
},
{
closed = 1;
nodes = (
"215 608 LINE",
"451 608 LINE SMOOTH",
"521 608 OFFCURVE",
"550 575 OFFCURVE",
"550 493 CURVE SMOOTH",
"550 411 OFFCURVE",
"521 378 OFFCURVE",
"443 378 CURVE SMOOTH",
"215 378 LINE"
);
}
);
};
hints = (
{
horizontal = 1;
origin = "{0, 13}";
target = "{0, 15}";
type = TTStem;
},
{
horizontal = 1;
origin = "{0, 18}";
target = "{0, 16}";
type = TTStem;
},
{
horizontal = 1;
origin = "{0, 15}";
target = "{2, 0}";
type = Align;
},
{
horizontal = 1;
origin = "{0, 16}";
target = "{1, 8}";
type = Align;
},
{
horizontal = 1;
origin = "{1, 0}";
target = "{2, 8}";
type = TTStem;
},
{
horizontal = 1;
origin = "{2, 8}";
target = "{1, 0}";
other1 = "{0, 6}";
type = Interpolate;
},
{
horizontal = 1;
origin = "{1, 8}";
target = "{1, 0}";
other1 = "{1, 4}";
type = Interpolate;
},
{
horizontal = 1;
origin = "{2, 0}";
target = "{2, 8}";
other1 = "{2, 4}";
type = Interpolate;
}
);
layerId = "0225C979-6A3F-4323-834E-E3153ADD1AE8";
name = Regular;
paths = (
{
closed = 1;
nodes = (
"476 0 LINE SMOOTH",
"590 0 OFFCURVE",
"650 60 OFFCURVE",
"650 176 CURVE SMOOTH",
"650 285 OFFCURVE",
"600 333 OFFCURVE",
"530 344 CURVE",
"599 362 OFFCURVE",
"640 420 OFFCURVE",
"640 514 CURVE SMOOTH",
"640 615 OFFCURVE",
"588 680 OFFCURVE",
"462 680 CURVE SMOOTH",
"55 680 LINE",
"55 623 LINE",
"129 594 LINE",
"129 86 LINE",
"55 55 LINE",
"55 0 LINE"
);
},
{
closed = 1;
nodes = (
"215 304 LINE",
"451 304 LINE SMOOTH",
"530 304 OFFCURVE",
"560 272 OFFCURVE",
"560 189 CURVE SMOOTH",
"560 106 OFFCURVE",
"530 72 OFFCURVE",
"459 72 CURVE SMOOTH",
"215 72 LINE"
);
},
{
closed = 1;
nodes = (
"215 608 LINE",
"451 608 LINE SMOOTH",
"521 608 OFFCURVE",
"550 575 OFFCURVE",
"550 493 CURVE SMOOTH",
"550 411 OFFCURVE",
"521 376 OFFCURVE",
"443 376 CURVE SMOOTH",
"215 376 LINE"
);
}
);
width = 710;
}
);
leftKerningGroup = H;
leftMetricsKey = "=H";
unicode = 0042;
},
{
color = 4;
glyphname = C;
lastChange = "2015-06-14 03:26:13 +0000";
layers = (
{
anchors = (
{
name = bottom;
position = "{375, 0}";
},
{
name = top;
position = "{379, 680}";
}
);
background = {
paths = (
{
closed = 1;
nodes = (
"167 692 OFFCURVE",
"42 590 OFFCURVE",
"42 340 CURVE SMOOTH",
"42 96 OFFCURVE",
"161 -12 OFFCURVE",
"375 -12 CURVE SMOOTH",
"456 -12 OFFCURVE",
"540 3 OFFCURVE",
"596 28 CURVE",
"596 102 LINE",
"525 72 OFFCURVE",
"440 62 OFFCURVE",
"375 62 CURVE SMOOTH",
"208 62 OFFCURVE",
"132 133 OFFCURVE",
"132 343 CURVE SMOOTH",
"132 547 OFFCURVE",
"204 618 OFFCURVE",
"381 618 CURVE SMOOTH",
"429 618 OFFCURVE",
"482 613 OFFCURVE",
"533 600 CURVE",
"504 642 LINE",
"526 491 LINE",
"596 491 LINE",
"596 668 LINE",
"525 684 OFFCURVE",
"451 692 OFFCURVE",
"389 692 CURVE SMOOTH"
);
}
);
};
hints = (
{
horizontal = 1;
origin = "{0, 5}";
target = "{0, 12}";
type = TTStem;
},
{
horizontal = 1;
origin = "{0, 28}";
target = "{0, 18}";
type = TTStem;
},
{
horizontal = 1;
origin = "{0, 8}";
target = "{0, 9}";
type = TTStem;
}
);
layerId = "0225C979-6A3F-4323-834E-E3153ADD1AE8";
name = Regular;
paths = (
{
closed = 1;
nodes = (
"167 692 OFFCURVE",
"42 590 OFFCURVE",
"42 340 CURVE SMOOTH",
"42 96 OFFCURVE",
"161 -12 OFFCURVE",
"375 -12 CURVE SMOOTH",
"456 -12 OFFCURVE",
"540 3 OFFCURVE",
"596 28 CURVE",
"596 102 LINE",
"525 72 OFFCURVE",
"440 62 OFFCURVE",
"375 62 CURVE SMOOTH",
"208 62 OFFCURVE",
"132 133 OFFCURVE",
"132 343 CURVE SMOOTH",
"132 547 OFFCURVE",
"204 618 OFFCURVE",
"381 618 CURVE SMOOTH",
"429 618 OFFCURVE",
"482 613 OFFCURVE",
"533 600 CURVE",
"504 642 LINE",
"526 491 LINE",
"596 491 LINE",
"596 668 LINE",
"525 684 OFFCURVE",
"451 692 OFFCURVE",
"389 692 CURVE SMOOTH"
);
}
);
width = 661;
}
);
leftKerningGroup = O;
leftMetricsKey = O;
rightKerningGroup = C;
rightMetricsKey = "65tt";
unicode = 0043;
},
{
color = 4;
glyphname = D;
lastChange = "2015-05-04 16:38:43 +0000";
layers = (
{
anchors = (
{
name = bottom;
position = "{381, 0}";
},
{
name = center;
position = "{381, 340}";
},
{
name = top;
position = "{387, 680}";
}
);
background = {
paths = (
{
closed = 1;
nodes = (
"55 680 LINE",
"55 623 LINE",
"145 594 LINE",
"145 86 LINE",
"55 55 LINE",
"55 0 LINE",
"414 0 LINE SMOOTH",
"566 0 OFFCURVE",
"719 70 OFFCURVE",
"719 342 CURVE SMOOTH",
"719 610 OFFCURVE",
"566 680 OFFCURVE",
"414 680 CURVE SMOOTH"
);
},
{
closed = 1;
nodes = (
"530 608 OFFCURVE",
"629 559 OFFCURVE",
"629 342 CURVE SMOOTH",
"629 120 OFFCURVE",
"530 72 OFFCURVE",
"393 72 CURVE SMOOTH",
"231 72 LINE",
"231 608 LINE",
"393 608 LINE SMOOTH"
);
}
);
};
hints = (
{
horizontal = 1;
origin = "{0, 0}";
target = "{1, 7}";
type = TTStem;
},
{
horizontal = 1;
origin = "{0, 5}";
target = "{1, 6}";
type = TTStem;
},
{
horizontal = 1;
origin = "{1, 7}";
target = "{0, 2}";
type = Align;
},
{
horizontal = 1;
origin = "{1, 6}";
target = "{0, 3}";
type = Align;
}
);
layerId = "0225C979-6A3F-4323-834E-E3153ADD1AE8";
rightMetricsKey = "=O";
name = Regular;
paths = (
{
closed = 1;
nodes = (
"55 680 LINE",
"55 623 LINE",
"145 594 LINE",
"145 86 LINE",
"55 55 LINE",
"55 0 LINE",
"414 0 LINE SMOOTH",
"566 0 OFFCURVE",
"719 70 OFFCURVE",
"719 342 CURVE SMOOTH",
"719 610 OFFCURVE",
"566 680 OFFCURVE",
"414 680 CURVE SMOOTH"
);
},
{
closed = 1;
nodes = (
"530 608 OFFCURVE",
"629 559 OFFCURVE",
"629 342 CURVE SMOOTH",
"629 120 OFFCURVE",
"530 72 OFFCURVE",
"393 72 CURVE SMOOTH",
"231 72 LINE",
"231 608 LINE",
"393 608 LINE SMOOTH"
);
}
);
width = 761;
}
);
leftKerningGroup = H;
leftMetricsKey = H;
rightKerningGroup = O;
rightMetricsKey = O;
unicode = 0044;
},
{
glyphname = Eth;
lastChange = "2015-06-02 18:21:45 +0000";
layers = (
{
background = {
components = (
{
name = D;
}
);
paths = (
{
closed = 1;
nodes = (
"55 376 LINE",
"55 304 LINE",
"475 304 LINE",
"475 376 LINE"
);
}
);
};
components = (
{
name = D;
}
);
guideLines = (
{
angle = 90;
position = "{55, 0}";
}
);
hints = (
{
horizontal = 1;
origin = "{0, 1}";
target = "{0, 0}";
type = TTStem;
},
{
horizontal = 1;
origin = "{0, 2}";
target = "{0, 3}";
type = TTStem;
}
);
layerId = "0225C979-6A3F-4323-834E-E3153ADD1AE8";
name = Regular;
paths = (
{
closed = 1;
nodes = (
"55 376 LINE",
"55 304 LINE",
"475 304 LINE",
"475 376 LINE"
);
}
);
width = 761;
}
);
leftKerningGroup = H;
rightKerningGroup = O;
unicode = 00D0;
},
{
color = 4;
glyphname = E;
lastChange = "2015-06-14 03:54:09 +0000";
layers = (
{
anchors = (
{
name = bottom;
position = "{380, 0}";
},
{
name = ogonek;
position = "{576, 10}";
},
{
name = top;
position = "{375, 680}";
}
);
background = {
guideLines = (
{
angle = 90;
position = "{645, 85}";
}
);
paths = (
{
closed = 1;
nodes = (
"55 680 LINE",
"55 623 LINE",
"129 594 LINE",
"129 85 LINE",
"55 55 LINE",
"55 0 LINE",
"640 0 LINE",
"640 187 LINE",
"581 187 LINE",
"555 72 LINE",
"215 72 LINE",
"215 306 LINE",
"414 306 LINE",
"429 229 LINE",
"484 229 LINE",
"484 455 LINE",
"429 455 LINE",
"414 378 LINE",
"215 378 LINE",
"215 608 LINE",
"555 608 LINE",
"581 503 LINE",
"640 503 LINE",
"640 680 LINE"
);
}
);
};
hints = (
{
horizontal = 1;
origin = "{0, 0}";
target = "{0, 19}";
type = TTStem;
},
{
horizontal = 1;
origin = "{0, 5}";
target = "{0, 10}";
type = TTStem;
},
{
horizontal = 1;
origin = "{0, 19}";
target = "{0, 2}";
type = Align;
},
{
horizontal = 1;
origin = "{0, 10}";
target = "{0, 3}";
type = Align;
},
{
horizontal = 1;
origin = "{0, 17}";
target = "{0, 16}";
type = TTStem;
},
{
horizontal = 1;
origin = "{0, 12}";
target = "{0, 13}";
type = TTStem;
},
{
horizontal = 1;
origin = "{0, 11}";
target = "{0, 18}";
type = TTStem;
}
);
layerId = "0225C979-6A3F-4323-834E-E3153ADD1AE8";
name = Regular;
paths = (
{
closed = 1;
nodes = (
"55 680 LINE",
"55 623 LINE",
"129 594 LINE",
"129 85 LINE",
"55 55 LINE",
"55 0 LINE",
"640 0 LINE",
"640 187 LINE",
"581 187 LINE",
"555 72 LINE",
"215 72 LINE",
"215 306 LINE",
"414 306 LINE",
"429 229 LINE",
"484 229 LINE",
"484 455 LINE",
"429 455 LINE",
"414 378 LINE",
"215 378 LINE",
"215 608 LINE",
"555 608 LINE",
"581 503 LINE",
"640 503 LINE",
"640 680 LINE"
);
}
);
width = 692;
}
);
leftKerningGroup = H;
leftMetricsKey = H;
rightKerningGroup = E;
unicode = 0045;
},
{
color = 4;
glyphname = F;
lastChange = "2015-05-08 17:47:12 +0000";
layers = (
{
anchors = (
{
name = bottom;
position = "{172, 0}";
},
{
name = top;
position = "{382, 680}";
}
);
background = {
anchors = (
{
name = bottom;
position = "{380, 0}";
},
{
name = ogonek;
position = "{552, 10}";
},
{
name = top;
position = "{375, 680}";
}
);
paths = (
{
closed = 1;
nodes = (
"55 680 LINE",
"55 623 LINE",
"129 594 LINE",
"129 85 LINE",
"55 55 LINE",
"55 0 LINE",
"306 0 LINE",
"306 55 LINE",
"215 85 LINE",
"215 297 LINE",
"407 297 LINE",
"422 216 LINE",
"477 216 LINE",
"477 447 LINE",
"422 447 LINE",
"407 369 LINE",
"215 369 LINE",
"215 608 LINE",
"549 608 LINE",
"576 497 LINE",
"634 497 LINE",
"634 680 LINE"
);
}
);
};
hints = (
{
horizontal = 1;
origin = "{0, 0}";
target = "{0, 2}";
type = TTStem;
},
{
horizontal = 1;
origin = "{0, 2}";
target = "{0, 17}";
type = Align;
},
{
horizontal = 1;
origin = "{0, 5}";
target = "{0, 3}";
type = TTStem;
},
{
horizontal = 1;
origin = "{0, 3}";
target = "{0, 8}";
type = Align;
},
{
horizontal = 1;
origin = "{0, 0}";
target = "{0, 8}";
other1 = "{0, 15}";
type = Interpolate;
},
{
horizontal = 1;
origin = "{0, 15}";
target = "{0, 10}";
type = TTStem;
},
{
horizontal = 1;
origin = "{0, 15}";
target = "{0, 14}";
type = TTStem;
},
{
horizontal = 1;
origin = "{0, 10}";
target = "{0, 11}";
type = TTStem;
}
);
layerId = "0225C979-6A3F-4323-834E-E3153ADD1AE8";
name = Regular;
paths = (
{
closed = 1;
nodes = (
"55 680 LINE",
"55 623 LINE",
"129 594 LINE",
"129 85 LINE",
"55 55 LINE",
"55 0 LINE",
"306 0 LINE",
"306 55 LINE",
"215 85 LINE",
"215 297 LINE",
"407 297 LINE",
"422 216 LINE",
"477 216 LINE",
"477 447 LINE",
"422 447 LINE",
"407 369 LINE",
"215 369 LINE",
"215 608 LINE",
"549 608 LINE",
"576 497 LINE",
"634 497 LINE",
"634 680 LINE"
);
}
);
width = 679;
}
);
leftKerningGroup = H;
leftMetricsKey = H;
unicode = 0046;
},
{
color = 4;
glyphname = G;
lastChange = "2015-05-06 02:57:56 +0000";
layers = (
{
anchors = (
{
name = bottom;
position = "{387, 0}";
},
{
name = top;
position = "{379, 680}";
}
);
background = {
paths = (
{
closed = 1;
nodes = (
"166.199 692 OFFCURVE",
"42 588.771 OFFCURVE",
"42 340 CURVE SMOOTH",
"42 89 OFFCURVE",
"162 -12 OFFCURVE",
"389 -12 CURVE SMOOTH",
"460 -12 OFFCURVE",
"550 0 OFFCURVE",
"622 24 CURVE",
"622 254 LINE",
"686 283 LINE",
"686 340 LINE",
"473 340 LINE",
"473 283 LINE",
"537 254 LINE",
"537 82 LINE",
"490 68 OFFCURVE",
"440 62 OFFCURVE",
"385 62 CURVE SMOOTH",
"203 62 OFFCURVE",
"132 127 OFFCURVE",
"132 340 CURVE SMOOTH",
"132 548.673 OFFCURVE",
"202.034 618 OFFCURVE",
"388 618 CURVE SMOOTH",
"446.049 618 OFFCURVE",
"503.08 610 OFFCURVE",
"554 597 CURVE",
"530 639 LINE",
"552 488 LINE",
"622 488 LINE",
"622 665 LINE",
"549.061 681 OFFCURVE",
"472.07 692 OFFCURVE",
"389 692 CURVE SMOOTH"
);
}
);
};
guideLines = (
{
angle = 167.8;
position = "{626, 664}";
},
{
angle = 90;
position = "{1356, 608}";
},
{
angle = 90;
position = "{1532, 608}";
},
{
angle = 90;
position = "{537, 254}";
},
{
angle = 90;
position = "{622, 254}";
}
);
hints = (
{
horizontal = 1;
origin = "{0, 34}";
target = "{0, 24}";
type = TTStem;
},
{
horizontal = 1;
origin = "{0, 5}";
target = "{0, 18}";
type = TTStem;
},
{
horizontal = 1;
origin = "{0, 14}";
target = "{0, 12}";
type = TTStem;
},
{
horizontal = 1;
origin = "{0, 9}";
target = "{0, 14}";
type = Align;
}
);
layerId = "0225C979-6A3F-4323-834E-E3153ADD1AE8";
name = Regular;
paths = (
{
closed = 1;
nodes = (
"166.199 692 OFFCURVE",
"42 588.771 OFFCURVE",
"42 340 CURVE SMOOTH",
"42 89 OFFCURVE",
"162 -12 OFFCURVE",
"389 -12 CURVE SMOOTH",
"460 -12 OFFCURVE",
"550 0 OFFCURVE",
"622 24 CURVE",
"622 254 LINE",
"686 283 LINE",
"686 340 LINE",
"473 340 LINE",
"473 283 LINE",
"537 254 LINE",
"537 82 LINE",
"490 68 OFFCURVE",
"440 62 OFFCURVE",
"385 62 CURVE SMOOTH",
"203 62 OFFCURVE",
"132 127 OFFCURVE",
"132 340 CURVE SMOOTH",
"132 548.673 OFFCURVE",
"202.034 618 OFFCURVE",
"388 618 CURVE SMOOTH",
"446.049 618 OFFCURVE",
"503.08 610 OFFCURVE",
"554 597 CURVE",
"530 639 LINE",
"552 488 LINE",
"622 488 LINE",
"622 665 LINE",
"549.061 681 OFFCURVE",
"472.07 692 OFFCURVE",
"389 692 CURVE SMOOTH"
);
}
);
width = 706;
}
);
leftKerningGroup = O;
leftMetricsKey = O;
rightKerningGroup = G;
unicode = 0047;
},
{
color = 4;
glyphname = H;
lastChange = "2015-05-04 16:38:41 +0000";
layers = (
{
anchors = (
{
name = bottom;
position = "{411, 0}";
},
{
name = center;
position = "{411, 340}";
},
{
name = top;
position = "{411, 680}";
}
);
background = {
guideLines = (
{
angle = 90;
position = "{543, 83}";
},
{
angle = 90;
position = "{130, 592}";
},
{
angle = 90;
position = "{694, 593}";
}
);
paths = (
{
closed = 1;
nodes = (
"533 680 LINE",
"533 623 LINE",
"607 594 LINE",
"607 378 LINE",
"215 378 LINE",
"215 594 LINE",
"289 623 LINE",
"289 680 LINE",
"55 680 LINE",
"55 623 LINE",
"129 594 LINE",
"129 86 LINE",
"55 55 LINE",
"55 0 LINE",
"289 0 LINE",
"289 55 LINE",
"215 86 LINE",
"215 306 LINE",
"607 306 LINE",
"607 86 LINE",
"533 55 LINE",
"533 0 LINE",
"767 0 LINE",
"767 55 LINE",
"693 86 LINE",
"693 594 LINE",
"767 623 LINE",
"767 680 LINE"
);
}
);
};
hints = (
{
horizontal = 1;
origin = "{0, 17}";
target = "{0, 4}";
type = TTStem;
},
{
horizontal = 1;
origin = "{0, 8}";
target = "{0, 10}";
type = TTStem;
},
{
horizontal = 1;
origin = "{0, 13}";
target = "{0, 11}";
type = TTStem;
},
{
horizontal = 1;
origin = "{0, 10}";
target = "{0, 5}";
type = Align;
},
{
horizontal = 1;
origin = "{0, 0}";
target = "{0, 2}";
type = TTStem;
},
{
horizontal = 1;
origin = "{0, 2}";
target = "{0, 25}";
type = Align;
},
{
horizontal = 1;
origin = "{0, 11}";
target = "{0, 16}";
type = Align;
},
{
horizontal = 1;
origin = "{0, 21}";
target = "{0, 19}";
type = TTStem;
},
{
horizontal = 1;
origin = "{0, 19}";
target = "{0, 24}";
type = Align;
}
);
layerId = "0225C979-6A3F-4323-834E-E3153ADD1AE8";
rightMetricsKey = "=|H";
name = Regular;
paths = (
{
closed = 1;
nodes = (
"533 680 LINE",
"533 623 LINE",
"607 594 LINE",
"607 378 LINE",
"215 378 LINE",
"215 594 LINE",
"289 623 LINE",
"289 680 LINE",
"55 680 LINE",
"55 623 LINE",
"129 594 LINE",
"129 86 LINE",
"55 55 LINE",
"55 0 LINE",
"289 0 LINE",
"289 55 LINE",
"215 86 LINE",
"215 306 LINE",
"607 306 LINE",
"607 86 LINE",
"533 55 LINE",
"533 0 LINE",
"767 0 LINE",
"767 55 LINE",
"693 86 LINE",
"693 594 LINE",
"767 623 LINE",
"767 680 LINE"
);
}
);
width = 822;
}
);
leftKerningGroup = H;
rightKerningGroup = H;
rightMetricsKey = "=|H";
unicode = 0048;
},
{
color = 4;
glyphname = I;
lastChange = "2015-05-04 16:38:41 +0000";
layers = (
{
anchors = (
{
name = bottom;
position = "{172, 0}";
},
{
name = ogonek;
position = "{165, 10}";
},
{
name = top;
position = "{172, 680}";
}
);
background = {
paths = (
{
closed = 1;
nodes = (
"55 680 LINE",
"55 623 LINE",
"129 594 LINE",
"129 85 LINE",
"55 55 LINE",
"55 0 LINE",
"289 0 LINE",
"289 55 LINE",
"215 85 LINE",
"215 594 LINE",
"289 623 LINE",
"289 680 LINE"
);
}
);
};
guideLines = (
{
angle = 90;
position = "{172, 85}";
},
{
position = "{129, 85}";
}
);
hints = (
{
horizontal = 1;
origin = "{0, 0}";
target = "{0, 2}";
type = TTStem;
},
{
horizontal = 1;
origin = "{0, 2}";
target = "{0, 9}";
type = Align;
},
{
horizontal = 1;
origin = "{0, 5}";
target = "{0, 3}";
type = TTStem;
},
{
horizontal = 1;
origin = "{0, 3}";
target = "{0, 8}";
type = Align;
}
);
layerId = "0225C979-6A3F-4323-834E-E3153ADD1AE8";
name = Regular;
paths = (
{
closed = 1;
nodes = (
"55 680 LINE",
"55 623 LINE",
"129 594 LINE",
"129 85 LINE",
"55 55 LINE",
"55 0 LINE",
"289 0 LINE",
"289 55 LINE",
"215 85 LINE",
"215 594 LINE",
"289 623 LINE",
"289 680 LINE"
);
}
);
width = 344;
}
);
leftKerningGroup = H;
leftMetricsKey = H;
rightKerningGroup = H;
rightMetricsKey = H;
unicode = 0049;
},
{
color = 4;
glyphname = J;
lastChange = "2015-05-04 16:38:41 +0000";
layers = (
{
anchors = (
{
name = bottom;
position = "{220, 0}";
},
{
name = top;
position = "{220, 680}";
}
);
background = {
paths = (
{
closed = 1;
nodes = (
"146 680 LINE",
"146 623 LINE",
"230 594 LINE",
"230 224 LINE SMOOTH",
"230 103 OFFCURVE",
"190 60 OFFCURVE",
"96 60 CURVE SMOOTH",
"68 60 OFFCURVE",
"43 62 OFFCURVE",
"20 66 CURVE",
"20 -4 LINE",
"48 -10 OFFCURVE",
"73 -12 OFFCURVE",
"106 -12 CURVE SMOOTH",
"241 -12 OFFCURVE",
"316 58 OFFCURVE",
"316 231 CURVE SMOOTH",
"316 594 LINE",
"390 623 LINE",
"390 680 LINE"
);
}
);
};
hints = (
{
horizontal = 1;
origin = "{0, 13}";
target = "{0, 6}";
type = TTStem;
},
{
horizontal = 1;
origin = "{0, 0}";
target = "{0, 2}";
type = TTStem;
},
{
horizontal = 1;
origin = "{0, 2}";
target = "{0, 17}";
type = Align;
}
);
layerId = "0225C979-6A3F-4323-834E-E3153ADD1AE8";
name = Regular;
paths = (
{
closed = 1;
nodes = (
"146 680 LINE",
"146 623 LINE",
"230 594 LINE",
"230 224 LINE SMOOTH",
"230 103 OFFCURVE",
"190 60 OFFCURVE",
"96 60 CURVE SMOOTH",
"68 60 OFFCURVE",
"43 62 OFFCURVE",
"20 66 CURVE",
"20 -4 LINE",
"48 -10 OFFCURVE",
"73 -12 OFFCURVE",
"106 -12 CURVE SMOOTH",
"241 -12 OFFCURVE",
"316 58 OFFCURVE",
"316 231 CURVE SMOOTH",
"316 594 LINE",
"390 623 LINE",
"390 680 LINE"
);
}
);
width = 440;
}
);
rightKerningGroup = U;
unicode = 004A;
},
{
color = 4;
glyphname = K;
lastChange = "2015-06-02 18:25:50 +0000";
layers = (
{
anchors = (
{
name = bottom;
position = "{405, 0}";
},
{
name = top;
position = "{398, 680}";
}
);
background = {
paths = (
{
closed = 1;
nodes = (
"55 680 LINE",
"55 623 LINE",
"129 594 LINE",
"129 86 LINE",
"55 55 LINE",
"55 0 LINE",
"294 0 LINE",
"294 55 LINE",
"215 86 LINE",
"215 594 LINE",
"289 623 LINE",
"289 680 LINE"
);
},
{
closed = 1;
nodes = (
"688 86 LINE",
"417 406 LINE",
"351 354 LINE",
"578.304 85.414 LINE",
"515 56 LINE",
"515 1 LINE",
"752 1 LINE",
"752 56 LINE"
);
},
{
closed = 1;
nodes = (
"506 680 LINE",
"506 623 LINE",
"565 598 LINE",
"205 315 LINE",
"205 227 LINE",
"669 590 LINE",
"742 623 LINE",
"742 680 LINE"
);
}
);
};
guideLines = (
{
angle = 38.0728;
position = "{201, 237}";
}
);
hints = (
{
horizontal = 1;
origin = "{0, 0}";
target = "{0, 2}";
type = TTStem;
},
{
horizontal = 1;
origin = "{0, 2}";
target = "{0, 9}";
type = Align;
},
{
horizontal = 1;
origin = "{0, 5}";
target = "{0, 3}";
type = TTStem;
},
{
horizontal = 1;
origin = "{0, 3}";
target = "{0, 8}";
type = Align;
},
{
horizontal = 1;
origin = "{2, 0}";
target = "{2, 2}";
type = TTStem;
},
{
horizontal = 1;
origin = "{2, 4}";
target = "{1, 2}";
type = Align;
options = 4;
},
{
horizontal = 1;
origin = "{1, 5}";
target = "{1, 3}";
type = TTStem;
},
{
horizontal = 1;
origin = "{1, 3}";
target = "{1, 0}";
type = Align;
},
{
horizontal = 1;
origin = "{2, 4}";
target = "{2, 3}";
type = TTStem;
}
);
layerId = "0225C979-6A3F-4323-834E-E3153ADD1AE8";
name = Regular;
paths = (
{
closed = 1;
nodes = (
"55 680 LINE",
"55 623 LINE",
"129 594 LINE",
"129 86 LINE",
"55 55 LINE",
"55 0 LINE",
"294 0 LINE",
"294 55 LINE",
"215 86 LINE",
"215 594 LINE",
"289 623 LINE",
"289 680 LINE"
);
},
{
closed = 1;
nodes = (
"688 86 LINE",
"417 406 LINE",
"351 354 LINE",
"578.304 85.414 LINE",
"515 56 LINE",
"515 1 LINE",
"752 1 LINE",
"752 56 LINE"
);
},
{
closed = 1;
nodes = (
"506 680 LINE",
"506 623 LINE",
"565 598 LINE",
"205 315 LINE",
"205 227 LINE",
"669 590 LINE",
"742 623 LINE",
"742 680 LINE"
);
}
);
width = 797;
}
);
leftKerningGroup = H;
leftMetricsKey = H;
rightKerningGroup = K;
unicode = 004B;
},
{
color = 4;
glyphname = L;
lastChange = "2015-05-04 16:38:41 +0000";
layers = (
{
anchors = (
{
name = bottom;
position = "{377, 0}";
},
{
name = center;
position = "{172, 340}";
},
{
name = top;
position = "{172, 680}";
},
{
name = topright;
position = "{447, 405}";
}
);
background = {
paths = (
{
closed = 1;
nodes = (
"55 680 LINE",
"55 623 LINE",
"129 594 LINE",
"129 85 LINE",
"55 55 LINE",
"55 0 LINE",
"623 0 LINE",
"623 187 LINE",
"564 187 LINE",
"538 72 LINE",
"215 72 LINE",
"215 594 LINE",
"289 623 LINE",
"289 680 LINE"
);
}
);
};
guideLines = (
{
position = "{129, 594}";
},
{
position = "{55, 623}";
}
);
hints = (
{
horizontal = 1;
origin = "{0, 0}";
target = "{0, 2}";
type = TTStem;
},
{
horizontal = 1;
origin = "{0, 2}";
target = "{0, 11}";
type = Align;
},
{
horizontal = 1;
origin = "{0, 5}";
target = "{0, 10}";
type = TTStem;
},
{
horizontal = 1;
origin = "{0, 10}";
target = "{0, 3}";
type = Align;
}
);
layerId = "0225C979-6A3F-4323-834E-E3153ADD1AE8";
name = Regular;
paths = (
{
closed = 1;
nodes = (
"55 680 LINE",
"55 623 LINE",
"129 594 LINE",
"129 85 LINE",
"55 55 LINE",
"55 0 LINE",
"623 0 LINE",
"623 187 LINE",
"564 187 LINE",
"538 72 LINE",
"215 72 LINE",
"215 594 LINE",
"289 623 LINE",
"289 680 LINE"
);
}
);
width = 643;
}
);
leftKerningGroup = H;
rightKerningGroup = L;
unicode = 004C;
},
{
color = 0;
glyphname = Lcaron;
lastChange = "2015-06-02 18:26:29 +0000";
layers = (
{
background = {
components = (
{
name = L;
}
);
paths = (
{
closed = 1;
nodes = (
"447 470 LINE",
"513 470 LINE",
"545 680 LINE",
"447 680 LINE"
);
}
);
};
components = (
{
name = L;
}
);
hints = (
{
horizontal = 1;
origin = "{0, 3}";
type = Anchor;
}
);
layerId = "0225C979-6A3F-4323-834E-E3153ADD1AE8";
name = Regular;
paths = (
{
closed = 1;
nodes = (
"447 470 LINE",
"513 470 LINE",
"545 680 LINE",
"447 680 LINE"
);
}
);
width = 643;
}
);
leftKerningGroup = H;
leftMetricsKey = H;
widthMetricsKey = L;
rightKerningGroup = L;
unicode = 013D;
},
{
glyphname = Lslash;
lastChange = "2015-05-06 02:59:30 +0000";
layers = (
{
background = {
guideLines = (
{
position = "{137, 340}";
},
{
angle = 90;
position = "{172, 375}";
}
);
paths = (
{
closed = 1;
nodes = (
"55 680 LINE",
"55 623 LINE",
"129 594 LINE",
"129 85 LINE",
"55 55 LINE",
"55 0 LINE",
"629 0 LINE",
"629 187 LINE",
"570 187 LINE",
"544 72 LINE",
"215 72 LINE",
"215 594 LINE",
"289 623 LINE",
"289 680 LINE"
);
}
);
};
components = (
{
name = L;
}
);
guideLines = (
{
angle = 90;
position = "{55, 680}";
}
);
hints = (
{
horizontal = 1;
origin = "{0, 3}";
target = "{0, 2}";
type = TTStem;
},
{
horizontal = 1;
origin = "{0, 0}";
target = "{0, 1}";
type = TTStem;
}
);
layerId = "0225C979-6A3F-4323-834E-E3153ADD1AE8";
name = Regular;
paths = (
{
closed = 1;
nodes = (
"428 409 LINE",
"428 485 LINE",
"55 329 LINE",
"55 253 LINE"
);
}
);
width = 643;
}
);
leftKerningGroup = H;
leftMetricsKey = H;
widthMetricsKey = L;
unicode = 0141;
},
{
color = 4;
glyphname = M;
lastChange = "2015-06-02 18:28:39 +0000";
layers = (
{
anchors = (
{
name = bottom;
position = "{469, 0}";
},
{
name = top;
position = "{469, 680}";
}
);
background = {
paths = (
{
closed = 1;
nodes = (
"676 680 LINE",
"464 181 LINE",
"478 181 LINE",
"266 680 LINE",
"55 680 LINE",
"55 623 LINE",
"129 594 LINE",
"129 85 LINE",
"55 55 LINE",
"55 0 LINE",
"270 0 LINE",
"270 55 LINE",
"201 85 LINE",
"201 630 LINE",
"194 630 LINE",
"429 85 LINE",
"496 85 LINE",
"730 630 LINE",
"723 630 LINE",
"723 85 LINE",
"654 55 LINE",
"654 0 LINE",
"883 0 LINE",
"883 55 LINE",
"809 85 LINE",
"809 594 LINE",
"883 623 LINE",
"883 680 LINE"
);
}
);
};
hints = (
{
horizontal = 1;
origin = "{0, 4}";
target = "{0, 13}";
type = TTStem;
},
{
horizontal = 1;
origin = "{0, 13}";
target = "{0, 6}";
type = Align;
},
{
horizontal = 1;
origin = "{0, 27}";
target = "{0, 18}";
type = TTStem;
},
{
horizontal = 1;
origin = "{0, 18}";
target = "{0, 25}";
type = Align;
},
{
horizontal = 1;
origin = "{0, 9}";
target = "{0, 7}";
type = TTStem;
},
{
horizontal = 1;
origin = "{0, 21}";
target = "{0, 19}";
type = TTStem;
},
{
horizontal = 1;
origin = "{0, 19}";
target = "{0, 24}";
type = Align;
},
{
horizontal = 1;
origin = "{0, 15}";
target = "{0, 2}";
type = Align;
options = 4;
},
{
horizontal = 1;
origin = "{0, 7}";
target = "{0, 12}";
type = Align;
}
);
layerId = "0225C979-6A3F-4323-834E-E3153ADD1AE8";
name = Regular;
paths = (
{
closed = 1;
nodes = (
"676 680 LINE",
"464 181 LINE",
"478 181 LINE",
"266 680 LINE",
"55 680 LINE",
"55 623 LINE",
"129 594 LINE",
"129 85 LINE",
"55 55 LINE",
"55 0 LINE",
"270 0 LINE",
"270 55 LINE",
"201 85 LINE",
"201 630 LINE",
"194 630 LINE",
"429 85 LINE",
"496 85 LINE",
"730 630 LINE",
"723 630 LINE",
"723 85 LINE",
"654 55 LINE",
"654 0 LINE",
"883 0 LINE",
"883 55 LINE",
"809 85 LINE",
"809 594 LINE",
"883 623 LINE",
"883 680 LINE"
);
}
);
width = 938;
}
);
leftKerningGroup = H;
leftMetricsKey = H;
rightKerningGroup = H;
rightMetricsKey = H;
unicode = 004D;
},
{
color = 4;
glyphname = N;
lastChange = "2015-06-02 18:28:58 +0000";
layers = (
{
anchors = (
{
name = bottom;
position = "{404, 0}";
},
{
name = top;
position = "{404, 680}";
}
);
background = {
guideLines = (
{
angle = 90;
position = "{546, 272}";
},
{
angle = 216.469;
position = "{546, 448}";
showMeasurement = 1;
},
{
position = "{678, 448}";
}
);
paths = (
{
closed = 1;
nodes = (
"536 680 LINE",
"536 623 LINE",
"615 594 LINE",
"615 81 LINE",
"631 84 LINE",
"231 680 LINE",
"55 680 LINE",
"55 623 LINE",
"129 594 LINE",
"129 85 LINE",
"55 55 LINE",
"55 0 LINE",
"281 0 LINE",
"281 55 LINE",
"202 85 LINE",
"202 599 LINE",
"187 595 LINE",
"587 0 LINE",
"689 0 LINE",
"689 594 LINE",
"763 623 LINE",
"763 680 LINE"
);
}
);
};
hints = (
{
horizontal = 1;
origin = "{0, 11}";
target = "{0, 9}";
type = TTStem;
},
{
horizontal = 1;
origin = "{0, 9}";
target = "{0, 14}";
type = Align;
},
{
horizontal = 1;
origin = "{0, 6}";
target = "{0, 8}";
type = TTStem;
},
{
horizontal = 1;
origin = "{0, 8}";
target = "{0, 15}";
type = Align;
},
{
horizontal = 1;
origin = "{0, 0}";
target = "{0, 2}";
type = TTStem;
},
{
horizontal = 1;
origin = "{0, 2}";
target = "{0, 19}";
type = Align;
},
{
horizontal = 1;
origin = "{0, 18}";
type = Anchor;
}
);
layerId = "0225C979-6A3F-4323-834E-E3153ADD1AE8";
name = Regular;
paths = (
{
closed = 1;
nodes = (
"536 680 LINE",
"536 623 LINE",
"615 594 LINE",
"615 81 LINE",
"631 84 LINE",
"231 680 LINE",
"55 680 LINE",
"55 623 LINE",
"129 594 LINE",
"129 85 LINE",
"55 55 LINE",
"55 0 LINE",
"281 0 LINE",
"281 55 LINE",
"202 85 LINE",
"202 599 LINE",
"187 595 LINE",
"587 0 LINE",
"689 0 LINE",
"689 594 LINE",
"763 623 LINE",
"763 680 LINE"
);
}
);
width = 808;
}
);
leftKerningGroup = H;
leftMetricsKey = H;
rightKerningGroup = H;
rightMetricsKey = "=H-10";
unicode = 004E;
},
{
color = 4;
glyphname = O;
lastChange = "2015-05-08 17:51:01 +0000";
layers = (
{
anchors = (
{
name = bottom;
position = "{364, 0}";
},
{
name = center;
position = "{364, 340}";
},
{
name = ogonek;
position = "{357, 10}";
},
{
name = top;
position = "{364, 680}";
},
{
name = topright;
position = "{708, 680}";
}
);
background = {
paths = (
{
closed = 1;
nodes = (
"168 692 OFFCURVE",
"42 583 OFFCURVE",
"42 340 CURVE SMOOTH",
"42 97 OFFCURVE",
"168 -12 OFFCURVE",
"364 -12 CURVE SMOOTH",
"560 -12 OFFCURVE",
"686 97 OFFCURVE",
"686 340 CURVE SMOOTH",
"686 583 OFFCURVE",
"560 692 OFFCURVE",
"364 692 CURVE SMOOTH"
);
},
{
closed = 1;
nodes = (
"521 618 OFFCURVE",
"596 546 OFFCURVE",
"596 340 CURVE SMOOTH",
"596 134 OFFCURVE",
"521 62 OFFCURVE",
"364 62 CURVE SMOOTH",
"207 62 OFFCURVE",
"132 134 OFFCURVE",
"132 340 CURVE SMOOTH",
"132 546 OFFCURVE",
"207 618 OFFCURVE",
"364 618 CURVE SMOOTH"
);
}
);
};
guideLines = (
{
angle = 90;
position = "{364, 618}";
}
);
hints = (
{
horizontal = 1;
origin = "{0, 5}";
target = "{1, 5}";
type = TTStem;
},
{
horizontal = 1;
origin = "{0, 11}";
target = "{1, 11}";
type = TTStem;
}
);
layerId = "0225C979-6A3F-4323-834E-E3153ADD1AE8";
rightMetricsKey = "=|O";
name = Regular;
paths = (
{
closed = 1;
nodes = (
"168 692 OFFCURVE",
"42 583 OFFCURVE",
"42 340 CURVE SMOOTH",
"42 97 OFFCURVE",
"168 -12 OFFCURVE",
"364 -12 CURVE SMOOTH",
"560 -12 OFFCURVE",
"686 97 OFFCURVE",
"686 340 CURVE SMOOTH",
"686 583 OFFCURVE",
"560 692 OFFCURVE",
"364 692 CURVE SMOOTH"
);
},
{
closed = 1;
nodes = (
"521 618 OFFCURVE",
"596 546 OFFCURVE",
"596 340 CURVE SMOOTH",
"596 134 OFFCURVE",
"521 62 OFFCURVE",
"364 62 CURVE SMOOTH",
"207 62 OFFCURVE",
"132 134 OFFCURVE",
"132 340 CURVE SMOOTH",
"132 546 OFFCURVE",
"207 618 OFFCURVE",
"364 618 CURVE SMOOTH"
);
}
);
width = 728;
}
);
leftKerningGroup = O;
rightKerningGroup = O;
rightMetricsKey = "=|O";
unicode = 004F;
},
{
glyphname = Oslash;
lastChange = "2015-05-04 16:38:41 +0000";
layers = (
{
background = {
components = (
{
name = O;
}
);
guideLines = (
{
angle = 90;
position = "{132, 340}";
},
{
angle = 90;
position = "{42, 340}";
},
{
angle = 90;
position = "{686, 340}";
},
{
angle = 90;
position = "{596, 340}";
}
);
paths = (
{
closed = 1;
nodes = (
"584 705 LINE",
"52 -25 LINE",
"145 -25 LINE",
"676 705 LINE"
);
}
);
};
components = (
{
name = O;
}
);
guideLines = (
{
angle = 90;
position = "{132, 340}";
},
{
angle = 90;
position = "{52, 340}";
},
{
angle = 90;
position = "{676, 340}";
},
{
angle = 90;
position = "{596, 340}";
},
{
position = "{42, -25}";
},
{
position = "{28, 705}";
}
);
layerId = "0225C979-6A3F-4323-834E-E3153ADD1AE8";
name = Regular;
paths = (
{
closed = 1;
nodes = (
"584 705 LINE",
"52 -25 LINE",
"145 -25 LINE",
"676 705 LINE"
);
}
);
width = 728;
}
);
leftKerningGroup = O;
rightKerningGroup = O;
unicode = 00D8;
},
{
glyphname = OE;
lastChange = "2015-06-14 03:45:33 +0000";
layers = (
{
anchors = (
{
name = top;
position = "{604, 680}";
}
);
background = {
paths = (
{
closed = 1;
nodes = (
"428 -14 OFFCURVE",
"481 -7 OFFCURVE",
"513 0 CURVE",
"1047 0 LINE",
"1047 187 LINE",
"988 187 LINE",
"962 72 LINE",
"647 72 LINE",
"647 306 LINE",
"821 306 LINE",
"836 229 LINE",
"891 229 LINE",
"891 455 LINE",
"836 455 LINE",
"821 378 LINE",
"647 378 LINE",
"647 608 LINE",
"962 608 LINE",
"988 503 LINE",
"1047 503 LINE",
"1047 680 LINE",
"513 680 LINE",
"481 686 OFFCURVE",
"428 694 OFFCURVE",
"372 694 CURVE SMOOTH",
"163 694 OFFCURVE",
"42 580 OFFCURVE",
"42 342 CURVE SMOOTH",
"42 101 OFFCURVE",
"163 -14 OFFCURVE",
"372 -14 CURVE SMOOTH"
);
},
{
closed = 1;
nodes = (
"224 60 OFFCURVE",
"133 145 OFFCURVE",
"131 342 CURVE SMOOTH",
"129 536 OFFCURVE",
"224 620 OFFCURVE",
"375 620 CURVE SMOOTH",
"437 620 OFFCURVE",
"500 613 OFFCURVE",
"561 592 CURVE",
"561 88 LINE",
"500 67 OFFCURVE",
"437 60 OFFCURVE",
"375 60 CURVE SMOOTH"
);
}
);
};
hints = (
{
horizontal = 1;
origin = "{0, 30}";
target = "{1, 12}";
type = TTStem;
},
{
horizontal = 1;
origin = "{0, 8}";
target = "{0, 15}";
type = TTStem;
},
{
horizontal = 1;
origin = "{0, 21}";
target = "{0, 16}";
type = TTStem;
},
{
horizontal = 1;
origin = "{0, 2}";
target = "{0, 7}";
type = TTStem;
},
{
horizontal = 1;
origin = "{0, 24}";
target = "{1, 5}";
type = TTStem;
},
{
horizontal = 1;
origin = "{0, 14}";
target = "{0, 13}";
type = TTStem;
},
{
horizontal = 1;
origin = "{0, 10}";
target = "{0, 9}";
type = TTStem;
}
);
layerId = "0225C979-6A3F-4323-834E-E3153ADD1AE8";
name = Regular;
paths = (
{
closed = 1;
nodes = (
"428 -14 OFFCURVE",
"481 -7 OFFCURVE",
"513 0 CURVE",
"1047 0 LINE",
"1047 187 LINE",
"988 187 LINE",
"962 72 LINE",
"647 72 LINE",
"647 306 LINE",
"821 306 LINE",
"836 229 LINE",
"891 229 LINE",
"891 455 LINE",
"836 455 LINE",
"821 378 LINE",
"647 378 LINE",
"647 608 LINE",
"962 608 LINE",
"988 503 LINE",
"1047 503 LINE",
"1047 680 LINE",
"513 680 LINE",
"481 686 OFFCURVE",
"428 694 OFFCURVE",
"372 694 CURVE SMOOTH",
"163 694 OFFCURVE",
"42 580 OFFCURVE",
"42 342 CURVE SMOOTH",
"42 101 OFFCURVE",
"163 -14 OFFCURVE",
"372 -14 CURVE SMOOTH"
);
},
{
closed = 1;
nodes = (
"224 60 OFFCURVE",
"133 145 OFFCURVE",
"131 342 CURVE SMOOTH",
"129 536 OFFCURVE",
"224 620 OFFCURVE",
"375 620 CURVE SMOOTH",
"437 620 OFFCURVE",
"500 613 OFFCURVE",
"561 592 CURVE",
"561 88 LINE",
"500 67 OFFCURVE",
"437 60 OFFCURVE",
"375 60 CURVE SMOOTH"
);
}
);
width = 1099;
}
);
leftKerningGroup = O;
leftMetricsKey = O;
rightKerningGroup = E;
rightMetricsKey = "=E";
unicode = 0152;
},
{
color = 4;
glyphname = P;
lastChange = "2015-05-04 16:38:42 +0000";
layers = (
{
anchors = (
{
name = bottom;
position = "{172, 0}";
},
{
name = top;
position = "{340, 680}";
}
);
background = {
guideLines = (
{
position = "{530, 475}";
}
);
paths = (
{
closed = 1;
nodes = (
"579 270 OFFCURVE",
"650 340 OFFCURVE",
"650 475 CURVE SMOOTH",
"650 610 OFFCURVE",
"582 680 OFFCURVE",
"453 680 CURVE SMOOTH",
"55 680 LINE",
"55 623 LINE",
"129 594 LINE",
"129 86 LINE",
"55 55 LINE",
"55 0 LINE",
"289 0 LINE",
"289 55 LINE",
"215 86 LINE",
"215 270 LINE",
"444 270 LINE SMOOTH"
);
},
{
closed = 1;
nodes = (
"560 381 OFFCURVE",
"525 342 OFFCURVE",
"435 342 CURVE SMOOTH",
"215 342 LINE",
"215 608 LINE",
"445 608 LINE SMOOTH",
"525 608 OFFCURVE",
"560 569 OFFCURVE",
"560 475 CURVE SMOOTH"
);
}
);
};
guideLines = (
{
position = "{195, 342}";
},
{
position = "{195, 270}";
}
);
hints = (
{
horizontal = 1;
origin = "{0, 11}";
target = "{0, 9}";
type = TTStem;
},
{
horizontal = 1;
origin = "{0, 9}";
target = "{0, 14}";
type = Align;
},
{
horizontal = 1;
origin = "{0, 6}";
target = "{1, 4}";
type = TTStem;
},
{
horizontal = 1;
origin = "{1, 4}";
target = "{0, 8}";
type = Align;
},
{
horizontal = 1;
origin = "{0, 15}";
target = "{1, 3}";
type = TTStem;
}
);
layerId = "0225C979-6A3F-4323-834E-E3153ADD1AE8";
name = Regular;
paths = (
{
closed = 1;
nodes = (
"579 270 OFFCURVE",
"650 340 OFFCURVE",
"650 475 CURVE SMOOTH",
"650 610 OFFCURVE",
"582 680 OFFCURVE",
"453 680 CURVE SMOOTH",
"55 680 LINE",
"55 623 LINE",
"129 594 LINE",
"129 86 LINE",
"55 55 LINE",
"55 0 LINE",
"289 0 LINE",
"289 55 LINE",
"215 86 LINE",
"215 270 LINE",
"444 270 LINE SMOOTH"
);
},
{
closed = 1;
nodes = (
"560 381 OFFCURVE",
"525 342 OFFCURVE",
"435 342 CURVE SMOOTH",
"215 342 LINE",
"215 608 LINE",
"445 608 LINE SMOOTH",
"525 608 OFFCURVE",
"560 569 OFFCURVE",
"560 475 CURVE SMOOTH"
);
}
);
width = 680;
}
);
leftKerningGroup = H;
leftMetricsKey = H;
unicode = 0050;
},
{
glyphname = Thorn;
lastChange = "2015-05-11 16:31:46 +0000";
layers = (
{
background = {
paths = (
{
closed = 1;
nodes = (
"294 0 LINE",
"294 55 LINE",
"215 86 LINE",
"215 135 LINE",
"453 135 LINE SMOOTH",
"582 135 OFFCURVE",
"650 205 OFFCURVE",
"650 340 CURVE SMOOTH",
"650 475 OFFCURVE",
"582 545 OFFCURVE",
"453 545 CURVE SMOOTH",
"215 545 LINE",
"215 594 LINE",
"294 623 LINE",
"294 680 LINE",
"55 680 LINE",
"55 623 LINE",
"129 594 LINE",
"129 86 LINE",
"55 55 LINE",
"55 0 LINE"
);
},
{
closed = 1;
nodes = (
"215 473 LINE",
"445 473 LINE SMOOTH",
"525 473 OFFCURVE",
"560 434 OFFCURVE",
"560 340 CURVE SMOOTH",
"560 246 OFFCURVE",
"525 207 OFFCURVE",
"445 207 CURVE SMOOTH",
"215 207 LINE"
);
}
);
};
guideLines = (
{
angle = 90;
position = "{215, 473}";
}
);
hints = (
{
horizontal = 1;
origin = "{0, 15}";
target = "{0, 12}";
type = TTStem;
},
{
horizontal = 1;
origin = "{0, 12}";
target = "{0, 17}";
type = Align;
},
{
horizontal = 1;
origin = "{0, 20}";
target = "{0, 2}";
type = TTStem;
},
{
horizontal = 1;
origin = "{0, 2}";
target = "{0, 18}";
type = Align;
},
{
horizontal = 1;
origin = "{1, 0}";
target = "{0, 11}";
type = TTStem;
},
{
horizontal = 1;
origin = "{0, 3}";
target = "{1, 8}";
type = TTStem;
},
{
horizontal = 1;
origin = "{0, 12}";
target = "{0, 11}";
type = TTStem;
},
{
horizontal = 1;
origin = "{0, 2}";
target = "{0, 3}";
type = TTStem;
}
);
layerId = "0225C979-6A3F-4323-834E-E3153ADD1AE8";
name = Regular;
paths = (
{
closed = 1;
nodes = (
"294 0 LINE",
"294 55 LINE",
"215 86 LINE",
"215 135 LINE",
"453 135 LINE SMOOTH",
"582 135 OFFCURVE",
"650 205 OFFCURVE",
"650 340 CURVE SMOOTH",
"650 475 OFFCURVE",
"582 545 OFFCURVE",
"453 545 CURVE SMOOTH",
"215 545 LINE",
"215 594 LINE",
"294 623 LINE",
"294 680 LINE",
"55 680 LINE",
"55 623 LINE",
"129 594 LINE",
"129 86 LINE",
"55 55 LINE",
"55 0 LINE"
);
},
{
closed = 1;
nodes = (
"215 473 LINE",
"445 473 LINE SMOOTH",
"525 473 OFFCURVE",
"560 434 OFFCURVE",
"560 340 CURVE SMOOTH",
"560 246 OFFCURVE",
"525 207 OFFCURVE",
"445 207 CURVE SMOOTH",
"215 207 LINE"
);
}
);
width = 665;
}
);
leftKerningGroup = H;
unicode = 00DE;
},
{
color = 4;
glyphname = Q;
lastChange = "2015-06-11 19:17:40 +0000";
layers = (
{
anchors = (
{
name = bottom;
position = "{192, 0}";
},
{
name = top;
position = "{364, 680}";
}
);
background = {
components = (
{
name = O;
}
);
paths = (
{
closed = 1;
nodes = (
"342 0 LINE",
"342 -143 OFFCURVE",
"394 -191 OFFCURVE",
"641 -191 CURVE",
"641 -115 LINE",
"446 -115 OFFCURVE",
"416 -95 OFFCURVE",
"416 0 CURVE"
);
}
);
};
components = (
{
name = O;
}
);
guideLines = (
{
angle = 90;
position = "{364, 618}";
}
);
hints = (
{
horizontal = 1;
origin = "{0, 3}";
target = "{0, 4}";
type = TTStem;
},
{
horizontal = 1;
origin = "{0, 0}";
target = "{0, 7}";
type = Align;
}
);
layerId = "0225C979-6A3F-4323-834E-E3153ADD1AE8";
name = Regular;
paths = (
{
closed = 1;
nodes = (
"342 0 LINE",
"342 -143 OFFCURVE",
"394 -191 OFFCURVE",
"641 -191 CURVE",
"641 -115 LINE",
"446 -115 OFFCURVE",
"416 -95 OFFCURVE",
"416 0 CURVE"
);
}
);
width = 728;
}
);
leftKerningGroup = O;
leftMetricsKey = O;
rightKerningGroup = O;
rightMetricsKey = O;
unicode = 0051;
},
{
color = 4;
glyphname = R;
lastChange = "2015-05-11 16:32:20 +0000";
layers = (
{
anchors = (
{
name = bottom;
position = "{433, 0}";
},
{
name = top;
position = "{373, 680}";
}
);
background = {
paths = (
{
closed = 1;
nodes = (
"374 303 LINE",
"576 0 LINE",
"691 0 LINE",
"691 55 LINE",
"623 85 LINE",
"475 303 LINE"
);
},
{
closed = 1;
nodes = (
"580 282 OFFCURVE",
"651 350 OFFCURVE",
"651 481 CURVE SMOOTH",
"651 612 OFFCURVE",
"583 680 OFFCURVE",
"454 680 CURVE SMOOTH",
"55 680 LINE",
"55 623 LINE",
"129 594 LINE",
"129 86 LINE",
"55 55 LINE",
"55 0 LINE",
"289 0 LINE",
"289 55 LINE",
"215 86 LINE",
"215 282 LINE",
"445 282 LINE SMOOTH"
);
},
{
closed = 1;
nodes = (
"215 354 LINE",
"215 608 LINE",
"446 608 LINE SMOOTH",
"526 608 OFFCURVE",
"561 571 OFFCURVE",
"561 481 CURVE SMOOTH",
"561 391 OFFCURVE",
"526 354 OFFCURVE",
"436 354 CURVE SMOOTH"
);
}
);
};
hints = (
{
horizontal = 1;
origin = "{1, 6}";
target = "{2, 1}";
type = TTStem;
},
{
horizontal = 1;
origin = "{2, 1}";
target = "{1, 8}";
type = Align;
},
{
horizontal = 1;
origin = "{1, 15}";
target = "{2, 0}";
type = TTStem;
},
{
horizontal = 1;
origin = "{1, 11}";
target = "{1, 9}";
type = TTStem;
},
{
horizontal = 1;
origin = "{1, 9}";
target = "{1, 14}";
type = Align;
},
{
horizontal = 1;
origin = "{0, 2}";
target = "{0, 4}";
type = TTStem;
},
{
horizontal = 1;
origin = "{1, 15}";
target = "{0, 5}";
type = Align;
}
);
layerId = "0225C979-6A3F-4323-834E-E3153ADD1AE8";
name = Regular;
paths = (
{
closed = 1;
nodes = (
"374 303 LINE",
"576 0 LINE",
"691 0 LINE",
"691 55 LINE",
"623 85 LINE",
"475 303 LINE"
);
},
{
closed = 1;
nodes = (
"580 282 OFFCURVE",
"651 350 OFFCURVE",
"651 481 CURVE SMOOTH",
"651 612 OFFCURVE",
"583 680 OFFCURVE",
"454 680 CURVE SMOOTH",
"55 680 LINE",
"55 623 LINE",
"129 594 LINE",
"129 86 LINE",
"55 55 LINE",
"55 0 LINE",
"289 0 LINE",
"289 55 LINE",
"215 86 LINE",
"215 282 LINE",
"445 282 LINE SMOOTH"
);
},
{
closed = 1;
nodes = (
"215 354 LINE",
"215 608 LINE",
"446 608 LINE SMOOTH",
"526 608 OFFCURVE",
"561 571 OFFCURVE",
"561 481 CURVE SMOOTH",
"561 391 OFFCURVE",
"526 354 OFFCURVE",
"436 354 CURVE SMOOTH"
);
}
);
width = 728;
}
);
leftKerningGroup = H;
leftMetricsKey = H;
rightKerningGroup = R;
unicode = 0052;
},
{
color = 4;
glyphname = S;
lastChange = "2015-06-02 18:35:40 +0000";
layers = (
{
anchors = (
{
name = bottom;
position = "{310, 0}";
},
{
name = top;
position = "{309, 680}";
}
);
background = {
paths = (
{
closed = 1;
nodes = (
"123 688 OFFCURVE",
"47 640 OFFCURVE",
"47 498 CURVE SMOOTH",
"47 384 OFFCURVE",
"94 342 OFFCURVE",
"255 312 CURVE SMOOTH",
"461 273 OFFCURVE",
"479 274 OFFCURVE",
"479 176 CURVE SMOOTH",
"479 98 OFFCURVE",
"449 66 OFFCURVE",
"300 66 CURVE SMOOTH",
"241 66 OFFCURVE",
"181 72 OFFCURVE",
"116 89 CURVE",
"138 52 LINE",
"116 200 LINE",
"47 200 LINE",
"47 22 LINE",
"135 -1 OFFCURVE",
"216 -8 OFFCURVE",
"297 -8 CURVE SMOOTH",
"492 -8 OFFCURVE",
"567 40 OFFCURVE",
"567 190 CURVE SMOOTH",
"567 325 OFFCURVE",
"518 351 OFFCURVE",
"366 380 CURVE SMOOTH",
"163 419 OFFCURVE",
"135 419 OFFCURVE",
"135 513 CURVE SMOOTH",
"135 582 OFFCURVE",
"164 614 OFFCURVE",
"305 614 CURVE SMOOTH",
"361 614 OFFCURVE",
"419 609 OFFCURVE",
"481 595 CURVE",
"464 634 LINE",
"485 487 LINE",
"551 487 LINE",
"551 662 LINE",
"469 679 OFFCURVE",
"389 688 OFFCURVE",
"309 688 CURVE SMOOTH"
);
}
);
};
hints = (
{
horizontal = 1;
origin = "{0, 43}";
target = "{0, 33}";
type = TTStem;
},
{
horizontal = 1;
origin = "{0, 21}";
target = "{0, 11}";
type = TTStem;
},
{
horizontal = 1;
origin = "{0, 5}";
target = "{0, 27}";
type = TTStem;
}
);
layerId = "0225C979-6A3F-4323-834E-E3153ADD1AE8";
name = Regular;
paths = (
{
closed = 1;
nodes = (
"123 688 OFFCURVE",
"47 640 OFFCURVE",
"47 498 CURVE SMOOTH",
"47 384 OFFCURVE",
"94 342 OFFCURVE",
"255 312 CURVE SMOOTH",
"461 273 OFFCURVE",
"479 274 OFFCURVE",
"479 176 CURVE SMOOTH",
"479 98 OFFCURVE",
"449 66 OFFCURVE",
"300 66 CURVE SMOOTH",
"241 66 OFFCURVE",
"181 72 OFFCURVE",
"116 89 CURVE",
"138 52 LINE",
"116 200 LINE",
"47 200 LINE",
"47 22 LINE",
"135 -1 OFFCURVE",
"216 -8 OFFCURVE",
"297 -8 CURVE SMOOTH",
"492 -8 OFFCURVE",
"567 40 OFFCURVE",
"567 190 CURVE SMOOTH",
"567 325 OFFCURVE",
"518 351 OFFCURVE",
"366 380 CURVE SMOOTH",
"163 419 OFFCURVE",
"135 419 OFFCURVE",
"135 513 CURVE SMOOTH",
"135 582 OFFCURVE",
"164 614 OFFCURVE",
"305 614 CURVE SMOOTH",
"361 614 OFFCURVE",
"419 609 OFFCURVE",
"481 595 CURVE",
"464 634 LINE",
"485 487 LINE",
"551 487 LINE",
"551 662 LINE",
"469 679 OFFCURVE",
"389 688 OFFCURVE",
"309 688 CURVE SMOOTH"
);
}
);
width = 619;
}
);
leftKerningGroup = S;
rightKerningGroup = S;
unicode = 0053;
},
{
glyphname = Germandbls;
lastChange = "2015-05-11 16:36:15 +0000";
layers = (
{
associatedMasterId = "0225C979-6A3F-4323-834E-E3153ADD1AE8";
background = {
guideLines = (
{
angle = 137.77;
position = "{581, 455}";
showMeasurement = 1;
}
);
paths = (
{
closed = 1;
nodes = (
"129 680 LINE",
"129 86 LINE",
"55 55 LINE",
"55 0 LINE",
"215 0 LINE",
"215 608 LINE",
"558 608 LINE",
"558 626 LINE",
"362 405 LINE",
"362 333 LINE",
"392 333 LINE SMOOTH",
"569 333 OFFCURVE",
"603 287 OFFCURVE",
"603 201 CURVE SMOOTH",
"603 93 OFFCURVE",
"548 62 OFFCURVE",
"433 62 CURVE SMOOTH",
"398 62 OFFCURVE",
"367 65 OFFCURVE",
"337 69 CURVE",
"337 -3 LINE",
"369 -9 OFFCURVE",
"412 -12 OFFCURVE",
"445 -12 CURVE SMOOTH",
"619 -12 OFFCURVE",
"693 71 OFFCURVE",
"693 200 CURVE SMOOTH",
"693 337 OFFCURVE",
"609 403 OFFCURVE",
"453 403 CURVE",
"453 387 LINE",
"658 618 LINE",
"658 680 LINE"
);
}
);
};
guideLines = (
{
angle = 90;
position = "{453, 416}";
}
);
hints = (
{
horizontal = 1;
origin = "{0, 24}";
target = "{0, 17}";
type = TTStem;
},
{
horizontal = 1;
origin = "{0, 10}";
target = "{0, 9}";
type = TTStem;
},
{
horizontal = 1;
origin = "{0, 2}";
target = "{0, 7}";
type = TTStem;
},
{
horizontal = 1;
origin = "{0, 5}";
target = "{0, 3}";
type = TTStem;
},
{
horizontal = 1;
origin = "{0, 21}";
type = Anchor;
},
{
horizontal = 1;
origin = "{0, 9}";
target = "{0, 30}";
type = Align;
}
);
layerId = "8FF63242-6205-4E1B-8CA1-DF7DC946A21D";
leftMetricsKey = "=H";
name = "Regular May 11 15, 10:33";
paths = (
{
closed = 1;
nodes = (
"658 618 LINE",
"658 680 LINE",
"129 680 LINE",
"129 86 LINE",
"55 55 LINE",
"55 0 LINE",
"215 0 LINE",
"215 608 LINE",
"542 608 LINE",
"362 405 LINE",
"362 333 LINE",
"392 333 LINE SMOOTH",
"569 333 OFFCURVE",
"603 287 OFFCURVE",
"603 201 CURVE SMOOTH",
"603 93 OFFCURVE",
"548 62 OFFCURVE",
"433 62 CURVE SMOOTH",
"398 62 OFFCURVE",
"367 65 OFFCURVE",
"337 69 CURVE",
"337 -3 LINE",
"369 -9 OFFCURVE",
"412 -12 OFFCURVE",
"445 -12 CURVE SMOOTH",
"619 -12 OFFCURVE",
"693 71 OFFCURVE",
"693 200 CURVE SMOOTH",
"693 333 OFFCURVE",
"614 399 OFFCURVE",
"467 403 CURVE"
);
}
);
width = 723;
},
{
background = {
guideLines = (
{
angle = 137.77;
position = "{581, 455}";
showMeasurement = 1;
}
);
paths = (
{
closed = 1;
nodes = (
"129 680 LINE",
"129 86 LINE",
"55 55 LINE",
"55 0 LINE",
"215 0 LINE",
"215 608 LINE",
"558 608 LINE",
"558 626 LINE",
"362 405 LINE",
"362 333 LINE",
"392 333 LINE SMOOTH",
"569 333 OFFCURVE",
"603 287 OFFCURVE",
"603 201 CURVE SMOOTH",
"603 93 OFFCURVE",
"548 62 OFFCURVE",
"433 62 CURVE SMOOTH",
"398 62 OFFCURVE",
"367 65 OFFCURVE",
"337 69 CURVE",
"337 -3 LINE",
"369 -9 OFFCURVE",
"412 -12 OFFCURVE",
"445 -12 CURVE SMOOTH",
"619 -12 OFFCURVE",
"693 71 OFFCURVE",
"693 200 CURVE SMOOTH",
"693 337 OFFCURVE",
"609 403 OFFCURVE",
"453 403 CURVE",
"453 387 LINE",
"658 618 LINE",
"658 680 LINE"
);
}
);
};
guideLines = (
{
angle = 90;
position = "{453, 416}";
}
);
hints = (
{
horizontal = 1;
origin = "{0, 23}";
target = "{0, 16}";
type = TTStem;
},
{
horizontal = 1;
origin = "{0, 0}";
target = "{0, 5}";
type = TTStem;
},
{
horizontal = 1;
origin = "{0, 3}";
target = "{0, 1}";
type = TTStem;
},
{
horizontal = 1;
origin = "{0, 20}";
type = Anchor;
},
{
horizontal = 1;
origin = "{0, 9}";
target = "{0, 29}";
type = TTStem;
}
);
layerId = "0225C979-6A3F-4323-834E-E3153ADD1AE8";
leftMetricsKey = "=H";
name = Regular;
paths = (
{
closed = 1;
nodes = (
"129 680 LINE",
"129 86 LINE",
"55 55 LINE",
"55 0 LINE",
"215 0 LINE",
"215 608 LINE",
"558 608 LINE",
"558 626 LINE",
"362 405 LINE",
"362 333 LINE",
"392 333 LINE SMOOTH",
"569 333 OFFCURVE",
"603 287 OFFCURVE",
"603 201 CURVE SMOOTH",
"603 93 OFFCURVE",
"548 62 OFFCURVE",
"433 62 CURVE SMOOTH",
"398 62 OFFCURVE",
"367 65 OFFCURVE",
"337 69 CURVE",
"337 -3 LINE",
"369 -9 OFFCURVE",
"412 -12 OFFCURVE",
"445 -12 CURVE SMOOTH",
"619 -12 OFFCURVE",
"693 71 OFFCURVE",
"693 200 CURVE SMOOTH",
"693 337 OFFCURVE",
"609 403 OFFCURVE",
"453 403 CURVE",
"453 387 LINE",
"658 618 LINE",
"658 680 LINE"
);
}
);
width = 723;
}
);
leftKerningGroup = H;
leftMetricsKey = H;
unicode = 1E9E;
},
{
color = 4;
glyphname = T;
lastChange = "2015-05-04 16:38:42 +0000";
layers = (
{
anchors = (
{
name = bottom;
position = "{338, 0}";
},
{
name = center;
position = "{338, 340}";
},
{
name = top;
position = "{338, 680}";
}
);
background = {
paths = (
{
closed = 1;
nodes = (
"30 680 LINE",
"30 488 LINE",
"85 488 LINE",
"114 608 LINE",
"295 608 LINE",
"295 85 LINE",
"211 55 LINE",
"211 0 LINE",
"465 0 LINE",
"465 55 LINE",
"381 85 LINE",
"381 608 LINE",
"562 608 LINE",
"591 488 LINE",
"646 488 LINE",
"646 680 LINE"
);
}
);
};
hints = (
{
horizontal = 1;
origin = "{0, 7}";
target = "{0, 5}";
type = TTStem;
},
{
horizontal = 1;
origin = "{0, 0}";
target = "{0, 3}";
type = TTStem;
},
{
horizontal = 1;
origin = "{0, 3}";
target = "{0, 11}";
type = Align;
},
{
horizontal = 1;
origin = "{0, 5}";
target = "{0, 10}";
type = Align;
}
);
layerId = "0225C979-6A3F-4323-834E-E3153ADD1AE8";
name = Regular;
paths = (
{
closed = 1;
nodes = (
"30 680 LINE",
"30 488 LINE",
"85 488 LINE",
"114 608 LINE",
"295 608 LINE",
"295 85 LINE",
"211 55 LINE",
"211 0 LINE",
"465 0 LINE",
"465 55 LINE",
"381 85 LINE",
"381 608 LINE",
"562 608 LINE",
"591 488 LINE",
"646 488 LINE",
"646 680 LINE"
);
}
);
width = 676;
}
);
leftKerningGroup = T;
rightKerningGroup = T;
unicode = 0054;
},
{
color = 4;
glyphname = U;
lastChange = "2015-05-04 16:38:41 +0000";
layers = (
{
anchors = (
{
name = bottom;
position = "{401, 0}";
},
{
name = ogonek;
position = "{402, 8}";
},
{
name = top;
position = "{398, 680}";
},
{
name = topright;
position = "{773, 680}";
}
);
background = {
paths = (
{
closed = 1;
nodes = (
"516 680 LINE",
"516 623 LINE",
"597 594 LINE",
"597 260 LINE SMOOTH",
"597 99 OFFCURVE",
"532 59 OFFCURVE",
"406 59 CURVE SMOOTH",
"269 59 OFFCURVE",
"205 107 OFFCURVE",
"205 267 CURVE SMOOTH",
"205 594 LINE",
"279 623 LINE",
"279 680 LINE",
"45 680 LINE",
"45 623 LINE",
"119 594 LINE",
"119 260 LINE SMOOTH",
"119 57 OFFCURVE",
"226 -15 OFFCURVE",
"402 -15 CURVE SMOOTH",
"577 -15 OFFCURVE",
"669 57 OFFCURVE",
"669 267 CURVE SMOOTH",
"669 594 LINE",
"753 623 LINE",
"753 680 LINE"
);
}
);
};
hints = (
{
horizontal = 1;
origin = "{0, 13}";
target = "{0, 15}";
type = TTStem;
},
{
horizontal = 1;
origin = "{0, 15}";
target = "{0, 10}";
type = Align;
},
{
horizontal = 1;
origin = "{0, 0}";
target = "{0, 2}";
type = TTStem;
},
{
horizontal = 1;
origin = "{0, 2}";
target = "{0, 23}";
type = Align;
},
{
horizontal = 1;
origin = "{0, 19}";
target = "{0, 6}";
type = TTStem;
}
);
layerId = "0225C979-6A3F-4323-834E-E3153ADD1AE8";
name = Regular;
paths = (
{
closed = 1;
nodes = (
"516 680 LINE",
"516 623 LINE",
"597 594 LINE",
"597 260 LINE SMOOTH",
"597 99 OFFCURVE",
"532 59 OFFCURVE",
"406 59 CURVE SMOOTH",
"269 59 OFFCURVE",
"205 107 OFFCURVE",
"205 267 CURVE SMOOTH",
"205 594 LINE",
"279 623 LINE",
"279 680 LINE",
"45 680 LINE",
"45 623 LINE",
"119 594 LINE",
"119 260 LINE SMOOTH",
"119 57 OFFCURVE",
"226 -15 OFFCURVE",
"402 -15 CURVE SMOOTH",
"577 -15 OFFCURVE",
"669 57 OFFCURVE",
"669 267 CURVE SMOOTH",
"669 594 LINE",
"753 623 LINE",
"753 680 LINE"
);
}
);
width = 793;
}
);
leftKerningGroup = U;
leftMetricsKey = "=H-10";
rightKerningGroup = U;
rightMetricsKey = "=|U-5";
unicode = 0055;
},
{
color = 4;
glyphname = V;
lastChange = "2015-05-11 16:44:31 +0000";
layers = (
{
anchors = (
{
name = bottom;
position = "{386, 0}";
},
{
name = top;
position = "{378, 680}";
}
);
background = {
paths = (
{
closed = 1;
nodes = (
"431 0 LINE",
"657 594 LINE",
"726 623 LINE",
"726 680 LINE",
"507 680 LINE",
"507 623 LINE",
"581 594 LINE",
"382 62 LINE",
"388 62 LINE",
"190 594 LINE",
"264 623 LINE",
"264 680 LINE",
"29 680 LINE",
"29 623 LINE",
"98 594 LINE",
"324 0 LINE"
);
}
);
};
hints = (
{
horizontal = 1;
origin = "{0, 12}";
target = "{0, 14}";
type = TTStem;
},
{
horizontal = 1;
origin = "{0, 14}";
target = "{0, 9}";
type = Align;
},
{
horizontal = 1;
origin = "{0, 4}";
target = "{0, 6}";
type = TTStem;
},
{
horizontal = 1;
origin = "{0, 6}";
target = "{0, 1}";
type = Align;
},
{
horizontal = 1;
origin = "{0, 15}";
target = "{0, 7}";
type = TTStem;
},
{
horizontal = 1;
origin = "{0, 7}";
target = "{0, 0}";
type = Align;
options = 4;
}
);
layerId = "0225C979-6A3F-4323-834E-E3153ADD1AE8";
name = Regular;
paths = (
{
closed = 1;
nodes = (
"431 0 LINE",
"657 594 LINE",
"726 623 LINE",
"726 680 LINE",
"507 680 LINE",
"507 623 LINE",
"581 594 LINE",
"382 62 LINE",
"388 62 LINE",
"190 594 LINE",
"264 623 LINE",
"264 680 LINE",
"29 680 LINE",
"29 623 LINE",
"98 594 LINE",
"324 0 LINE"
);
}
);
width = 755;
}
);
unicode = 0056;
},
{
color = 4;
glyphname = W;
lastChange = "2015-06-02 18:43:39 +0000";
layers = (
{
anchors = (
{
name = bottom;
position = "{529, 0}";
},
{
name = top;
position = "{529, 680}";
}
);
background = {
paths = (
{
closed = 1;
nodes = (
"811 680 LINE",
"811 623 LINE",
"885 594 LINE",
"735 80 LINE",
"741 80 LINE",
"586 625 LINE",
"481 625 LINE",
"327 80 LINE",
"333 80 LINE",
"182 594 LINE",
"256 623 LINE",
"256 680 LINE",
"23 680 LINE",
"23 623 LINE",
"92 594 LINE",
"272 0 LINE",
"374 0 LINE",
"531 540 LINE",
"527 540 LINE",
"681 0 LINE",
"782 0 LINE",
"960 594 LINE",
"1029 623 LINE",
"1029 680 LINE"
);
}
);
};
guideLines = (
{
angle = 198.327;
position = "{174, 1177}";
},
{
position = "{758, 1416}";
}
);
hints = (
{
horizontal = 1;
origin = "{0, 12}";
target = "{0, 14}";
type = TTStem;
},
{
horizontal = 1;
origin = "{0, 14}";
target = "{0, 9}";
type = Align;
},
{
horizontal = 1;
origin = "{0, 0}";
target = "{0, 2}";
type = TTStem;
},
{
horizontal = 1;
origin = "{0, 2}";
target = "{0, 21}";
type = Align;
},
{
horizontal = 1;
origin = "{0, 15}";
target = "{0, 7}";
type = TTStem;
},
{
horizontal = 1;
origin = "{0, 19}";
target = "{0, 3}";
type = TTStem;
},
{
horizontal = 1;
origin = "{0, 3}";
target = "{0, 20}";
type = Align;
options = 4;
},
{
horizontal = 1;
origin = "{0, 7}";
target = "{0, 16}";
type = Align;
options = 4;
},
{
horizontal = 1;
origin = "{0, 18}";
target = "{0, 6}";
type = Align;
options = 4;
},
{
horizontal = 1;
origin = "{0, 12}";
target = "{0, 5}";
type = Align;
options = 4;
}
);
layerId = "0225C979-6A3F-4323-834E-E3153ADD1AE8";
name = Regular;
paths = (
{
closed = 1;
nodes = (
"811 680 LINE",
"811 623 LINE",
"885 594 LINE",
"735 80 LINE",
"741 80 LINE",
"586 625 LINE",
"481 625 LINE",
"327 80 LINE",
"333 80 LINE",
"182 594 LINE",
"256 623 LINE",
"256 680 LINE",
"23 680 LINE",
"23 623 LINE",
"92 594 LINE",
"272 0 LINE",
"374 0 LINE",
"531 540 LINE",
"527 540 LINE",
"681 0 LINE",
"782 0 LINE",
"960 594 LINE",
"1029 623 LINE",
"1029 680 LINE"
);
}
);
width = 1052;
}
);
unicode = 0057;
},
{
color = 4;
glyphname = X;
lastChange = "2015-05-06 16:29:32 +0000";
layers = (
{
anchors = (
{
name = bottom;
position = "{369, 0}";
},
{
name = top;
position = "{386, 680}";
}
);
background = {
paths = (
{
closed = 1;
nodes = (
"34 680 LINE",
"34 623 LINE",
"103 594 LINE",
"542 85 LINE",
"468 55 LINE",
"468 0 LINE",
"722 0 LINE",
"722 55 LINE",
"653 85 LINE",
"214 594 LINE",
"288 623 LINE",
"288 680 LINE"
);
},
{
closed = 1;
nodes = (
"99 85 LINE",
"30 55 LINE",
"30 0 LINE",
"270 0 LINE",
"270 55 LINE",
"196 85 LINE",
"376 293 LINE",
"331 345 LINE"
);
},
{
closed = 1;
nodes = (
"484 680 LINE",
"484 625 LINE",
"558 595 LINE",
"379 386 LINE",
"423 335 LINE",
"653 595 LINE",
"722 625 LINE",
"722 680 LINE"
);
}
);
};
guideLines = (
{
angle = -49.223;
position = "{202, 592}";
},
{
angle = -49.223;
position = "{122, 588}";
}
);
hints = (
{
horizontal = 1;
origin = "{0, 0}";
target = "{0, 2}";
type = TTStem;
},
{
horizontal = 1;
origin = "{2, 0}";
target = "{2, 2}";
type = TTStem;
},
{
horizontal = 1;
origin = "{1, 2}";
target = "{1, 0}";
type = TTStem;
},
{
horizontal = 1;
origin = "{1, 0}";
target = "{1, 5}";
type = Align;
},
{
horizontal = 1;
origin = "{0, 5}";
target = "{0, 3}";
type = TTStem;
},
{
horizontal = 1;
origin = "{0, 3}";
target = "{0, 8}";
type = Align;
},
{
horizontal = 1;
origin = "{0, 2}";
target = "{0, 9}";
type = Align;
},
{
horizontal = 1;
origin = "{2, 2}";
target = "{2, 5}";
type = Align;
}
);
layerId = "0225C979-6A3F-4323-834E-E3153ADD1AE8";
name = Regular;
paths = (
{
closed = 1;
nodes = (
"34 680 LINE",
"34 623 LINE",
"103 594 LINE",
"542 85 LINE",
"468 55 LINE",
"468 0 LINE",
"722 0 LINE",
"722 55 LINE",
"653 85 LINE",
"214 594 LINE",
"288 623 LINE",
"288 680 LINE"
);
},
{
closed = 1;
nodes = (
"99 85 LINE",
"30 55 LINE",
"30 0 LINE",
"270 0 LINE",
"270 55 LINE",
"196 85 LINE",
"376 293 LINE",
"331 345 LINE"
);
},
{
closed = 1;
nodes = (
"484 680 LINE",
"484 625 LINE",
"558 595 LINE",
"379 386 LINE",
"423 335 LINE",
"653 595 LINE",
"722 625 LINE",
"722 680 LINE"
);
}
);
width = 752;
}
);
unicode = 0058;
},
{
color = 4;
glyphname = Y;
lastChange = "2015-06-02 18:44:36 +0000";
layers = (
{
anchors = (
{
name = bottom;
position = "{348, 0}";
},
{
name = ogonek;
position = "{341, 10}";
},
{
name = top;
position = "{356, 680}";
}
);
background = {
paths = (
{
closed = 1;
nodes = (
"457 680 LINE",
"457 623 LINE",
"526 594 LINE",
"348 323 LINE",
"363 323 LINE",
"184 594 LINE",
"254 623 LINE",
"254 680 LINE",
"20 680 LINE",
"20 623 LINE",
"85 594 LINE",
"305 265 LINE",
"305 85 LINE",
"221 55 LINE",
"221 0 LINE",
"475 0 LINE",
"475 55 LINE",
"391 85 LINE",
"391 265 LINE",
"612 594 LINE",
"676 623 LINE",
"676 680 LINE"
);
}
);
};
hints = (
{
horizontal = 1;
origin = "{0, 8}";
target = "{0, 10}";
type = TTStem;
},
{
horizontal = 1;
origin = "{0, 0}";
target = "{0, 2}";
type = TTStem;
},
{
horizontal = 1;
origin = "{0, 2}";
target = "{0, 19}";
type = Align;
},
{
horizontal = 1;
origin = "{0, 14}";
target = "{0, 12}";
type = TTStem;
},
{
horizontal = 1;
origin = "{0, 12}";
target = "{0, 17}";
type = Align;
},
{
horizontal = 1;
origin = "{0, 11}";
target = "{0, 18}";
type = Align;
},
{
horizontal = 1;
origin = "{0, 10}";
target = "{0, 5}";
type = Align;
},
{
horizontal = 1;
origin = "{0, 11}";
target = "{0, 3}";
type = TTStem;
}
);
layerId = "0225C979-6A3F-4323-834E-E3153ADD1AE8";
name = Regular;
paths = (
{
closed = 1;
nodes = (
"457 680 LINE",
"457 623 LINE",
"526 594 LINE",
"348 323 LINE",
"363 323 LINE",
"184 594 LINE",
"254 623 LINE",
"254 680 LINE",
"20 680 LINE",
"20 623 LINE",
"85 594 LINE",
"305 265 LINE",
"305 85 LINE",
"221 55 LINE",
"221 0 LINE",
"475 0 LINE",
"475 55 LINE",
"391 85 LINE",
"391 265 LINE",
"612 594 LINE",
"676 623 LINE",
"676 680 LINE"
);
}
);
width = 696;
}
);
leftKerningGroup = Y;
rightKerningGroup = Y;
unicode = 0059;
},
{
color = 4;
glyphname = Z;
lastChange = "2015-05-08 17:32:48 +0000";
layers = (
{
anchors = (
{
name = bottom;
position = "{342, 0}";
},
{
name = top;
position = "{340, 680}";
}
);
background = {
paths = (
{
closed = 1;
nodes = (
"65 680 LINE",
"65 503 LINE",
"124 503 LINE",
"150 608 LINE",
"523 608 LINE",
"523 614 LINE",
"60 85 LINE",
"60 0 LINE",
"624 0 LINE",
"624 187 LINE",
"565 187 LINE",
"539 72 LINE",
"151 72 LINE",
"151 66 LINE",
"614 595 LINE",
"614 680 LINE"
);
}
);
};
hints = (
{
horizontal = 1;
origin = "{0, 7}";
target = "{0, 12}";
type = TTStem;
},
{
horizontal = 1;
origin = "{0, 15}";
target = "{0, 4}";
type = TTStem;
},
{
horizontal = 1;
origin = "{0, 4}";
target = "{0, 14}";
type = Align;
},
{
horizontal = 1;
origin = "{0, 12}";
target = "{0, 6}";
type = Align;
}
);
layerId = "0225C979-6A3F-4323-834E-E3153ADD1AE8";
name = Regular;
paths = (
{
closed = 1;
nodes = (
"65 680 LINE",
"65 503 LINE",
"124 503 LINE",
"150 608 LINE",
"523 608 LINE",
"523 614 LINE",
"60 85 LINE",
"60 0 LINE",
"624 0 LINE",
"624 187 LINE",
"565 187 LINE",
"539 72 LINE",
"151 72 LINE",
"151 66 LINE",
"614 595 LINE",
"614 680 LINE"
);
}
);
width = 674;
}
);
leftKerningGroup = Z;
rightKerningGroup = Z;
unicode = 005A;
},
{
color = 3;
glyphname = a;
lastChange = "2015-05-04 16:38:42 +0000";
layers = (
{
anchors = (
{
name = bottom;
position = "{305, 0}";
},
{
name = ogonek;
position = "{487, 10}";
},
{
name = top;
position = "{287, 502}";
}
);
background = {
paths = (
{
closed = 1;
nodes = (
"211 516 OFFCURVE",
"140 506 OFFCURVE",
"75 492 CURVE",
"75 420 LINE",
"143 435 OFFCURVE",
"211 444 OFFCURVE",
"285 444 CURVE SMOOTH",
"397 444 OFFCURVE",
"423 413 OFFCURVE",
"423 324 CURVE SMOOTH",
"423 285 LINE",
"397 299 OFFCURVE",
"348 314 OFFCURVE",
"279 314 CURVE SMOOTH",
"117 314 OFFCURVE",
"47 264 OFFCURVE",
"47 147 CURVE SMOOTH",
"47 35 OFFCURVE",
"110 -10 OFFCURVE",
"235 -10 CURVE SMOOTH",
"322 -10 OFFCURVE",
"387 21 OFFCURVE",
"446 90 CURVE",
"423 90 LINE",
"456 0 LINE",
"575 0 LINE",
"575 55 LINE",
"507 85 LINE",
"507 342 LINE SMOOTH",
"507 457 OFFCURVE",
"481 516 OFFCURVE",
"287 516 CURVE SMOOTH"
);
},
{
closed = 1;
nodes = (
"328 244 OFFCURVE",
"381 240 OFFCURVE",
"423 228 CURVE",
"423 128 LINE",
"375 88 OFFCURVE",
"315 62 OFFCURVE",
"249 62 CURVE SMOOTH",
"160 62 OFFCURVE",
"135 90 OFFCURVE",
"135 153 CURVE SMOOTH",
"135 212 OFFCURVE",
"167 244 OFFCURVE",
"288 244 CURVE SMOOTH"
);
}
);
};
hints = (
{
horizontal = 1;
origin = "{0, 19}";
target = "{1, 6}";
type = TTStem;
},
{
horizontal = 1;
origin = "{1, 12}";
target = "{0, 13}";
type = TTStem;
},
{
horizontal = 1;
origin = "{0, 31}";
target = "{0, 6}";
type = TTStem;
},
{
horizontal = 1;
origin = "{0, 24}";
target = "{0, 27}";
type = TTStem;
},
{
horizontal = 1;
origin = "{0, 27}";
target = "{0, 22}";
type = Align;
},
{
horizontal = 1;
origin = "{1, 6}";
target = "{1, 12}";
other1 = "{1, 9}";
type = Interpolate;
}
);
layerId = "0225C979-6A3F-4323-834E-E3153ADD1AE8";
name = Regular;
paths = (
{
closed = 1;
nodes = (
"211 516 OFFCURVE",
"140 506 OFFCURVE",
"75 492 CURVE",
"75 420 LINE",
"143 435 OFFCURVE",
"211 444 OFFCURVE",
"285 444 CURVE SMOOTH",
"397 444 OFFCURVE",
"423 413 OFFCURVE",
"423 324 CURVE SMOOTH",
"423 285 LINE",
"397 299 OFFCURVE",
"348 314 OFFCURVE",
"279 314 CURVE SMOOTH",
"117 314 OFFCURVE",
"47 264 OFFCURVE",
"47 147 CURVE SMOOTH",
"47 35 OFFCURVE",
"110 -10 OFFCURVE",
"235 -10 CURVE SMOOTH",
"322 -10 OFFCURVE",
"387 21 OFFCURVE",
"446 90 CURVE",
"423 90 LINE",
"456 0 LINE",
"575 0 LINE",
"575 55 LINE",
"507 85 LINE",
"507 342 LINE SMOOTH",
"507 457 OFFCURVE",
"481 516 OFFCURVE",
"287 516 CURVE SMOOTH"
);
},
{
closed = 1;
nodes = (
"328 244 OFFCURVE",
"381 240 OFFCURVE",
"423 228 CURVE",
"423 128 LINE",
"375 88 OFFCURVE",
"315 62 OFFCURVE",
"249 62 CURVE SMOOTH",
"160 62 OFFCURVE",
"135 90 OFFCURVE",
"135 153 CURVE SMOOTH",
"135 212 OFFCURVE",
"167 244 OFFCURVE",
"288 244 CURVE SMOOTH"
);
}
);
width = 610;
}
);
leftKerningGroup = a;
rightKerningGroup = n;
rightMetricsKey = n;
unicode = 0061;
},
{
glyphname = ae;
lastChange = "2015-06-02 18:45:44 +0000";
layers = (
{
anchors = (
{
name = top;
position = "{448, 502}";
}
);
background = {
anchors = (
{
name = ogonek;
position = "{487, 10}";
},
{
name = top;
position = "{287, 502}";
}
);
paths = (
{
closed = 1;
nodes = (
"727 -14 OFFCURVE",
"798 -4 OFFCURVE",
"846 9 CURVE",
"846 81 LINE",
"777 63 OFFCURVE",
"723 58 OFFCURVE",
"667 58 CURVE SMOOTH",
"548 58 OFFCURVE",
"501 91 OFFCURVE",
"492 224 CURVE",
"864 224 LINE",
"864 264 LINE SMOOTH",
"864 439 OFFCURVE",
"768 516 OFFCURVE",
"646 516 CURVE SMOOTH",
"570 516 OFFCURVE",
"506 493 OFFCURVE",
"468 440 CURVE",
"472 440 LINE",
"450 490 OFFCURVE",
"401 516 OFFCURVE",
"278 516 CURVE SMOOTH",
"205 516 OFFCURVE",
"136 506 OFFCURVE",
"74 492 CURVE",
"74 420 LINE",
"139 435 OFFCURVE",
"205 444 OFFCURVE",
"276 444 CURVE SMOOTH",
"383 444 OFFCURVE",
"408 413 OFFCURVE",
"408 324 CURVE SMOOTH",
"408 285 LINE",
"383 299 OFFCURVE",
"336 314 OFFCURVE",
"270 314 CURVE SMOOTH",
"114 314 OFFCURVE",
"47 264 OFFCURVE",
"47 147 CURVE SMOOTH",
"47 35 OFFCURVE",
"108 -10 OFFCURVE",
"228 -10 CURVE SMOOTH",
"323 -10 OFFCURVE",
"394 21 OFFCURVE",
"458 91 CURVE",
"445 91 LINE",
"483 13 OFFCURVE",
"560 -14 OFFCURVE",
"665 -14 CURVE SMOOTH"
);
},
{
closed = 1;
nodes = (
"156 62 OFFCURVE",
"135 90 OFFCURVE",
"135 153 CURVE SMOOTH",
"135 212 OFFCURVE",
"162 244 OFFCURVE",
"279 244 CURVE SMOOTH",
"317 244 OFFCURVE",
"368 240 OFFCURVE",
"408 228 CURVE",
"408 128 LINE",
"362 88 OFFCURVE",
"305 62 OFFCURVE",
"241 62 CURVE SMOOTH"
);
},
{
closed = 1;
nodes = (
"500 400 OFFCURVE",
"543 444 OFFCURVE",
"642 444 CURVE SMOOTH",
"728 444 OFFCURVE",
"769 392 OFFCURVE",
"776 295 CURVE",
"492 295 LINE"
);
}
);
};
hints = (
{
horizontal = 1;
origin = "{0, 48}";
target = "{0, 6}";
type = TTStem;
options = 128;
},
{
horizontal = 1;
origin = "{0, 9}";
target = "{2, 6}";
type = TTStem;
options = 128;
},
{
horizontal = 1;
origin = "{0, 21}";
target = "{0, 28}";
type = TTStem;
},
{
horizontal = 1;
origin = "{0, 41}";
target = "{1, 12}";
type = TTStem;
},
{
horizontal = 1;
origin = "{1, 5}";
target = "{0, 35}";
type = TTStem;
},
{
horizontal = 1;
origin = "{0, 14}";
target = "{2, 2}";
type = TTStem;
options = 128;
}
);
layerId = "0225C979-6A3F-4323-834E-E3153ADD1AE8";
name = Regular;
paths = (
{
closed = 1;
nodes = (
"727 -14 OFFCURVE",
"798 -4 OFFCURVE",
"846 9 CURVE",
"846 81 LINE",
"777 63 OFFCURVE",
"723 58 OFFCURVE",
"667 58 CURVE SMOOTH",
"548 58 OFFCURVE",
"501 91 OFFCURVE",
"492 224 CURVE",
"864 224 LINE",
"864 264 LINE SMOOTH",
"864 439 OFFCURVE",
"768 516 OFFCURVE",
"646 516 CURVE SMOOTH",
"570 516 OFFCURVE",
"506 493 OFFCURVE",
"468 440 CURVE",
"472 440 LINE",
"450 490 OFFCURVE",
"401 516 OFFCURVE",
"278 516 CURVE SMOOTH",
"205 516 OFFCURVE",
"136 506 OFFCURVE",
"74 492 CURVE",
"74 420 LINE",
"139 435 OFFCURVE",
"205 444 OFFCURVE",
"276 444 CURVE SMOOTH",
"383 444 OFFCURVE",
"408 413 OFFCURVE",
"408 324 CURVE SMOOTH",
"408 285 LINE",
"383 299 OFFCURVE",
"336 314 OFFCURVE",
"270 314 CURVE SMOOTH",
"114 314 OFFCURVE",
"47 264 OFFCURVE",
"47 147 CURVE SMOOTH",
"47 35 OFFCURVE",
"108 -10 OFFCURVE",
"228 -10 CURVE SMOOTH",
"323 -10 OFFCURVE",
"394 21 OFFCURVE",
"458 91 CURVE",
"445 91 LINE",
"483 13 OFFCURVE",
"560 -14 OFFCURVE",
"665 -14 CURVE SMOOTH"
);
},
{
closed = 1;
nodes = (
"156 62 OFFCURVE",
"135 90 OFFCURVE",
"135 153 CURVE SMOOTH",
"135 212 OFFCURVE",
"162 244 OFFCURVE",
"279 244 CURVE SMOOTH",
"317 244 OFFCURVE",
"368 240 OFFCURVE",
"408 228 CURVE",
"408 128 LINE",
"362 88 OFFCURVE",
"305 62 OFFCURVE",
"241 62 CURVE SMOOTH"
);
},
{
closed = 1;
nodes = (
"500 400 OFFCURVE",
"543 444 OFFCURVE",
"642 444 CURVE SMOOTH",
"728 444 OFFCURVE",
"769 392 OFFCURVE",
"776 295 CURVE",
"492 295 LINE"
);
}
);
width = 895;
}
);
leftKerningGroup = a;
leftMetricsKey = a;
rightKerningGroup = o;
rightMetricsKey = e;
unicode = 00E6;
},
{
color = 3;
glyphname = b;
lastChange = "2015-05-06 03:06:18 +0000";
layers = (
{
anchors = (
{
name = bottom;
position = "{313, 0}";
},
{
name = top;
position = "{313, 680}";
}
);
background = {
paths = (
{
closed = 1;
nodes = (
"36 710 LINE",
"36 653 LINE",
"104 625 LINE",
"104 0 LINE",
"155 0 LINE",
"188 90 LINE",
"165 90 LINE",
"224 21 OFFCURVE",
"289 -10 OFFCURVE",
"380 -10 CURVE SMOOTH",
"510 -10 OFFCURVE",
"579 47 OFFCURVE",
"579 249 CURVE SMOOTH",
"579 446 OFFCURVE",
"497 516 OFFCURVE",
"371 516 CURVE SMOOTH",
"308 516 OFFCURVE",
"249 499 OFFCURVE",
"178 455 CURVE",
"188 451 LINE",
"188 710 LINE"
);
},
{
closed = 1;
nodes = (
"454 443 OFFCURVE",
"491 374 OFFCURVE",
"491 241 CURVE SMOOTH",
"491 101 OFFCURVE",
"450 63 OFFCURVE",
"363 63 CURVE SMOOTH",
"297 63 OFFCURVE",
"241 86 OFFCURVE",
"188 128 CURVE",
"188 402 LINE",
"252 425 OFFCURVE",
"299 443 OFFCURVE",
"351 443 CURVE SMOOTH"
);
}
);
};
hints = (
{
horizontal = 1;
origin = "{0, 20}";
target = "{0, 2}";
type = TTStem;
},
{
horizontal = 1;
origin = "{0, 15}";
target = "{1, 12}";
type = TTStem;
},
{
horizontal = 1;
origin = "{0, 9}";
target = "{1, 5}";
type = TTStem;
},
{
horizontal = 1;
origin = "{0, 3}";
type = Anchor;
}
);
layerId = "0225C979-6A3F-4323-834E-E3153ADD1AE8";
leftMetricsKey = "=h-10";
name = Regular;
paths = (
{
closed = 1;
nodes = (
"36 710 LINE",
"36 653 LINE",
"104 625 LINE",
"104 0 LINE",
"155 0 LINE",
"188 90 LINE",
"165 90 LINE",
"224 21 OFFCURVE",
"289 -10 OFFCURVE",
"380 -10 CURVE SMOOTH",
"510 -10 OFFCURVE",
"579 47 OFFCURVE",
"579 249 CURVE SMOOTH",
"579 446 OFFCURVE",
"497 516 OFFCURVE",
"371 516 CURVE SMOOTH",
"308 516 OFFCURVE",
"249 499 OFFCURVE",
"178 455 CURVE",
"188 451 LINE",
"188 710 LINE"
);
},
{
closed = 1;
nodes = (
"454 443 OFFCURVE",
"491 374 OFFCURVE",
"491 241 CURVE SMOOTH",
"491 101 OFFCURVE",
"450 63 OFFCURVE",
"363 63 CURVE SMOOTH",
"297 63 OFFCURVE",
"241 86 OFFCURVE",
"188 128 CURVE",
"188 402 LINE",
"252 425 OFFCURVE",
"299 443 OFFCURVE",
"351 443 CURVE SMOOTH"
);
}
);
width = 625;
}
);
leftKerningGroup = h;
leftMetricsKey = "=H-10";
rightKerningGroup = o;
rightMetricsKey = "=o+5";
unicode = 0062;
},
{
color = 3;
glyphname = c;
lastChange = "2015-05-04 16:38:42 +0000";
layers = (
{
anchors = (
{
name = bottom;
position = "{286, 0}";
},
{
name = top;
position = "{288, 502}";
}
);
background = {
paths = (
{
closed = 1;
nodes = (
"134 516 OFFCURVE",
"41 442 OFFCURVE",
"41 250 CURVE SMOOTH",
"41 46 OFFCURVE",
"143 -14 OFFCURVE",
"296 -14 CURVE SMOOTH",
"350 -14 OFFCURVE",
"409 -5 OFFCURVE",
"451 11 CURVE",
"451 83 LINE",
"399 64 OFFCURVE",
"355 58 OFFCURVE",
"300 58 CURVE SMOOTH",
"181 58 OFFCURVE",
"129 92 OFFCURVE",
"129 253 CURVE SMOOTH",
"129 400 OFFCURVE",
"163 447 OFFCURVE",
"319 447 CURVE",
"363 347 LINE",
"432 347 OFFCURVE",
"459 378 OFFCURVE",
"459 428 CURVE SMOOTH",
"459 487 OFFCURVE",
"422 516 OFFCURVE",
"308 516 CURVE SMOOTH"
);
}
);
};
hints = (
{
horizontal = 1;
origin = "{0, 5}";
target = "{0, 12}";
type = TTStem;
},
{
horizontal = 1;
origin = "{0, 25}";
target = "{0, 18}";
type = TTStem;
}
);
layerId = "0225C979-6A3F-4323-834E-E3153ADD1AE8";
name = Regular;
paths = (
{
closed = 1;
nodes = (
"134 516 OFFCURVE",
"41 442 OFFCURVE",
"41 250 CURVE SMOOTH",
"41 46 OFFCURVE",
"143 -14 OFFCURVE",
"296 -14 CURVE SMOOTH",
"350 -14 OFFCURVE",
"409 -5 OFFCURVE",
"451 11 CURVE",
"451 83 LINE",
"399 64 OFFCURVE",
"355 58 OFFCURVE",
"300 58 CURVE SMOOTH",
"181 58 OFFCURVE",
"129 92 OFFCURVE",
"129 253 CURVE SMOOTH",
"129 400 OFFCURVE",
"163 447 OFFCURVE",
"319 447 CURVE",
"363 347 LINE",
"432 347 OFFCURVE",
"459 378 OFFCURVE",
"459 428 CURVE SMOOTH",
"459 487 OFFCURVE",
"422 516 OFFCURVE",
"308 516 CURVE SMOOTH"
);
}
);
width = 499;
}
);
leftKerningGroup = o;
leftMetricsKey = o;
unicode = 0063;
},
{
color = 3;
glyphname = d;
lastChange = "2015-06-11 19:09:01 +0000";
layers = (
{
anchors = (
{
name = bottom;
position = "{312, 0}";
},
{
name = center;
position = "{312, 251}";
},
{
name = top;
position = "{479, 680}";
},
{
name = topright;
position = "{609, 502}";
}
);
background = {
paths = (
{
closed = 1;
nodes = (
"369 710 LINE",
"369 653 LINE",
"437 625 LINE",
"437 451 LINE",
"447 455 LINE",
"376 499 OFFCURVE",
"317 516 OFFCURVE",
"254 516 CURVE SMOOTH",
"128 516 OFFCURVE",
"46 446 OFFCURVE",
"46 249 CURVE SMOOTH",
"46 47 OFFCURVE",
"115 -10 OFFCURVE",
"245 -10 CURVE SMOOTH",
"336 -10 OFFCURVE",
"401 21 OFFCURVE",
"460 90 CURVE",
"437 90 LINE",
"470 0 LINE",
"589 0 LINE",
"589 55 LINE",
"521 85 LINE",
"521 710 LINE"
);
},
{
closed = 1;
nodes = (
"326 443 OFFCURVE",
"373 425 OFFCURVE",
"437 402 CURVE",
"437 128 LINE",
"384 86 OFFCURVE",
"328 63 OFFCURVE",
"262 63 CURVE SMOOTH",
"175 63 OFFCURVE",
"134 101 OFFCURVE",
"134 241 CURVE SMOOTH",
"134 374 OFFCURVE",
"171 443 OFFCURVE",
"274 443 CURVE SMOOTH"
);
}
);
};
hints = (
{
horizontal = 1;
origin = "{0, 13}";
target = "{1, 6}";
type = TTStem;
},
{
horizontal = 1;
origin = "{0, 7}";
target = "{1, 12}";
type = TTStem;
},
{
horizontal = 1;
origin = "{0, 0}";
target = "{0, 1}";
type = TTStem;
},
{
horizontal = 1;
origin = "{0, 18}";
target = "{0, 21}";
type = TTStem;
},
{
horizontal = 1;
origin = "{0, 21}";
target = "{0, 16}";
type = Align;
}
);
layerId = "0225C979-6A3F-4323-834E-E3153ADD1AE8";
leftMetricsKey = "=o+5";
name = Regular;
paths = (
{
closed = 1;
nodes = (
"369 710 LINE",
"369 653 LINE",
"437 625 LINE",
"437 451 LINE",
"447 455 LINE",
"376 499 OFFCURVE",
"317 516 OFFCURVE",
"254 516 CURVE SMOOTH",
"128 516 OFFCURVE",
"46 446 OFFCURVE",
"46 249 CURVE SMOOTH",
"46 47 OFFCURVE",
"115 -10 OFFCURVE",
"245 -10 CURVE SMOOTH",
"336 -10 OFFCURVE",
"401 21 OFFCURVE",
"460 90 CURVE",
"437 90 LINE",
"470 0 LINE",
"589 0 LINE",
"589 55 LINE",
"521 85 LINE",
"521 710 LINE"
);
},
{
closed = 1;
nodes = (
"326 443 OFFCURVE",
"373 425 OFFCURVE",
"437 402 CURVE",
"437 128 LINE",
"384 86 OFFCURVE",
"328 63 OFFCURVE",
"262 63 CURVE SMOOTH",
"175 63 OFFCURVE",
"134 101 OFFCURVE",
"134 241 CURVE SMOOTH",
"134 374 OFFCURVE",
"171 443 OFFCURVE",
"274 443 CURVE SMOOTH"
);
}
);
width = 624;
}
);
leftKerningGroup = o;
leftMetricsKey = "=o+4";
rightKerningGroup = l;
rightMetricsKey = n;
unicode = 0064;
},
{
glyphname = eth;
lastChange = "2015-05-06 03:06:50 +0000";
layers = (
{
background = {
paths = (
{
closed = 1;
nodes = (
"169 656 LINE",
"356 645 OFFCURVE",
"460 527 OFFCURVE",
"460 281 CURVE SMOOTH",
"460 107 OFFCURVE",
"408 58 OFFCURVE",
"293 58 CURVE SMOOTH",
"186 58 OFFCURVE",
"128 100 OFFCURVE",
"128 216 CURVE SMOOTH",
"128 334 OFFCURVE",
"187 380 OFFCURVE",
"274 380 CURVE SMOOTH",
"325 380 OFFCURVE",
"389 364 OFFCURVE",
"470 325 CURVE",
"470 387 LINE",
"400 428 OFFCURVE",
"321 452 OFFCURVE",
"251 452 CURVE SMOOTH",
"130 452 OFFCURVE",
"40 380 OFFCURVE",
"40 224 CURVE SMOOTH",
"40 48 OFFCURVE",
"155 -14 OFFCURVE",
"288 -14 CURVE SMOOTH",
"441 -14 OFFCURVE",
"548 67 OFFCURVE",
"548 285 CURVE SMOOTH",
"548 513 OFFCURVE",
"432 708 OFFCURVE",
"169 718 CURVE"
);
},
{
closed = 1;
nodes = (
"190 536 LINE",
"213 488 LINE",
"527 631 LINE",
"498 690 LINE"
);
}
);
};
hints = (
{
horizontal = 1;
origin = "{0, 25}";
target = "{0, 6}";
type = TTStem;
},
{
horizontal = 1;
origin = "{0, 12}";
target = "{0, 19}";
type = TTStem;
},
{
horizontal = 1;
origin = "{0, 31}";
target = "{0, 0}";
type = TTStem;
}
);
layerId = "0225C979-6A3F-4323-834E-E3153ADD1AE8";
name = Regular;
paths = (
{
closed = 1;
nodes = (
"169 656 LINE",
"356 645 OFFCURVE",
"460 527 OFFCURVE",
"460 281 CURVE SMOOTH",
"460 107 OFFCURVE",
"408 58 OFFCURVE",
"293 58 CURVE SMOOTH",
"186 58 OFFCURVE",
"128 100 OFFCURVE",
"128 216 CURVE SMOOTH",
"128 334 OFFCURVE",
"187 380 OFFCURVE",
"274 380 CURVE SMOOTH",
"325 380 OFFCURVE",
"389 364 OFFCURVE",
"470 325 CURVE",
"470 387 LINE",
"400 428 OFFCURVE",
"321 452 OFFCURVE",
"251 452 CURVE SMOOTH",
"130 452 OFFCURVE",
"40 380 OFFCURVE",
"40 224 CURVE SMOOTH",
"40 48 OFFCURVE",
"155 -14 OFFCURVE",
"288 -14 CURVE SMOOTH",
"441 -14 OFFCURVE",
"548 67 OFFCURVE",
"548 285 CURVE SMOOTH",
"548 513 OFFCURVE",
"432 708 OFFCURVE",
"169 718 CURVE"
);
},
{
closed = 1;
nodes = (
"190 536 LINE",
"213 488 LINE",
"527 631 LINE",
"498 690 LINE"
);
}
);
width = 613;
}
);
unicode = 00F0;
},
{
glyphname = dcroat;
lastChange = "2015-06-02 18:48:36 +0000";
layers = (
{
anchors = (
{
name = center;
position = "{312, 251}";
},
{
name = top;
position = "{479, 680}";
},
{
name = topright;
position = "{604, 502}";
}
);
background = {
paths = (
{
closed = 1;
nodes = (
"254 540 LINE",
"571 540 LINE",
"571 600 LINE",
"254 600 LINE"
);
},
{
closed = 1;
nodes = (
"369 710 LINE",
"369 653 LINE",
"437 639 LINE",
"437 441 LINE",
"447 445 LINE",
"376 489 OFFCURVE",
"317 506 OFFCURVE",
"254 506 CURVE SMOOTH",
"128 506 OFFCURVE",
"46 436 OFFCURVE",
"46 249 CURVE SMOOTH",
"46 47 OFFCURVE",
"115 -10 OFFCURVE",
"245 -10 CURVE SMOOTH",
"336 -10 OFFCURVE",
"401 21 OFFCURVE",
"460 90 CURVE",
"437 90 LINE",
"470 0 LINE",
"589 0 LINE",
"589 55 LINE",
"521 85 LINE",
"521 710 LINE"
);
},
{
closed = 1;
nodes = (
"326 433 OFFCURVE",
"373 415 OFFCURVE",
"437 392 CURVE",
"437 128 LINE",
"384 86 OFFCURVE",
"328 63 OFFCURVE",
"262 63 CURVE SMOOTH",
"175 63 OFFCURVE",
"134 101 OFFCURVE",
"134 241 CURVE SMOOTH",
"134 364 OFFCURVE",
"171 433 OFFCURVE",
"274 433 CURVE SMOOTH"
);
}
);
};
hints = (
{
horizontal = 1;
origin = "{1, 13}";
target = "{2, 6}";
type = TTStem;
},
{
horizontal = 1;
origin = "{0, 0}";
target = "{0, 3}";
type = TTStem;
},
{
horizontal = 1;
origin = "{1, 0}";
target = "{1, 2}";
type = TTStem;
},
{
horizontal = 1;
origin = "{1, 18}";
target = "{1, 21}";
type = TTStem;
},
{
horizontal = 1;
origin = "{1, 21}";
target = "{1, 16}";
type = Align;
},
{
horizontal = 1;
origin = "{1, 7}";
target = "{2, 12}";
type = TTStem;
}
);
layerId = "0225C979-6A3F-4323-834E-E3153ADD1AE8";
name = Regular;
paths = (
{
closed = 1;
nodes = (
"254 540 LINE",
"571 540 LINE",
"571 600 LINE",
"254 600 LINE"
);
},
{
closed = 1;
nodes = (
"369 710 LINE",
"369 653 LINE",
"437 639 LINE",
"437 437 LINE",
"447 441 LINE",
"376 485 OFFCURVE",
"317 502 OFFCURVE",
"254 502 CURVE SMOOTH",
"128 502 OFFCURVE",
"46 432 OFFCURVE",
"46 247 CURVE SMOOTH",
"46 47 OFFCURVE",
"115 -10 OFFCURVE",
"245 -10 CURVE SMOOTH",
"336 -10 OFFCURVE",
"401 21 OFFCURVE",
"460 90 CURVE",
"437 90 LINE",
"470 0 LINE",
"589 0 LINE",
"589 55 LINE",
"521 85 LINE",
"521 710 LINE"
);
},
{
closed = 1;
nodes = (
"326 429 OFFCURVE",
"373 411 OFFCURVE",
"437 388 CURVE",
"437 128 LINE",
"384 86 OFFCURVE",
"328 63 OFFCURVE",
"262 63 CURVE SMOOTH",
"175 63 OFFCURVE",
"134 101 OFFCURVE",
"134 239 CURVE SMOOTH",
"134 360 OFFCURVE",
"171 429 OFFCURVE",
"274 429 CURVE SMOOTH"
);
}
);
width = 624;
}
);
leftKerningGroup = o;
leftMetricsKey = d;
rightKerningGroup = l;
unicode = 0111;
},
{
color = 3;
glyphname = e;
lastChange = "2015-05-04 16:38:42 +0000";
layers = (
{
anchors = (
{
name = bottom;
position = "{312, 0}";
},
{
name = ogonek;
position = "{437, 19}";
},
{
name = top;
position = "{292, 502}";
}
);
background = {
guideLines = (
{
angle = 90;
position = "{300, 450}";
}
);
paths = (
{
closed = 1;
nodes = (
"147 516 OFFCURVE",
"41 439 OFFCURVE",
"41 251 CURVE SMOOTH",
"41 48 OFFCURVE",
"145 -14 OFFCURVE",
"312 -14 CURVE SMOOTH",
"377 -14 OFFCURVE",
"452 -4 OFFCURVE",
"502 9 CURVE",
"502 81 LINE",
"429 63 OFFCURVE",
"373 58 OFFCURVE",
"314 58 CURVE SMOOTH",
"188 58 OFFCURVE",
"139 91 OFFCURVE",
"129 224 CURVE",
"521 224 LINE",
"521 264 LINE SMOOTH",
"521 439 OFFCURVE",
"420 516 OFFCURVE",
"292 516 CURVE SMOOTH"
);
},
{
closed = 1;
nodes = (
"380 444 OFFCURVE",
"424 392 OFFCURVE",
"432 295 CURVE",
"130 295 LINE",
"139 400 OFFCURVE",
"183 444 OFFCURVE",
"287 444 CURVE SMOOTH"
);
}
);
};
hints = (
{
horizontal = 1;
origin = "{0, 5}";
target = "{0, 12}";
type = TTStem;
options = 128;
},
{
horizontal = 1;
origin = "{0, 15}";
target = "{1, 3}";
type = TTStem;
options = 128;
},
{
horizontal = 1;
origin = "{0, 20}";
target = "{1, 6}";
type = TTStem;
options = 128;
}
);
layerId = "0225C979-6A3F-4323-834E-E3153ADD1AE8";
name = Regular;
paths = (
{
closed = 1;
nodes = (
"147 516 OFFCURVE",
"41 439 OFFCURVE",
"41 251 CURVE SMOOTH",
"41 48 OFFCURVE",
"145 -14 OFFCURVE",
"312 -14 CURVE SMOOTH",
"377 -14 OFFCURVE",
"452 -4 OFFCURVE",
"502 9 CURVE",
"502 81 LINE",
"429 63 OFFCURVE",
"373 58 OFFCURVE",
"314 58 CURVE SMOOTH",
"188 58 OFFCURVE",
"139 91 OFFCURVE",
"129 224 CURVE",
"521 224 LINE",
"521 264 LINE SMOOTH",
"521 439 OFFCURVE",
"420 516 OFFCURVE",
"292 516 CURVE SMOOTH"
);
},
{
closed = 1;
nodes = (
"380 444 OFFCURVE",
"424 392 OFFCURVE",
"432 295 CURVE",
"130 295 LINE",
"139 400 OFFCURVE",
"183 444 OFFCURVE",
"287 444 CURVE SMOOTH"
);
}
);
width = 552;
}
);
leftKerningGroup = o;
leftMetricsKey = o;
rightKerningGroup = e;
rightMetricsKey = "=o-10";
unicode = 0065;
},
{
color = 0;
glyphname = f;
lastChange = "2015-06-11 19:15:04 +0000";
layers = (
{
anchors = (
{
name = bottom;
position = "{174, 0}";
},
{
name = top;
position = "{174, 680}";
}
);
associatedMasterId = "0225C979-6A3F-4323-834E-E3153ADD1AE8";
background = {
paths = (
{
closed = 1;
nodes = (
"177 722 OFFCURVE",
"114 654 OFFCURVE",
"114 522 CURVE SMOOTH",
"114 502 LINE",
"46 488 LINE",
"46 432 LINE",
"114 432 LINE",
"114 85 LINE",
"46 55 LINE",
"46 0 LINE",
"291 0 LINE",
"291 55 LINE",
"198 85 LINE",
"198 432 LINE",
"301 432 LINE",
"301 502 LINE",
"198 502 LINE",
"198 527 LINE SMOOTH",
"198 624 OFFCURVE",
"226 660 OFFCURVE",
"301 660 CURVE",
"332 589 LINE",
"392 589 OFFCURVE",
"413 608 OFFCURVE",
"413 653 CURVE SMOOTH",
"413 702 OFFCURVE",
"383 722 OFFCURVE",
"313 722 CURVE SMOOTH"
);
},
{
closed = 0;
nodes = (
"198 527 LINE"
);
}
);
};
guideLines = (
{
angle = 90;
position = "{388, 502}";
},
{
angle = 90;
position = "{291, 55}";
},
{
angle = 113.749;
position = "{332, 589}";
}
);
hints = (
{
horizontal = 1;
origin = "{0, 27}";
target = "{0, 20}";
type = TTStem;
},
{
horizontal = 1;
origin = "{0, 3}";
target = "{0, 6}";
type = TTStem;
},
{
horizontal = 1;
origin = "{0, 9}";
target = "{0, 7}";
type = TTStem;
},
{
horizontal = 1;
origin = "{0, 7}";
target = "{0, 12}";
type = TTStem;
},
{
horizontal = 1;
origin = "{0, 3}";
target = "{0, 16}";
type = Align;
},
{
horizontal = 1;
origin = "{0, 6}";
target = "{0, 13}";
type = Align;
}
);
layerId = "586493B4-0698-43DB-AA1C-9217ECD675AC";
name = "Ball Terminal";
paths = (
{
closed = 1;
nodes = (
"177 722 OFFCURVE",
"114 654 OFFCURVE",
"114 522 CURVE SMOOTH",
"114 502 LINE",
"46 488 LINE",
"46 432 LINE",
"114 432 LINE",
"114 85 LINE",
"46 55 LINE",
"46 0 LINE",
"291 0 LINE",
"291 55 LINE",
"198 85 LINE",
"198 432 LINE",
"301 432 LINE",
"301 502 LINE",
"198 502 LINE",
"198 527 LINE SMOOTH",
"198 624 OFFCURVE",
"226 660 OFFCURVE",
"301 660 CURVE",
"332 590 LINE",
"392 590 OFFCURVE",
"413 608 OFFCURVE",
"413 653 CURVE SMOOTH",
"413 702 OFFCURVE",
"383 722 OFFCURVE",
"313 722 CURVE SMOOTH"
);
},
{
closed = 0;
nodes = (
"198 527 LINE"
);
}
);
width = 348;
},
{
anchors = (
{
name = bottom;
position = "{174, 0}";
},
{
name = top;
position = "{207, 680}";
}
);
background = {
paths = (
{
closed = 1;
nodes = (
"172 722 OFFCURVE",
"114 657 OFFCURVE",
"114 522 CURVE SMOOTH",
"114 502 LINE",
"46 488 LINE",
"46 432 LINE",
"114 432 LINE",
"114 85 LINE",
"46 55 LINE",
"46 0 LINE",
"291 0 LINE",
"291 55 LINE",
"198 85 LINE",
"198 432 LINE",
"301 432 LINE",
"301 502 LINE",
"198 502 LINE",
"198 527 LINE SMOOTH",
"198 623 OFFCURVE",
"228 650 OFFCURVE",
"311 650 CURVE SMOOTH",
"328 650 OFFCURVE",
"354 648 OFFCURVE",
"368 645 CURVE",
"368 715 LINE",
"357 719 OFFCURVE",
"328 722 OFFCURVE",
"311 722 CURVE SMOOTH"
);
}
);
};
hints = (
{
horizontal = 1;
origin = "{0, 9}";
target = "{0, 7}";
type = TTStem;
},
{
horizontal = 1;
origin = "{0, 27}";
target = "{0, 20}";
type = TTStem;
},
{
horizontal = 1;
origin = "{0, 24}";
type = Anchor;
},
{
horizontal = 1;
origin = "{0, 3}";
target = "{0, 6}";
type = TTStem;
},
{
horizontal = 1;
origin = "{0, 6}";
target = "{0, 13}";
type = Align;
},
{
horizontal = 1;
origin = "{0, 3}";
target = "{0, 16}";
type = Align;
},
{
horizontal = 1;
origin = "{0, 7}";
target = "{0, 12}";
type = Align;
}
);
layerId = "0225C979-6A3F-4323-834E-E3153ADD1AE8";
name = Regular;
paths = (
{
closed = 1;
nodes = (
"172 720 OFFCURVE",
"114 654 OFFCURVE",
"114 522 CURVE SMOOTH",
"114 502 LINE",
"46 488 LINE",
"46 432 LINE",
"114 432 LINE",
"114 85 LINE",
"46 55 LINE",
"46 0 LINE",
"291 0 LINE",
"291 55 LINE",
"198 85 LINE",
"198 432 LINE",
"301 432 LINE",
"301 502 LINE",
"198 502 LINE",
"198 527 LINE SMOOTH",
"198 622 OFFCURVE",
"228 650 OFFCURVE",
"308 650 CURVE SMOOTH",
"329 650 OFFCURVE",
"354 648 OFFCURVE",
"368 645 CURVE",
"368 713 LINE",
"357 717 OFFCURVE",
"331 720 OFFCURVE",
"303 720 CURVE SMOOTH"
);
}
);
width = 348;
}
);
leftKerningGroup = f;
leftMetricsKey = n;
rightKerningGroup = f;
unicode = 0066;
},
{
color = 3;
glyphname = g;
lastChange = "2015-06-02 19:01:17 +0000";
layers = (
{
anchors = (
{
name = bottom;
position = "{279, -224}";
},
{
name = top;
position = "{294, 502}";
}
);
background = {
guideLines = (
{
angle = 90;
position = "{601, 507}";
}
);
paths = (
{
closed = 1;
nodes = (
"131 516 OFFCURVE",
"47 457 OFFCURVE",
"47 334 CURVE SMOOTH",
"47 210 OFFCURVE",
"133 156 OFFCURVE",
"268 156 CURVE SMOOTH",
"402 156 OFFCURVE",
"486 210 OFFCURVE",
"486 332 CURVE SMOOTH",
"486 455 OFFCURVE",
"401 516 OFFCURVE",
"265 516 CURVE SMOOTH"
);
},
{
closed = 1;
nodes = (
"379 451 OFFCURVE",
"402 414 OFFCURVE",
"402 336 CURVE SMOOTH",
"402 258 OFFCURVE",
"379 221 OFFCURVE",
"266 221 CURVE SMOOTH",
"153 221 OFFCURVE",
"130 257 OFFCURVE",
"130 335 CURVE SMOOTH",
"130 413 OFFCURVE",
"153 451 OFFCURVE",
"266 451 CURVE SMOOTH"
);
},
{
closed = 1;
nodes = (
"541 445 LINE",
"541 502 LINE",
"334 502 LINE",
"462 420 LINE"
);
},
{
closed = 1;
nodes = (
"61 199 OFFCURVE",
"37 165 OFFCURVE",
"37 117 CURVE SMOOTH",
"37 73 OFFCURVE",
"57 33 OFFCURVE",
"114 18 CURVE",
"114 28 LINE",
"51 16 OFFCURVE",
"22 -24 OFFCURVE",
"22 -79 CURVE SMOOTH",
"22 -196 OFFCURVE",
"141 -234 OFFCURVE",
"280 -234 CURVE SMOOTH",
"459 -234 OFFCURVE",
"541 -179 OFFCURVE",
"541 -56 CURVE SMOOTH",
"541 35 OFFCURVE",
"498 78 OFFCURVE",
"388 78 CURVE SMOOTH",
"204 78 LINE SMOOTH",
"134 78 OFFCURVE",
"110 95 OFFCURVE",
"110 131 CURVE SMOOTH",
"110 157 OFFCURVE",
"123 181 OFFCURVE",
"157 197 CURVE",
"113 217 LINE"
);
},
{
closed = 1;
nodes = (
"440 0 OFFCURVE",
"458 -18 OFFCURVE",
"458 -71 CURVE SMOOTH",
"458 -140 OFFCURVE",
"426 -167 OFFCURVE",
"285 -167 CURVE SMOOTH",
"149 -167 OFFCURVE",
"100 -136 OFFCURVE",
"100 -69 CURVE SMOOTH",
"100 -24 OFFCURVE",
"124 0 OFFCURVE",
"169 0 CURVE SMOOTH",
"381 0 LINE SMOOTH"
);
}
);
};
guideLines = (
{
angle = 90;
position = "{279, -62}";
}
);
hints = (
{
horizontal = 1;
origin = "{0, 11}";
target = "{1, 11}";
type = TTStem;
},
{
horizontal = 1;
origin = "{0, 5}";
target = "{1, 5}";
type = TTStem;
options = 128;
},
{
horizontal = 1;
origin = "{3, 19}";
target = "{0, 5}";
type = TTStem;
options = 128;
},
{
horizontal = 1;
origin = "{4, 11}";
target = "{3, 19}";
type = TTStem;
options = 128;
},
{
horizontal = 1;
origin = "{3, 12}";
target = "{4, 5}";
type = TTStem;
},
{
horizontal = 1;
origin = "{2, 1}";
target = "{2, 3}";
type = TTStem;
}
);
layerId = "0225C979-6A3F-4323-834E-E3153ADD1AE8";
name = Regular;
paths = (
{
closed = 1;
nodes = (
"131 516 OFFCURVE",
"47 457 OFFCURVE",
"47 334 CURVE SMOOTH",
"47 210 OFFCURVE",
"133 156 OFFCURVE",
"268 156 CURVE SMOOTH",
"402 156 OFFCURVE",
"486 210 OFFCURVE",
"486 332 CURVE SMOOTH",
"486 455 OFFCURVE",
"401 516 OFFCURVE",
"265 516 CURVE SMOOTH"
);
},
{
closed = 1;
nodes = (
"379 451 OFFCURVE",
"402 414 OFFCURVE",
"402 336 CURVE SMOOTH",
"402 258 OFFCURVE",
"379 221 OFFCURVE",
"266 221 CURVE SMOOTH",
"153 221 OFFCURVE",
"130 257 OFFCURVE",
"130 335 CURVE SMOOTH",
"130 413 OFFCURVE",
"153 451 OFFCURVE",
"266 451 CURVE SMOOTH"
);
},
{
closed = 1;
nodes = (
"541 445 LINE",
"541 502 LINE",
"334 502 LINE",
"462 420 LINE"
);
},
{
closed = 1;
nodes = (
"61 199 OFFCURVE",
"37 165 OFFCURVE",
"37 117 CURVE SMOOTH",
"37 73 OFFCURVE",
"57 33 OFFCURVE",
"114 18 CURVE",
"114 28 LINE",
"51 16 OFFCURVE",
"22 -24 OFFCURVE",
"22 -79 CURVE SMOOTH",
"22 -196 OFFCURVE",
"141 -234 OFFCURVE",
"280 -234 CURVE SMOOTH",
"459 -234 OFFCURVE",
"541 -179 OFFCURVE",
"541 -56 CURVE SMOOTH",
"541 35 OFFCURVE",
"498 78 OFFCURVE",
"388 78 CURVE SMOOTH",
"204 78 LINE SMOOTH",
"134 78 OFFCURVE",
"110 95 OFFCURVE",
"110 131 CURVE SMOOTH",
"110 157 OFFCURVE",
"123 181 OFFCURVE",
"157 197 CURVE",
"113 217 LINE"
);
},
{
closed = 1;
nodes = (
"440 0 OFFCURVE",
"458 -18 OFFCURVE",
"458 -71 CURVE SMOOTH",
"458 -140 OFFCURVE",
"426 -167 OFFCURVE",
"285 -167 CURVE SMOOTH",
"149 -167 OFFCURVE",
"100 -136 OFFCURVE",
"100 -69 CURVE SMOOTH",
"100 -24 OFFCURVE",
"124 0 OFFCURVE",
"169 0 CURVE SMOOTH",
"381 0 LINE SMOOTH"
);
}
);
width = 566;
}
);
leftKerningGroup = g;
rightKerningGroup = g;
unicode = 0067;
},
{
glyphname = gcommaaccent;
lastChange = "2015-06-02 19:02:02 +0000";
layers = (
{
background = {
anchors = (
{
name = top;
position = "{261, 502}";
}
);
components = (
{
name = g;
}
);
paths = (
{
closed = 1;
nodes = (
"336 777 LINE",
"272 777 LINE",
"242 577 LINE",
"336 577 LINE"
);
}
);
};
components = (
{
name = g;
}
);
hints = (
{
horizontal = 1;
origin = "{0, 2}";
type = Anchor;
}
);
layerId = "0225C979-6A3F-4323-834E-E3153ADD1AE8";
name = Regular;
paths = (
{
closed = 1;
nodes = (
"336 777 LINE",
"272 777 LINE",
"242 577 LINE",
"336 577 LINE"
);
}
);
width = 556;
}
);
leftKerningGroup = g;
rightKerningGroup = g;
unicode = 0123;
},
{
color = 3;
glyphname = h;
lastChange = "2015-05-04 16:38:42 +0000";
layers = (
{
anchors = (
{
name = bottom;
position = "{332, 0}";
},
{
name = center;
position = "{332, 251}";
},
{
name = top;
position = "{332, 680}";
}
);
background = {
hints = (
{
place = "{0.000000, 0.000000}";
}
);
paths = (
{
closed = 1;
nodes = (
"46 710 LINE",
"46 653 LINE",
"114 625 LINE",
"114 85 LINE",
"46 55 LINE",
"46 0 LINE",
"266 0 LINE",
"266 55 LINE",
"198 85 LINE",
"198 402 LINE",
"268 427 OFFCURVE",
"313 443 OFFCURVE",
"364 443 CURVE SMOOTH",
"435 443 OFFCURVE",
"476 412 OFFCURVE",
"476 331 CURVE SMOOTH",
"476 0 LINE",
"628 0 LINE",
"628 55 LINE",
"560 85 LINE",
"560 320 LINE SMOOTH",
"560 462 OFFCURVE",
"517 516 OFFCURVE",
"391 516 CURVE SMOOTH",
"319 516 OFFCURVE",
"252 498 OFFCURVE",
"171 452 CURVE",
"198 452 LINE",
"198 710 LINE"
);
}
);
};
hints = (
{
horizontal = 1;
origin = "{0, 5}";
target = "{0, 3}";
type = TTStem;
},
{
horizontal = 1;
origin = "{0, 23}";
target = "{0, 12}";
type = TTStem;
},
{
horizontal = 1;
origin = "{0, 0}";
target = "{0, 2}";
type = TTStem;
},
{
horizontal = 1;
origin = "{0, 3}";
target = "{0, 8}";
type = Align;
},
{
horizontal = 1;
origin = "{0, 16}";
target = "{0, 19}";
type = TTStem;
}
);
layerId = "0225C979-6A3F-4323-834E-E3153ADD1AE8";
name = Regular;
paths = (
{
closed = 1;
nodes = (
"46 710 LINE",
"46 653 LINE",
"114 625 LINE",
"114 85 LINE",
"46 55 LINE",
"46 0 LINE",
"266 0 LINE",
"266 55 LINE",
"198 85 LINE",
"198 402 LINE",
"268 427 OFFCURVE",
"313 443 OFFCURVE",
"364 443 CURVE SMOOTH",
"435 443 OFFCURVE",
"476 412 OFFCURVE",
"476 331 CURVE SMOOTH",
"476 0 LINE",
"628 0 LINE",
"628 55 LINE",
"560 85 LINE",
"560 320 LINE SMOOTH",
"560 462 OFFCURVE",
"517 516 OFFCURVE",
"391 516 CURVE SMOOTH",
"319 516 OFFCURVE",
"252 498 OFFCURVE",
"171 452 CURVE",
"198 452 LINE",
"198 710 LINE"
);
}
);
width = 663;
}
);
leftKerningGroup = h;
leftMetricsKey = n;
rightKerningGroup = n;
rightMetricsKey = n;
unicode = 0068;
},
{
color = 3;
glyphname = i;
lastChange = "2015-06-02 19:02:33 +0000";
layers = (
{
background = {
paths = (
{
closed = 1;
nodes = (
"46 502 LINE",
"46 445 LINE",
"114 417 LINE",
"114 85 LINE",
"46 55 LINE",
"46 0 LINE",
"266 0 LINE",
"266 55 LINE",
"198 85 LINE",
"198 502 LINE"
);
},
{
closed = 1;
nodes = (
"107 721 OFFCURVE",
"80 697 OFFCURVE",
"80 652 CURVE SMOOTH",
"80 607 OFFCURVE",
"107 583 OFFCURVE",
"148 583 CURVE SMOOTH",
"189 583 OFFCURVE",
"216 607 OFFCURVE",
"216 652 CURVE SMOOTH",
"216 697 OFFCURVE",
"189 721 OFFCURVE",
"148 721 CURVE SMOOTH"
);
}
);
};
components = (
{
name = idotless;
}
);
hints = (
{
horizontal = 1;
origin = "{0, 5}";
type = Anchor;
}
);
layerId = "0225C979-6A3F-4323-834E-E3153ADD1AE8";
name = Regular;
paths = (
{
closed = 1;
nodes = (
"107 721 OFFCURVE",
"80 697 OFFCURVE",
"80 652 CURVE SMOOTH",
"80 607 OFFCURVE",
"107 583 OFFCURVE",
"148 583 CURVE SMOOTH",
"189 583 OFFCURVE",
"216 607 OFFCURVE",
"216 652 CURVE SMOOTH",
"216 697 OFFCURVE",
"189 721 OFFCURVE",
"148 721 CURVE SMOOTH"
);
}
);
width = 301;
}
);
leftKerningGroup = i;
leftMetricsKey = n;
rightKerningGroup = l;
rightMetricsKey = n;
unicode = 0069;
},
{
glyphname = idotless;
lastChange = "2015-05-06 16:21:34 +0000";
layers = (
{
anchors = (
{
name = bottom;
position = "{156, 0}";
},
{
name = ogonek;
position = "{135, 10}";
},
{
name = top;
position = "{156, 502}";
}
);
background = {
paths = (
{
closed = 1;
nodes = (
"46 502 LINE",
"46 445 LINE",
"114 417 LINE",
"114 85 LINE",
"46 55 LINE",
"46 0 LINE",
"266 0 LINE",
"266 55 LINE",
"198 85 LINE",
"198 502 LINE"
);
}
);
};
guideLines = (
{
angle = 90;
position = "{198, 85}";
},
{
angle = 90;
position = "{114, 85}";
}
);
hints = (
{
horizontal = 1;
origin = "{0, 5}";
target = "{0, 3}";
type = TTStem;
},
{
horizontal = 1;
origin = "{0, 3}";
target = "{0, 8}";
type = Align;
},
{
horizontal = 1;
origin = "{0, 0}";
target = "{0, 2}";
type = TTStem;
}
);
layerId = "0225C979-6A3F-4323-834E-E3153ADD1AE8";
name = Regular;
paths = (
{
closed = 1;
nodes = (
"46 502 LINE",
"46 445 LINE",
"114 417 LINE",
"114 85 LINE",
"46 55 LINE",
"46 0 LINE",
"266 0 LINE",
"266 55 LINE",
"198 85 LINE",
"198 502 LINE"
);
}
);
width = 301;
}
);
leftKerningGroup = n;
rightKerningGroup = n;
unicode = 0131;
},
{
color = 3;
glyphname = j;
lastChange = "2015-06-02 19:03:24 +0000";
layers = (
{
background = {
paths = (
{
closed = 1;
nodes = (
"46 502 LINE",
"46 445 LINE",
"114 417 LINE",
"114 -82 LINE SMOOTH",
"114 -130 OFFCURVE",
"91 -154 OFFCURVE",
"44 -154 CURVE",
"20 -103 LINE",
"-33 -103 OFFCURVE",
"-51 -122 OFFCURVE",
"-51 -159 CURVE SMOOTH",
"-51 -203 OFFCURVE",
"-25 -224 OFFCURVE",
"38 -224 CURVE SMOOTH",
"132 -224 OFFCURVE",
"198 -176 OFFCURVE",
"198 -66 CURVE SMOOTH",
"198 502 LINE"
);
},
{
closed = 1;
nodes = (
"107 721 OFFCURVE",
"80 697 OFFCURVE",
"80 652 CURVE SMOOTH",
"80 607 OFFCURVE",
"107 583 OFFCURVE",
"148 583 CURVE SMOOTH",
"189 583 OFFCURVE",
"216 607 OFFCURVE",
"216 652 CURVE SMOOTH",
"216 697 OFFCURVE",
"189 721 OFFCURVE",
"148 721 CURVE SMOOTH"
);
}
);
};
components = (
{
name = jdotless;
}
);
hints = (
{
horizontal = 1;
origin = "{0, 5}";
type = Anchor;
}
);
layerId = "0225C979-6A3F-4323-834E-E3153ADD1AE8";
name = Regular;
paths = (
{
closed = 1;
nodes = (
"107 721 OFFCURVE",
"80 697 OFFCURVE",
"80 652 CURVE SMOOTH",
"80 607 OFFCURVE",
"107 583 OFFCURVE",
"148 583 CURVE SMOOTH",
"189 583 OFFCURVE",
"216 607 OFFCURVE",
"216 652 CURVE SMOOTH",
"216 697 OFFCURVE",
"189 721 OFFCURVE",
"148 721 CURVE SMOOTH"
);
}
);
width = 291;
}
);
leftKerningGroup = i;
rightKerningGroup = l;
unicode = 006A;
},
{
glyphname = jdotless;
lastChange = "2015-06-11 15:57:57 +0000";
layers = (
{
anchors = (
{
name = bottom;
position = "{38, -224}";
},
{
name = top;
position = "{156, 502}";
}
);
background = {
paths = (
{
closed = 1;
nodes = (
"46 502 LINE",
"46 445 LINE",
"114 417 LINE",
"114 -82 LINE SMOOTH",
"114 -130 OFFCURVE",
"91 -154 OFFCURVE",
"44 -154 CURVE",
"20 -103 LINE",
"-33 -103 OFFCURVE",
"-51 -122 OFFCURVE",
"-51 -159 CURVE SMOOTH",
"-51 -203 OFFCURVE",
"-25 -224 OFFCURVE",
"38 -224 CURVE SMOOTH",
"132 -224 OFFCURVE",
"198 -176 OFFCURVE",
"198 -66 CURVE SMOOTH",
"198 502 LINE"
);
}
);
};
hints = (
{
horizontal = 1;
origin = "{0, 0}";
target = "{0, 2}";
type = TTStem;
},
{
horizontal = 1;
origin = "{0, 13}";
target = "{0, 6}";
type = TTStem;
}
);
layerId = "0225C979-6A3F-4323-834E-E3153ADD1AE8";
name = Regular;
paths = (
{
closed = 1;
nodes = (
"46 502 LINE",
"46 445 LINE",
"114 417 LINE",
"114 -82 LINE SMOOTH",
"114 -130 OFFCURVE",
"91 -154 OFFCURVE",
"44 -154 CURVE",
"20 -103 LINE",
"-33 -103 OFFCURVE",
"-51 -122 OFFCURVE",
"-51 -159 CURVE SMOOTH",
"-51 -203 OFFCURVE",
"-25 -224 OFFCURVE",
"38 -224 CURVE SMOOTH",
"132 -224 OFFCURVE",
"198 -176 OFFCURVE",
"198 -66 CURVE SMOOTH",
"198 502 LINE"
);
}
);
width = 291;
}
);
unicode = 0237;
},
{
color = 3;
glyphname = k;
lastChange = "2015-06-02 19:03:42 +0000";
layers = (
{
anchors = (
{
name = bottom;
position = "{394, 0}";
},
{
name = top;
position = "{324, 680}";
}
);
background = {
guideLines = (
{
angle = 123.463;
position = "{434, 309}";
showMeasurement = 1;
}
);
paths = (
{
closed = 1;
nodes = (
"46 710 LINE",
"46 653 LINE",
"114 625 LINE",
"114 85 LINE",
"46 55 LINE",
"46 0 LINE",
"266 0 LINE",
"266 55 LINE",
"198 85 LINE",
"198 710 LINE"
);
},
{
closed = 1;
nodes = (
"351 502 LINE",
"351 445 LINE",
"439 422 LINE",
"439 427 LINE",
"188 244 LINE",
"188 157 LINE",
"534 412 LINE",
"602 445 LINE",
"602 502 LINE"
);
},
{
closed = 1;
nodes = (
"303 254 LINE",
"520 0 LINE",
"633 0 LINE",
"633 55 LINE",
"560 85 LINE",
"370 304 LINE"
);
}
);
};
hints = (
{
horizontal = 1;
origin = "{0, 0}";
target = "{0, 2}";
type = TTStem;
},
{
horizontal = 1;
origin = "{0, 5}";
target = "{0, 3}";
type = TTStem;
},
{
horizontal = 1;
origin = "{0, 3}";
target = "{0, 8}";
type = Align;
},
{
horizontal = 1;
origin = "{2, 2}";
target = "{2, 4}";
type = TTStem;
},
{
horizontal = 1;
origin = "{2, 4}";
target = "{2, 1}";
type = Align;
options = 4;
},
{
horizontal = 1;
origin = "{1, 5}";
target = "{2, 0}";
type = Align;
options = 4;
},
{
horizontal = 1;
origin = "{1, 0}";
target = "{1, 3}";
type = TTStem;
},
{
horizontal = 1;
origin = "{1, 5}";
target = "{1, 4}";
type = TTStem;
}
);
layerId = "0225C979-6A3F-4323-834E-E3153ADD1AE8";
leftMetricsKey = "=h";
name = Regular;
paths = (
{
closed = 1;
nodes = (
"46 710 LINE",
"46 653 LINE",
"114 625 LINE",
"114 85 LINE",
"46 55 LINE",
"46 0 LINE",
"266 0 LINE",
"266 55 LINE",
"198 85 LINE",
"198 710 LINE"
);
},
{
closed = 1;
nodes = (
"351 502 LINE",
"351 445 LINE",
"439 422 LINE",
"439 427 LINE",
"188 244 LINE",
"188 157 LINE",
"534 412 LINE",
"602 445 LINE",
"602 502 LINE"
);
},
{
closed = 1;
nodes = (
"303 254 LINE",
"520 0 LINE",
"633 0 LINE",
"633 55 LINE",
"560 85 LINE",
"370 304 LINE"
);
}
);
width = 648;
}
);
leftKerningGroup = h;
leftMetricsKey = h;
rightKerningGroup = k;
unicode = 006B;
},
{
color = 3;
glyphname = l;
lastChange = "2015-06-11 19:09:13 +0000";
layers = (
{
anchors = (
{
name = bottom;
position = "{156, 0}";
},
{
name = center;
position = "{151, 251}";
},
{
name = top;
position = "{156, 680}";
},
{
name = topright;
position = "{286, 502}";
}
);
background = {
paths = (
{
closed = 1;
nodes = (
"46 710 LINE",
"46 653 LINE",
"114 625 LINE",
"114 85 LINE",
"46 55 LINE",
"46 0 LINE",
"266 0 LINE",
"266 55 LINE",
"198 85 LINE",
"198 710 LINE"
);
}
);
};
hints = (
{
horizontal = 1;
origin = "{0, 0}";
target = "{0, 2}";
type = TTStem;
},
{
horizontal = 1;
origin = "{0, 5}";
target = "{0, 3}";
type = TTStem;
},
{
horizontal = 1;
origin = "{0, 3}";
target = "{0, 8}";
type = Align;
}
);
layerId = "0225C979-6A3F-4323-834E-E3153ADD1AE8";
name = Regular;
paths = (
{
closed = 1;
nodes = (
"46 710 LINE",
"46 653 LINE",
"114 625 LINE",
"114 85 LINE",
"46 55 LINE",
"46 0 LINE",
"266 0 LINE",
"266 55 LINE",
"198 85 LINE",
"198 710 LINE"
);
}
);
width = 301;
}
);
leftKerningGroup = h;
leftMetricsKey = h;
rightKerningGroup = l;
rightMetricsKey = h;
unicode = 006C;
},
{
glyphname = lslash;
lastChange = "2015-05-06 16:24:51 +0000";
layers = (
{
background = {
components = (
{
name = l;
}
);
paths = (
{
closed = 1;
nodes = (
"286 477 LINE",
"26 368 LINE",
"26 294 LINE",
"286 403 LINE"
);
}
);
};
components = (
{
name = l;
}
);
hints = (
{
horizontal = 1;
origin = "{0, 2}";
target = "{0, 1}";
type = TTStem;
},
{
horizontal = 1;
origin = "{0, 3}";
target = "{0, 0}";
type = TTStem;
}
);
layerId = "0225C979-6A3F-4323-834E-E3153ADD1AE8";
name = Regular;
paths = (
{
closed = 1;
nodes = (
"286 477 LINE",
"26 368 LINE",
"26 294 LINE",
"286 403 LINE"
);
}
);
width = 301;
}
);
leftKerningGroup = h;
rightKerningGroup = l;
unicode = 0142;
},
{
color = 3;
glyphname = m;
lastChange = "2015-05-04 16:38:42 +0000";
layers = (
{
anchors = (
{
name = bottom;
position = "{504, 0}";
},
{
name = top;
position = "{504, 502}";
}
);
background = {
paths = (
{
closed = 1;
nodes = (
"659 516 OFFCURVE",
"595 497 OFFCURVE",
"502 446 CURVE",
"535 443 LINE",
"505 495 OFFCURVE",
"460 516 OFFCURVE",
"386 516 CURVE SMOOTH",
"312 516 OFFCURVE",
"248 497 OFFCURVE",
"155 446 CURVE",
"193 446 LINE",
"157 502 LINE",
"46 502 LINE",
"46 445 LINE",
"114 417 LINE",
"114 85 LINE",
"46 55 LINE",
"46 0 LINE",
"266 0 LINE",
"266 55 LINE",
"198 85 LINE",
"198 402 LINE",
"268 427 OFFCURVE",
"308 443 OFFCURVE",
"359 443 CURVE SMOOTH",
"425 443 OFFCURVE",
"462 412 OFFCURVE",
"462 331 CURVE SMOOTH",
"462 0 LINE",
"614 0 LINE",
"614 55 LINE",
"546 85 LINE",
"546 402 LINE",
"615 427 OFFCURVE",
"655 443 OFFCURVE",
"707 443 CURVE SMOOTH",
"773 443 OFFCURVE",
"810 412 OFFCURVE",
"810 331 CURVE SMOOTH",
"810 0 LINE",
"962 0 LINE",
"962 55 LINE",
"894 85 LINE",
"894 320 LINE SMOOTH",
"894 462 OFFCURVE",
"854 516 OFFCURVE",
"734 516 CURVE SMOOTH"
);
}
);
};
hints = (
{
horizontal = 1;
origin = "{0, 17}";
target = "{0, 20}";
type = TTStem;
},
{
horizontal = 1;
origin = "{0, 20}";
target = "{0, 15}";
type = Align;
},
{
horizontal = 1;
origin = "{0, 12}";
target = "{0, 14}";
type = TTStem;
},
{
horizontal = 1;
origin = "{0, 6}";
target = "{0, 24}";
type = TTStem;
},
{
horizontal = 1;
origin = "{0, 46}";
target = "{0, 35}";
type = TTStem;
},
{
horizontal = 1;
origin = "{0, 28}";
target = "{0, 31}";
type = TTStem;
},
{
horizontal = 1;
origin = "{0, 39}";
target = "{0, 42}";
type = TTStem;
}
);
layerId = "0225C979-6A3F-4323-834E-E3153ADD1AE8";
name = Regular;
paths = (
{
closed = 1;
nodes = (
"659 516 OFFCURVE",
"595 497 OFFCURVE",
"502 446 CURVE",
"535 443 LINE",
"505 495 OFFCURVE",
"460 516 OFFCURVE",
"386 516 CURVE SMOOTH",
"312 516 OFFCURVE",
"248 497 OFFCURVE",
"155 446 CURVE",
"193 446 LINE",
"157 502 LINE",
"46 502 LINE",
"46 445 LINE",
"114 417 LINE",
"114 85 LINE",
"46 55 LINE",
"46 0 LINE",
"266 0 LINE",
"266 55 LINE",
"198 85 LINE",
"198 402 LINE",
"268 427 OFFCURVE",
"308 443 OFFCURVE",
"359 443 CURVE SMOOTH",
"425 443 OFFCURVE",
"462 412 OFFCURVE",
"462 331 CURVE SMOOTH",
"462 0 LINE",
"614 0 LINE",
"614 55 LINE",
"546 85 LINE",
"546 402 LINE",
"615 427 OFFCURVE",
"655 443 OFFCURVE",
"707 443 CURVE SMOOTH",
"773 443 OFFCURVE",
"810 412 OFFCURVE",
"810 331 CURVE SMOOTH",
"810 0 LINE",
"962 0 LINE",
"962 55 LINE",
"894 85 LINE",
"894 320 LINE SMOOTH",
"894 462 OFFCURVE",
"854 516 OFFCURVE",
"734 516 CURVE SMOOTH"
);
}
);
width = 997;
}
);
leftKerningGroup = n;
leftMetricsKey = n;
rightKerningGroup = n;
rightMetricsKey = n;
unicode = 006D;
},
{
color = 3;
glyphname = n;
lastChange = "2015-05-04 16:38:42 +0000";
layers = (
{
anchors = (
{
name = bottom;
position = "{337, 0}";
},
{
name = top;
position = "{337, 502}";
}
);
background = {
paths = (
{
closed = 1;
nodes = (
"319 516 OFFCURVE",
"251 497 OFFCURVE",
"172 455 CURVE",
"193 446 LINE",
"157 502 LINE",
"46 502 LINE",
"46 445 LINE",
"114 417 LINE",
"114 85 LINE",
"46 55 LINE SMOOTH",
"46 0 LINE",
"276 0 LINE",
"276 55 LINE",
"198 85 LINE",
"198 402 LINE",
"268 427 OFFCURVE",
"313 443 OFFCURVE",
"364 443 CURVE SMOOTH",
"435 443 OFFCURVE",
"476 412 OFFCURVE",
"476 331 CURVE SMOOTH",
"476 0 LINE",
"628 0 LINE",
"628 55 LINE",
"560 85 LINE",
"560 320 LINE SMOOTH",
"560 462 OFFCURVE",
"517 516 OFFCURVE",
"391 516 CURVE SMOOTH"
);
}
);
};
hints = (
{
horizontal = 1;
origin = "{0, 10}";
target = "{0, 8}";
type = TTStem;
},
{
horizontal = 1;
origin = "{0, 28}";
target = "{0, 17}";
type = TTStem;
},
{
horizontal = 1;
origin = "{0, 5}";
target = "{0, 7}";
type = TTStem;
},
{
horizontal = 1;
origin = "{0, 8}";
target = "{0, 13}";
type = Align;
},
{
horizontal = 1;
origin = "{0, 21}";
target = "{0, 24}";
type = TTStem;
}
);
layerId = "0225C979-6A3F-4323-834E-E3153ADD1AE8";
name = Regular;
paths = (
{
closed = 1;
nodes = (
"319 516 OFFCURVE",
"251 497 OFFCURVE",
"172 455 CURVE",
"193 446 LINE",
"157 502 LINE",
"46 502 LINE",
"46 445 LINE",
"114 417 LINE",
"114 85 LINE",
"46 55 LINE SMOOTH",
"46 0 LINE",
"276 0 LINE",
"276 55 LINE",
"198 85 LINE",
"198 402 LINE",
"268 427 OFFCURVE",
"313 443 OFFCURVE",
"364 443 CURVE SMOOTH",
"435 443 OFFCURVE",
"476 412 OFFCURVE",
"476 331 CURVE SMOOTH",
"476 0 LINE",
"628 0 LINE",
"628 55 LINE",
"560 85 LINE",
"560 320 LINE SMOOTH",
"560 462 OFFCURVE",
"517 516 OFFCURVE",
"391 516 CURVE SMOOTH"
);
}
);
width = 663;
}
);
leftKerningGroup = n;
rightKerningGroup = n;
unicode = 006E;
},
{
color = 3;
glyphname = o;
lastChange = "2015-05-04 16:38:42 +0000";
layers = (
{
anchors = (
{
name = _ogonek;
position = "{250, 10}";
},
{
name = bottom;
position = "{295, 0}";
},
{
name = center;
position = "{295, 251}";
},
{
name = ogonek;
position = "{288, 10}";
},
{
name = top;
position = "{295, 502}";
},
{
name = topright;
position = "{570, 502}";
}
);
background = {
paths = (
{
closed = 1;
nodes = (
"154 516 OFFCURVE",
"41 446 OFFCURVE",
"41 251 CURVE SMOOTH",
"41 56 OFFCURVE",
"153 -14 OFFCURVE",
"295 -14 CURVE SMOOTH",
"437 -14 OFFCURVE",
"549 56 OFFCURVE",
"549 251 CURVE SMOOTH",
"549 446 OFFCURVE",
"436 516 OFFCURVE",
"295 516 CURVE SMOOTH"
);
},
{
closed = 1;
nodes = (
"410 444 OFFCURVE",
"461 402 OFFCURVE",
"461 251 CURVE SMOOTH",
"461 100 OFFCURVE",
"410 58 OFFCURVE",
"295 58 CURVE SMOOTH",
"180 58 OFFCURVE",
"129 100 OFFCURVE",
"129 251 CURVE SMOOTH",
"129 402 OFFCURVE",
"180 444 OFFCURVE",
"295 444 CURVE SMOOTH"
);
}
);
};
guideLines = (
{
angle = 90;
position = "{295, -14}";
}
);
hints = (
{
horizontal = 1;
origin = "{0, 5}";
target = "{1, 5}";
type = TTStem;
},
{
horizontal = 1;
origin = "{0, 11}";
target = "{1, 11}";
type = TTStem;
}
);
layerId = "0225C979-6A3F-4323-834E-E3153ADD1AE8";
rightMetricsKey = "=|o";
name = Regular;
paths = (
{
closed = 1;
nodes = (
"154 516 OFFCURVE",
"41 446 OFFCURVE",
"41 251 CURVE SMOOTH",
"41 56 OFFCURVE",
"153 -14 OFFCURVE",
"295 -14 CURVE SMOOTH",
"437 -14 OFFCURVE",
"549 56 OFFCURVE",
"549 251 CURVE SMOOTH",
"549 446 OFFCURVE",
"436 516 OFFCURVE",
"295 516 CURVE SMOOTH"
);
},
{
closed = 1;
nodes = (
"410 444 OFFCURVE",
"461 402 OFFCURVE",
"461 251 CURVE SMOOTH",
"461 100 OFFCURVE",
"410 58 OFFCURVE",
"295 58 CURVE SMOOTH",
"180 58 OFFCURVE",
"129 100 OFFCURVE",
"129 251 CURVE SMOOTH",
"129 402 OFFCURVE",
"180 444 OFFCURVE",
"295 444 CURVE SMOOTH"
);
}
);
width = 590;
}
);
leftKerningGroup = o;
rightKerningGroup = o;
rightMetricsKey = "=|o";
unicode = 006F;
},
{
glyphname = oslash;
lastChange = "2015-06-02 19:06:49 +0000";
layers = (
{
background = {
anchors = (
{
name = top;
position = "{295, 502}";
}
);
components = (
{
name = o;
}
);
guideLines = (
{
angle = 90;
position = "{539, 251}";
},
{
angle = 90;
position = "{51, 251}";
},
{
position = "{295, 536}";
},
{
position = "{295, -34}";
}
);
paths = (
{
closed = 1;
nodes = (
"452 536 LINE",
"51 -34 LINE",
"139 -34 LINE",
"539 536 LINE"
);
}
);
};
components = (
{
name = o;
}
);
guideLines = (
{
angle = 90;
position = "{539, 251}";
},
{
angle = 90;
position = "{51, 251}";
},
{
position = "{295, 536}";
},
{
position = "{295, -34}";
}
);
layerId = "0225C979-6A3F-4323-834E-E3153ADD1AE8";
name = Regular;
paths = (
{
closed = 1;
nodes = (
"452 536 LINE",
"51 -34 LINE",
"139 -34 LINE",
"539 536 LINE"
);
}
);
width = 590;
}
);
leftKerningGroup = o;
rightKerningGroup = o;
unicode = 00F8;
},
{
glyphname = oe;
lastChange = "2015-05-06 16:25:54 +0000";
layers = (
{
anchors = (
{
name = top;
position = "{503, 502}";
}
);
background = {
paths = (
{
closed = 1;
nodes = (
"180 58 OFFCURVE",
"129 100 OFFCURVE",
"129 251 CURVE SMOOTH",
"129 402 OFFCURVE",
"180 444 OFFCURVE",
"295 444 CURVE SMOOTH",
"410 444 OFFCURVE",
"461 402 OFFCURVE",
"461 251 CURVE SMOOTH",
"461 100 OFFCURVE",
"410 58 OFFCURVE",
"295 58 CURVE SMOOTH"
);
},
{
closed = 1;
nodes = (
"553 400 OFFCURVE",
"596 444 OFFCURVE",
"695 444 CURVE SMOOTH",
"781 444 OFFCURVE",
"822 392 OFFCURVE",
"829 295 CURVE",
"545 295 LINE"
);
},
{
closed = 1;
nodes = (
"495 98 LINE",
"532 13 OFFCURVE",
"613 -14 OFFCURVE",
"718 -14 CURVE SMOOTH",
"780 -14 OFFCURVE",
"851 -4 OFFCURVE",
"899 9 CURVE",
"899 81 LINE",
"830 63 OFFCURVE",
"776 58 OFFCURVE",
"720 58 CURVE SMOOTH",
"601 58 OFFCURVE",
"554 91 OFFCURVE",
"545 224 CURVE",
"917 224 LINE",
"917 264 LINE SMOOTH",
"917 439 OFFCURVE",
"821 516 OFFCURVE",
"699 516 CURVE SMOOTH",
"607 516 OFFCURVE",
"530 483 OFFCURVE",
"495 404 CURVE",
"502 404 LINE",
"468 486 OFFCURVE",
"400 516 OFFCURVE",
"295 516 CURVE SMOOTH",
"154 516 OFFCURVE",
"41 446 OFFCURVE",
"41 251 CURVE SMOOTH",
"41 56 OFFCURVE",
"153 -14 OFFCURVE",
"295 -14 CURVE SMOOTH",
"411 -14 OFFCURVE",
"472 25 OFFCURVE",
"502 98 CURVE"
);
}
);
};
hints = (
{
horizontal = 1;
origin = "{2, 31}";
target = "{0, 11}";
type = TTStem;
},
{
horizontal = 1;
origin = "{2, 13}";
target = "{1, 6}";
type = TTStem;
options = 128;
},
{
horizontal = 1;
origin = "{2, 25}";
target = "{0, 5}";
type = TTStem;
},
{
horizontal = 1;
origin = "{2, 18}";
target = "{1, 2}";
type = TTStem;
options = 128;
},
{
horizontal = 1;
origin = "{2, 3}";
target = "{2, 10}";
type = TTStem;
options = 128;
}
);
layerId = "0225C979-6A3F-4323-834E-E3153ADD1AE8";
name = Regular;
paths = (
{
closed = 1;
nodes = (
"180 58 OFFCURVE",
"129 100 OFFCURVE",
"129 251 CURVE SMOOTH",
"129 402 OFFCURVE",
"180 444 OFFCURVE",
"295 444 CURVE SMOOTH",
"410 444 OFFCURVE",
"461 402 OFFCURVE",
"461 251 CURVE SMOOTH",
"461 100 OFFCURVE",
"410 58 OFFCURVE",
"295 58 CURVE SMOOTH"
);
},
{
closed = 1;
nodes = (
"553 400 OFFCURVE",
"596 444 OFFCURVE",
"695 444 CURVE SMOOTH",
"781 444 OFFCURVE",
"822 392 OFFCURVE",
"829 295 CURVE",
"545 295 LINE"
);
},
{
closed = 1;
nodes = (
"495 98 LINE",
"532 13 OFFCURVE",
"613 -14 OFFCURVE",
"718 -14 CURVE SMOOTH",
"780 -14 OFFCURVE",
"851 -4 OFFCURVE",
"899 9 CURVE",
"899 81 LINE",
"830 63 OFFCURVE",
"776 58 OFFCURVE",
"720 58 CURVE SMOOTH",
"601 58 OFFCURVE",
"554 91 OFFCURVE",
"545 224 CURVE",
"917 224 LINE",
"917 264 LINE SMOOTH",
"917 439 OFFCURVE",
"821 516 OFFCURVE",
"699 516 CURVE SMOOTH",
"607 516 OFFCURVE",
"530 483 OFFCURVE",
"495 404 CURVE",
"502 404 LINE",
"468 486 OFFCURVE",
"400 516 OFFCURVE",
"295 516 CURVE SMOOTH",
"154 516 OFFCURVE",
"41 446 OFFCURVE",
"41 251 CURVE SMOOTH",
"41 56 OFFCURVE",
"153 -14 OFFCURVE",
"295 -14 CURVE SMOOTH",
"411 -14 OFFCURVE",
"472 25 OFFCURVE",
"502 98 CURVE"
);
}
);
width = 948;
}
);
leftKerningGroup = o;
leftMetricsKey = o;
rightKerningGroup = o;
rightMetricsKey = e;
unicode = 0153;
},
{
color = 3;
glyphname = p;
lastChange = "2015-06-11 19:18:16 +0000";
layers = (
{
anchors = (
{
name = bottom;
position = "{423, 0}";
},
{
name = top;
position = "{313, 502}";
}
);
background = {
paths = (
{
closed = 1;
nodes = (
"308 516 OFFCURVE",
"246 499 OFFCURVE",
"169 449 CURVE",
"183 446 LINE",
"147 502 LINE",
"36 502 LINE",
"36 445 LINE",
"104 417 LINE",
"104 -139 LINE",
"36 -169 LINE",
"36 -224 LINE",
"266 -224 LINE",
"266 -169 LINE",
"188 -139 LINE",
"188 90 LINE",
"165 90 LINE",
"224 21 OFFCURVE",
"289 -10 OFFCURVE",
"380 -10 CURVE SMOOTH",
"510 -10 OFFCURVE",
"579 47 OFFCURVE",
"579 249 CURVE SMOOTH",
"579 446 OFFCURVE",
"497 516 OFFCURVE",
"371 516 CURVE SMOOTH"
);
},
{
closed = 1;
nodes = (
"454 443 OFFCURVE",
"491 374 OFFCURVE",
"491 241 CURVE SMOOTH",
"491 101 OFFCURVE",
"450 63 OFFCURVE",
"363 63 CURVE SMOOTH",
"297 63 OFFCURVE",
"241 86 OFFCURVE",
"188 128 CURVE",
"188 402 LINE",
"252 425 OFFCURVE",
"299 443 OFFCURVE",
"351 443 CURVE SMOOTH"
);
}
);
};
guideLines = (
{
position = "{266, -224}";
}
);
hints = (
{
horizontal = 1;
origin = "{0, 10}";
target = "{0, 8}";
type = TTStem;
},
{
horizontal = 1;
origin = "{0, 18}";
target = "{1, 5}";
type = TTStem;
},
{
horizontal = 1;
origin = "{0, 24}";
target = "{1, 12}";
type = TTStem;
},
{
horizontal = 1;
place = "{44750.000000, 100.000000}";
},
{
horizontal = 1;
origin = "{0, 5}";
target = "{0, 7}";
type = TTStem;
},
{
horizontal = 1;
origin = "{0, 8}";
target = "{0, 13}";
type = Align;
},
{
horizontal = 1;
origin = "{0, 7}";
target = "{1, 9}";
type = Align;
}
);
layerId = "0225C979-6A3F-4323-834E-E3153ADD1AE8";
name = Regular;
paths = (
{
closed = 1;
nodes = (
"308 516 OFFCURVE",
"246 499 OFFCURVE",
"169 449 CURVE",
"183 446 LINE",
"147 502 LINE",
"36 502 LINE",
"36 445 LINE",
"104 417 LINE",
"104 -139 LINE",
"36 -169 LINE",
"36 -224 LINE",
"266 -224 LINE",
"266 -169 LINE",
"188 -139 LINE",
"188 90 LINE",
"165 90 LINE",
"224 21 OFFCURVE",
"289 -10 OFFCURVE",
"380 -10 CURVE SMOOTH",
"510 -10 OFFCURVE",
"579 47 OFFCURVE",
"579 249 CURVE SMOOTH",
"579 446 OFFCURVE",
"497 516 OFFCURVE",
"371 516 CURVE SMOOTH"
);
},
{
closed = 1;
nodes = (
"454 443 OFFCURVE",
"491 374 OFFCURVE",
"491 241 CURVE SMOOTH",
"491 101 OFFCURVE",
"450 63 OFFCURVE",
"363 63 CURVE SMOOTH",
"297 63 OFFCURVE",
"241 86 OFFCURVE",
"188 128 CURVE",
"188 402 LINE",
"252 425 OFFCURVE",
"299 443 OFFCURVE",
"351 443 CURVE SMOOTH"
);
}
);
width = 625;
}
);
leftKerningGroup = n;
leftMetricsKey = "=b";
rightKerningGroup = o;
rightMetricsKey = "=o+5";
unicode = 0070;
},
{
glyphname = thorn;
lastChange = "2015-05-06 16:26:19 +0000";
layers = (
{
background = {
paths = (
{
closed = 1;
nodes = (
"36 710 LINE",
"36 653 LINE",
"104 625 LINE",
"104 -139 LINE",
"36 -169 LINE",
"36 -224 LINE",
"266 -224 LINE",
"266 -169 LINE",
"188 -139 LINE",
"188 90 LINE",
"165 90 LINE",
"224 21 OFFCURVE",
"289 -10 OFFCURVE",
"380 -10 CURVE SMOOTH",
"510 -10 OFFCURVE",
"579 47 OFFCURVE",
"579 249 CURVE SMOOTH",
"579 446 OFFCURVE",
"497 516 OFFCURVE",
"371 516 CURVE SMOOTH",
"308 516 OFFCURVE",
"246 499 OFFCURVE",
"169 449 CURVE",
"188 449 LINE",
"188 710 LINE"
);
},
{
closed = 1;
nodes = (
"454 443 OFFCURVE",
"491 374 OFFCURVE",
"491 241 CURVE SMOOTH",
"491 101 OFFCURVE",
"450 63 OFFCURVE",
"363 63 CURVE SMOOTH",
"297 63 OFFCURVE",
"241 86 OFFCURVE",
"188 128 CURVE",
"188 402 LINE",
"252 425 OFFCURVE",
"299 443 OFFCURVE",
"351 443 CURVE SMOOTH"
);
}
);
};
guideLines = (
{
angle = 90;
position = "{188, 452}";
}
);
hints = (
{
horizontal = 1;
origin = "{0, 5}";
target = "{0, 8}";
type = TTStem;
},
{
horizontal = 1;
origin = "{0, 13}";
target = "{1, 5}";
type = TTStem;
},
{
horizontal = 1;
origin = "{0, 19}";
target = "{1, 12}";
type = TTStem;
},
{
horizontal = 1;
origin = "{0, 0}";
target = "{0, 2}";
type = TTStem;
},
{
horizontal = 1;
origin = "{0, 8}";
target = "{0, 3}";
type = Align;
}
);
layerId = "0225C979-6A3F-4323-834E-E3153ADD1AE8";
rightMetricsKey = "=p";
name = Regular;
paths = (
{
closed = 1;
nodes = (
"36 710 LINE",
"36 653 LINE",
"104 625 LINE",
"104 -139 LINE",
"36 -169 LINE",
"36 -224 LINE",
"266 -224 LINE",
"266 -169 LINE",
"188 -139 LINE",
"188 90 LINE",
"165 90 LINE",
"224 21 OFFCURVE",
"289 -10 OFFCURVE",
"380 -10 CURVE SMOOTH",
"510 -10 OFFCURVE",
"579 47 OFFCURVE",
"579 249 CURVE SMOOTH",
"579 446 OFFCURVE",
"497 516 OFFCURVE",
"371 516 CURVE SMOOTH",
"308 516 OFFCURVE",
"246 499 OFFCURVE",
"169 449 CURVE",
"188 449 LINE",
"188 710 LINE"
);
},
{
closed = 1;
nodes = (
"454 443 OFFCURVE",
"491 374 OFFCURVE",
"491 241 CURVE SMOOTH",
"491 101 OFFCURVE",
"450 63 OFFCURVE",
"363 63 CURVE SMOOTH",
"297 63 OFFCURVE",
"241 86 OFFCURVE",
"188 128 CURVE",
"188 402 LINE",
"252 425 OFFCURVE",
"299 443 OFFCURVE",
"351 443 CURVE SMOOTH"
);
}
);
width = 625;
}
);
leftKerningGroup = h;
leftMetricsKey = "=b";
rightKerningGroup = o;
rightMetricsKey = "=o+4";
unicode = 00FE;
},
{
color = 3;
glyphname = q;
lastChange = "2015-06-11 19:18:24 +0000";
layers = (
{
anchors = (
{
name = bottom;
position = "{203, 0}";
},
{
name = top;
position = "{312, 502}";
}
);
background = {
paths = (
{
closed = 1;
nodes = (
"128 516 OFFCURVE",
"46 446 OFFCURVE",
"46 249 CURVE SMOOTH",
"46 47 OFFCURVE",
"115 -10 OFFCURVE",
"245 -10 CURVE SMOOTH",
"336 -10 OFFCURVE",
"401 21 OFFCURVE",
"460 90 CURVE",
"437 90 LINE",
"437 -139 LINE",
"359 -169 LINE",
"359 -224 LINE",
"589 -224 LINE",
"589 -169 LINE",
"521 -139 LINE",
"521 502 LINE",
"478 502 LINE",
"442 446 LINE",
"461 446 LINE",
"378 500 OFFCURVE",
"317 516 OFFCURVE",
"254 516 CURVE SMOOTH"
);
},
{
closed = 1;
nodes = (
"326 443 OFFCURVE",
"373 425 OFFCURVE",
"437 402 CURVE",
"437 128 LINE",
"384 86 OFFCURVE",
"328 63 OFFCURVE",
"262 63 CURVE SMOOTH",
"175 63 OFFCURVE",
"134 101 OFFCURVE",
"134 241 CURVE SMOOTH",
"134 374 OFFCURVE",
"171 443 OFFCURVE",
"274 443 CURVE SMOOTH"
);
}
);
};
hints = (
{
horizontal = 1;
origin = "{0, 12}";
target = "{0, 10}";
type = TTStem;
},
{
horizontal = 1;
origin = "{0, 5}";
target = "{1, 6}";
type = TTStem;
},
{
horizontal = 1;
origin = "{0, 22}";
target = "{1, 12}";
type = TTStem;
},
{
horizontal = 1;
origin = "{0, 10}";
target = "{0, 15}";
type = Align;
}
);
layerId = "0225C979-6A3F-4323-834E-E3153ADD1AE8";
name = Regular;
paths = (
{
closed = 1;
nodes = (
"128 516 OFFCURVE",
"46 446 OFFCURVE",
"46 249 CURVE SMOOTH",
"46 47 OFFCURVE",
"115 -10 OFFCURVE",
"245 -10 CURVE SMOOTH",
"336 -10 OFFCURVE",
"401 21 OFFCURVE",
"460 90 CURVE",
"437 90 LINE",
"437 -139 LINE",
"359 -169 LINE",
"359 -224 LINE",
"589 -224 LINE",
"589 -169 LINE",
"521 -139 LINE",
"521 502 LINE",
"478 502 LINE",
"442 446 LINE",
"461 446 LINE",
"378 500 OFFCURVE",
"317 516 OFFCURVE",
"254 516 CURVE SMOOTH"
);
},
{
closed = 1;
nodes = (
"326 443 OFFCURVE",
"373 425 OFFCURVE",
"437 402 CURVE",
"437 128 LINE",
"384 86 OFFCURVE",
"328 63 OFFCURVE",
"262 63 CURVE SMOOTH",
"175 63 OFFCURVE",
"134 101 OFFCURVE",
"134 241 CURVE SMOOTH",
"134 374 OFFCURVE",
"171 443 OFFCURVE",
"274 443 CURVE SMOOTH"
);
}
);
width = 624;
}
);
leftKerningGroup = o;
leftMetricsKey = "=o+5";
rightKerningGroup = n;
unicode = 0071;
},
{
color = 3;
glyphname = r;
lastChange = "2015-05-06 16:26:56 +0000";
layers = (
{
anchors = (
{
name = bottom;
position = "{156, 0}";
},
{
name = top;
position = "{268, 502}";
}
);
background = {
hints = (
{
place = "{0.000000, 0.000000}";
}
);
paths = (
{
closed = 1;
nodes = (
"326 518 OFFCURVE",
"245 484 OFFCURVE",
"171 423 CURVE",
"214 412 LINE",
"157 502 LINE",
"46 502 LINE",
"46 445 LINE",
"114 417 LINE",
"114 85 LINE",
"46 55 LINE",
"46 0 LINE",
"291 0 LINE",
"291 55 LINE",
"198 85 LINE",
"198 376 LINE",
"239 403 OFFCURVE",
"296 428 OFFCURVE",
"351 442 CURVE",
"346 444 LINE",
"387 351 LINE",
"444 351 OFFCURVE",
"479 375 OFFCURVE",
"479 432 CURVE SMOOTH",
"479 489 OFFCURVE",
"455 518 OFFCURVE",
"395 518 CURVE SMOOTH"
);
}
);
};
guideLines = (
{
angle = 90;
position = "{198, 85}";
},
{
angle = 90;
position = "{476, 0}";
},
{
angle = 90;
position = "{560, 85}";
}
);
hints = (
{
horizontal = 1;
origin = "{0, 5}";
target = "{0, 7}";
type = TTStem;
},
{
horizontal = 1;
origin = "{0, 10}";
target = "{0, 8}";
type = TTStem;
},
{
horizontal = 1;
origin = "{0, 8}";
target = "{0, 13}";
type = Align;
},
{
horizontal = 1;
origin = "{0, 25}";
target = "{0, 17}";
type = TTStem;
}
);
layerId = "0225C979-6A3F-4323-834E-E3153ADD1AE8";
name = Regular;
paths = (
{
closed = 1;
nodes = (
"326 518 OFFCURVE",
"245 484 OFFCURVE",
"171 423 CURVE",
"214 412 LINE",
"157 502 LINE",
"46 502 LINE",
"46 445 LINE",
"114 417 LINE",
"114 85 LINE",
"46 55 LINE",
"46 0 LINE",
"291 0 LINE",
"291 55 LINE",
"198 85 LINE",
"198 376 LINE",
"239 403 OFFCURVE",
"296 428 OFFCURVE",
"351 442 CURVE",
"346 444 LINE",
"387 351 LINE",
"444 351 OFFCURVE",
"479 375 OFFCURVE",
"479 432 CURVE SMOOTH",
"479 489 OFFCURVE",
"455 518 OFFCURVE",
"395 518 CURVE SMOOTH"
);
}
);
width = 504;
}
);
leftKerningGroup = n;
leftMetricsKey = h;
rightKerningGroup = r;
unicode = 0072;
},
{
color = 3;
glyphname = s;
lastChange = "2015-06-02 18:36:22 +0000";
layers = (
{
anchors = (
{
name = bottom;
position = "{263, 0}";
},
{
name = top;
position = "{263, 502}";
}
);
background = {
paths = (
{
closed = 1;
nodes = (
"87 516 OFFCURVE",
"40 471 OFFCURVE",
"40 366 CURVE SMOOTH",
"40 268 OFFCURVE",
"76 241 OFFCURVE",
"212 216 CURVE SMOOTH",
"353 190 OFFCURVE",
"398 198 OFFCURVE",
"398 130 CURVE SMOOTH",
"398 73 OFFCURVE",
"374 56 OFFCURVE",
"251 56 CURVE SMOOTH",
"197 56 OFFCURVE",
"165 59 OFFCURVE",
"108 70 CURVE",
"146 31 LINE",
"106 150 LINE",
"46 150 LINE",
"46 6 LINE",
"129 -8 OFFCURVE",
"182 -14 OFFCURVE",
"248 -14 CURVE SMOOTH",
"439 -14 OFFCURVE",
"486 34 OFFCURVE",
"486 142 CURVE SMOOTH",
"486 228 OFFCURVE",
"463 259 OFFCURVE",
"325 284 CURVE SMOOTH",
"166 313 OFFCURVE",
"128 311 OFFCURVE",
"128 374 CURVE SMOOTH",
"128 427 OFFCURVE",
"154 446 OFFCURVE",
"258 446 CURVE SMOOTH",
"316 446 OFFCURVE",
"353 441 OFFCURVE",
"406 431 CURVE",
"369 476 LINE",
"410 357 LINE",
"468 357 LINE",
"468 496 LINE",
"385 510 OFFCURVE",
"326 516 OFFCURVE",
"262 516 CURVE SMOOTH"
);
}
);
};
hints = (
{
horizontal = 1;
origin = "{0, 21}";
target = "{0, 11}";
type = TTStem;
options = 132;
},
{
horizontal = 1;
origin = "{0, 43}";
target = "{0, 33}";
type = TTStem;
options = 132;
},
{
horizontal = 1;
origin = "{0, 5}";
target = "{0, 27}";
type = TTStem;
options = 132;
}
);
layerId = "0225C979-6A3F-4323-834E-E3153ADD1AE8";
name = Regular;
paths = (
{
closed = 1;
nodes = (
"87 516 OFFCURVE",
"40 471 OFFCURVE",
"40 366 CURVE SMOOTH",
"40 268 OFFCURVE",
"76 241 OFFCURVE",
"212 216 CURVE SMOOTH",
"353 190 OFFCURVE",
"398 198 OFFCURVE",
"398 130 CURVE SMOOTH",
"398 73 OFFCURVE",
"374 56 OFFCURVE",
"251 56 CURVE SMOOTH",
"197 56 OFFCURVE",
"165 59 OFFCURVE",
"108 70 CURVE",
"146 31 LINE",
"106 150 LINE",
"46 150 LINE",
"46 6 LINE",
"129 -8 OFFCURVE",
"182 -14 OFFCURVE",
"248 -14 CURVE SMOOTH",
"439 -14 OFFCURVE",
"486 34 OFFCURVE",
"486 142 CURVE SMOOTH",
"486 228 OFFCURVE",
"463 259 OFFCURVE",
"325 284 CURVE SMOOTH",
"166 313 OFFCURVE",
"128 311 OFFCURVE",
"128 374 CURVE SMOOTH",
"128 427 OFFCURVE",
"154 446 OFFCURVE",
"258 446 CURVE SMOOTH",
"316 446 OFFCURVE",
"353 441 OFFCURVE",
"406 431 CURVE",
"369 476 LINE",
"410 357 LINE",
"468 357 LINE",
"468 496 LINE",
"385 510 OFFCURVE",
"326 516 OFFCURVE",
"262 516 CURVE SMOOTH"
);
}
);
width = 526;
}
);
leftKerningGroup = s;
rightKerningGroup = s;
unicode = 0073;
},
{
color = 0;
glyphname = germandbls;
lastChange = "2015-06-02 19:07:59 +0000";
layers = (
{
background = {
paths = (
{
closed = 1;
nodes = (
"194 718 OFFCURVE",
"114 644 OFFCURVE",
"114 522 CURVE SMOOTH",
"114 502 LINE",
"46 488 LINE",
"46 430 LINE",
"114 430 LINE",
"114 85 LINE",
"46 55 LINE",
"46 0 LINE",
"198 0 LINE",
"198 520 LINE SMOOTH",
"198 603 OFFCURVE",
"240 646 OFFCURVE",
"317 646 CURVE SMOOTH",
"387 646 OFFCURVE",
"421 610 OFFCURVE",
"421 543 CURVE SMOOTH",
"421 473 OFFCURVE",
"384 437 OFFCURVE",
"314 437 CURVE",
"314 365 LINE",
"429 365 OFFCURVE",
"472 325 OFFCURVE",
"472 218 CURVE SMOOTH",
"472 113 OFFCURVE",
"430 74 OFFCURVE",
"319 74 CURVE SMOOTH",
"289 74 LINE",
"289 0 LINE",
"324 0 LINE SMOOTH",
"488 0 OFFCURVE",
"560 68 OFFCURVE",
"560 221 CURVE SMOOTH",
"560 342 OFFCURVE",
"513 406 OFFCURVE",
"401 418 CURVE",
"401 420 LINE",
"464 432 OFFCURVE",
"503 486 OFFCURVE",
"503 560 CURVE SMOOTH",
"503 658 OFFCURVE",
"434 718 OFFCURVE",
"320 718 CURVE SMOOTH"
);
}
);
};
guideLines = (
{
angle = 90;
position = "{472, 217}";
}
);
hints = (
{
horizontal = 1;
origin = "{0, 21}";
target = "{0, 20}";
type = TTStem;
},
{
horizontal = 1;
origin = "{0, 43}";
target = "{0, 14}";
type = TTStem;
},
{
horizontal = 1;
origin = "{0, 5}";
target = "{0, 3}";
type = TTStem;
},
{
horizontal = 1;
origin = "{0, 9}";
target = "{0, 7}";
type = TTStem;
},
{
horizontal = 1;
origin = "{0, 29}";
target = "{0, 28}";
type = TTStem;
}
);
layerId = "0225C979-6A3F-4323-834E-E3153ADD1AE8";
name = Regular;
paths = (
{
closed = 1;
nodes = (
"194 718 OFFCURVE",
"114 644 OFFCURVE",
"114 522 CURVE SMOOTH",
"114 502 LINE",
"46 488 LINE",
"46 430 LINE",
"114 430 LINE",
"114 85 LINE",
"46 55 LINE",
"46 0 LINE",
"198 0 LINE",
"198 520 LINE SMOOTH",
"198 603 OFFCURVE",
"240 646 OFFCURVE",
"317 646 CURVE SMOOTH",
"387 646 OFFCURVE",
"421 610 OFFCURVE",
"421 543 CURVE SMOOTH",
"421 473 OFFCURVE",
"384 437 OFFCURVE",
"314 437 CURVE",
"314 365 LINE",
"429 365 OFFCURVE",
"472 325 OFFCURVE",
"472 218 CURVE SMOOTH",
"472 113 OFFCURVE",
"430 74 OFFCURVE",
"319 74 CURVE SMOOTH",
"289 74 LINE",
"289 0 LINE",
"324 0 LINE SMOOTH",
"488 0 OFFCURVE",
"560 68 OFFCURVE",
"560 221 CURVE SMOOTH",
"560 342 OFFCURVE",
"513 406 OFFCURVE",
"401 418 CURVE",
"401 420 LINE",
"464 432 OFFCURVE",
"503 486 OFFCURVE",
"503 560 CURVE SMOOTH",
"503 658 OFFCURVE",
"434 718 OFFCURVE",
"320 718 CURVE SMOOTH"
);
}
);
width = 590;
}
);
leftKerningGroup = f;
leftMetricsKey = n;
unicode = 00DF;
},
{
color = 3;
glyphname = t;
lastChange = "2015-06-11 19:11:49 +0000";
layers = (
{
anchors = (
{
name = bottom;
position = "{213, 10}";
},
{
name = center;
position = "{181, 251}";
},
{
name = top;
position = "{193, 617}";
},
{
name = topright;
position = "{270, 502}";
}
);
background = {
paths = (
{
closed = 1;
nodes = (
"309 -9 OFFCURVE",
"341 -6 OFFCURVE",
"369 1 CURVE",
"369 71 LINE",
"345 66 OFFCURVE",
"320 63 OFFCURVE",
"285 64 CURVE SMOOTH",
"211 66 OFFCURVE",
"188 85 OFFCURVE",
"188 163 CURVE SMOOTH",
"188 432 LINE",
"359 431 LINE",
"359 501 LINE",
"188 502 LINE",
"188 647 LINE",
"134 647 LINE",
"104 502 LINE",
"26 488 LINE",
"26 432 LINE",
"104 432 LINE",
"104 163 LINE SMOOTH",
"104 42 OFFCURVE",
"153 -5 OFFCURVE",
"268 -8 CURVE SMOOTH"
);
}
);
};
hints = (
{
horizontal = 1;
origin = "{0, 16}";
target = "{0, 19}";
type = TTStem;
},
{
horizontal = 1;
origin = "{0, 23}";
target = "{0, 6}";
type = TTStem;
},
{
horizontal = 1;
origin = "{0, 13}";
target = "{0, 16}";
type = Align;
},
{
horizontal = 1;
origin = "{0, 19}";
target = "{0, 10}";
type = TTStem;
}
);
layerId = "0225C979-6A3F-4323-834E-E3153ADD1AE8";
name = Regular;
paths = (
{
closed = 1;
nodes = (
"309 -9 OFFCURVE",
"341 -6 OFFCURVE",
"369 1 CURVE",
"369 71 LINE",
"345 66 OFFCURVE",
"320 63 OFFCURVE",
"285 64 CURVE SMOOTH",
"211 66 OFFCURVE",
"188 85 OFFCURVE",
"188 163 CURVE SMOOTH",
"188 432 LINE",
"359 431 LINE",
"359 501 LINE",
"188 502 LINE",
"188 647 LINE",
"134 647 LINE",
"104 502 LINE",
"26 488 LINE",
"26 432 LINE",
"104 432 LINE",
"104 163 LINE SMOOTH",
"104 42 OFFCURVE",
"153 -5 OFFCURVE",
"268 -8 CURVE SMOOTH"
);
}
);
width = 409;
}
);
leftKerningGroup = t;
leftMetricsKey = "=n-20";
rightKerningGroup = t;
unicode = 0074;
},
{
color = 3;
glyphname = u;
lastChange = "2015-06-02 19:13:03 +0000";
layers = (
{
anchors = (
{
name = bottom;
position = "{324, 0}";
},
{
name = ogonek;
position = "{525, 10}";
},
{
name = top;
position = "{322, 502}";
},
{
name = topright;
position = "{628, 502}";
}
);
background = {
anchors = (
{
name = bottom;
position = "{312, 0}";
},
{
name = center;
position = "{312, 251}";
},
{
name = top;
position = "{479, 680}";
},
{
name = topright;
position = "{604, 502}";
}
);
hints = (
{
horizontal = 1;
place = "{73.000000, 31.000000}";
type = TTStem;
},
{
horizontal = 1;
place = "{0.000000, 516.000000}";
type = TTStem;
},
{
horizontal = 1;
place = "{516.000000, -331.000000}";
type = TTStem;
},
{
horizontal = 1;
place = "{104.000000, 10.000000}";
type = Align;
},
{
horizontal = 1;
place = "{71.000000, -1.000000}";
type = TTStem;
},
{
horizontal = 1;
origin = "{0, 13}";
target = "{1, 6}";
type = TTStem;
},
{
horizontal = 1;
origin = "{0, 7}";
target = "{1, 12}";
type = TTStem;
},
{
horizontal = 1;
origin = "{0, 0}";
target = "{0, 1}";
type = TTStem;
},
{
horizontal = 1;
origin = "{0, 18}";
target = "{0, 21}";
type = TTStem;
},
{
horizontal = 1;
origin = "{0, 21}";
target = "{0, 16}";
type = Align;
}
);
paths = (
{
closed = 1;
nodes = (
"393 710 LINE",
"393 653 LINE",
"461 625 LINE",
"461 451 LINE",
"471 455 LINE",
"400 499 OFFCURVE",
"341 516 OFFCURVE",
"278 516 CURVE SMOOTH",
"152 516 OFFCURVE",
"70 446 OFFCURVE",
"70 249 CURVE SMOOTH",
"70 47 OFFCURVE",
"139 -10 OFFCURVE",
"269 -10 CURVE SMOOTH",
"360 -10 OFFCURVE",
"425 21 OFFCURVE",
"484 90 CURVE",
"461 90 LINE",
"494 0 LINE",
"613 0 LINE",
"613 55 LINE",
"545 85 LINE",
"545 710 LINE"
);
},
{
closed = 1;
nodes = (
"350 443 OFFCURVE",
"397 425 OFFCURVE",
"461 402 CURVE",
"461 128 LINE",
"411 86 OFFCURVE",
"358 63 OFFCURVE",
"295 63 CURVE SMOOTH",
"202 63 OFFCURVE",
"158 101 OFFCURVE",
"158 241 CURVE SMOOTH",
"158 374 OFFCURVE",
"195 443 OFFCURVE",
"298 443 CURVE SMOOTH"
);
}
);
};
hints = (
{
horizontal = 1;
origin = "{0, 11}";
target = "{0, 13}";
type = TTStem;
},
{
horizontal = 1;
origin = "{0, 0}";
target = "{0, 2}";
type = TTStem;
},
{
horizontal = 1;
origin = "{0, 17}";
target = "{0, 6}";
type = TTStem;
},
{
horizontal = 1;
origin = "{0, 22}";
target = "{0, 25}";
type = TTStem;
},
{
horizontal = 1;
origin = "{0, 25}";
target = "{0, 20}";
type = Align;
}
);
layerId = "0225C979-6A3F-4323-834E-E3153ADD1AE8";
rightMetricsKey = "=n";
name = Regular;
paths = (
{
closed = 1;
nodes = (
"393 502 LINE",
"393 447 LINE",
"461 419 LINE",
"461 128 LINE",
"411 86 OFFCURVE",
"358 63 OFFCURVE",
"295 63 CURVE SMOOTH",
"224 63 OFFCURVE",
"183 94 OFFCURVE",
"183 175 CURVE SMOOTH",
"183 502 LINE",
"31 502 LINE",
"31 447 LINE",
"99 417 LINE",
"99 186 LINE SMOOTH",
"99 44 OFFCURVE",
"141 -10 OFFCURVE",
"269 -10 CURVE SMOOTH",
"360 -10 OFFCURVE",
"425 21 OFFCURVE",
"484 90 CURVE",
"461 90 LINE",
"494 0 LINE",
"613 0 LINE",
"613 55 LINE",
"545 85 LINE",
"545 502 LINE"
);
}
);
width = 648;
},
{
anchors = (
{
name = bottom;
position = "{324, 0}";
},
{
name = ogonek;
position = "{525, 10}";
},
{
name = top;
position = "{322, 502}";
},
{
name = topright;
position = "{628, 502}";
}
);
associatedMasterId = "0225C979-6A3F-4323-834E-E3153ADD1AE8";
background = {
anchors = (
{
name = bottom;
position = "{312, 0}";
},
{
name = center;
position = "{312, 251}";
},
{
name = top;
position = "{479, 680}";
},
{
name = topright;
position = "{604, 502}";
}
);
paths = (
{
closed = 1;
nodes = (
"393 710 LINE",
"393 653 LINE",
"461 625 LINE",
"461 451 LINE",
"471 455 LINE",
"400 499 OFFCURVE",
"341 516 OFFCURVE",
"278 516 CURVE SMOOTH",
"152 516 OFFCURVE",
"70 446 OFFCURVE",
"70 249 CURVE SMOOTH",
"70 47 OFFCURVE",
"139 -10 OFFCURVE",
"269 -10 CURVE SMOOTH",
"360 -10 OFFCURVE",
"425 21 OFFCURVE",
"484 90 CURVE",
"461 90 LINE",
"494 0 LINE",
"613 0 LINE",
"613 55 LINE",
"545 85 LINE",
"545 710 LINE"
);
},
{
closed = 1;
nodes = (
"350 443 OFFCURVE",
"397 425 OFFCURVE",
"461 402 CURVE",
"461 128 LINE",
"408 86 OFFCURVE",
"352 63 OFFCURVE",
"286 63 CURVE SMOOTH",
"199 63 OFFCURVE",
"158 101 OFFCURVE",
"158 241 CURVE SMOOTH",
"158 374 OFFCURVE",
"195 443 OFFCURVE",
"298 443 CURVE SMOOTH"
);
}
);
};
hints = (
{
horizontal = 1;
origin = "{0, 11}";
target = "{0, 13}";
type = TTStem;
},
{
horizontal = 1;
origin = "{0, 0}";
target = "{0, 2}";
type = TTStem;
},
{
horizontal = 1;
origin = "{0, 23}";
target = "{0, 25}";
type = TTStem;
},
{
horizontal = 1;
origin = "{0, 17}";
target = "{0, 6}";
type = TTStem;
}
);
layerId = "177C8093-900B-4E91-8156-A628F1C9AFA6";
rightMetricsKey = "=n";
name = "Regular Jun 2 15, 13:10";
paths = (
{
closed = 1;
nodes = (
"393 502 LINE",
"393 447 LINE",
"461 419 LINE",
"461 104 LINE",
"391 79 OFFCURVE",
"346 63 OFFCURVE",
"295 63 CURVE SMOOTH",
"224 63 OFFCURVE",
"183 94 OFFCURVE",
"183 175 CURVE SMOOTH",
"183 502 LINE",
"31 502 LINE",
"31 447 LINE",
"99 417 LINE",
"99 186 LINE SMOOTH",
"99 44 OFFCURVE",
"141 -10 OFFCURVE",
"268 -10 CURVE SMOOTH",
"342 -10 OFFCURVE",
"411 9 OFFCURVE",
"504 60 CURVE",
"466 56 LINE",
"502 0 LINE",
"613 0 LINE",
"613 57 LINE",
"545 85 LINE",
"545 502 LINE"
);
}
);
width = 648;
}
);
leftKerningGroup = u;
leftMetricsKey = "=n-15";
rightKerningGroup = u;
rightMetricsKey = i;
unicode = 0075;
},
{
color = 3;
glyphname = v;
lastChange = "2015-06-02 19:13:56 +0000";
layers = (
{
anchors = (
{
name = bottom;
position = "{295, 0}";
},
{
name = top;
position = "{295, 502}";
}
);
background = {
paths = (
{
closed = 1;
nodes = (
"343 0 LINE",
"521 418 LINE",
"579 446 LINE",
"579 502 LINE",
"378 502 LINE",
"378 446 LINE",
"446 419 LINE",
"301 69 LINE",
"305 69 LINE",
"160 419 LINE",
"228 446 LINE",
"228 502 LINE",
"10 502 LINE",
"10 446 LINE",
"68 418 LINE",
"247 0 LINE"
);
}
);
};
guideLines = (
{
angle = 22.5237;
position = "{181, 415}";
showMeasurement = 1;
},
{
angle = 157.476;
position = "{373, 441}";
showMeasurement = 1;
}
);
hints = (
{
horizontal = 1;
origin = "{0, 12}";
target = "{0, 14}";
type = TTStem;
},
{
horizontal = 1;
origin = "{0, 14}";
target = "{0, 9}";
type = Align;
},
{
horizontal = 1;
origin = "{0, 4}";
target = "{0, 6}";
type = TTStem;
},
{
horizontal = 1;
origin = "{0, 6}";
target = "{0, 1}";
type = Align;
},
{
horizontal = 1;
origin = "{0, 15}";
target = "{0, 7}";
type = TTStem;
},
{
horizontal = 1;
origin = "{0, 7}";
target = "{0, 0}";
type = Align;
options = 4;
}
);
layerId = "0225C979-6A3F-4323-834E-E3153ADD1AE8";
name = Regular;
paths = (
{
closed = 1;
nodes = (
"343 0 LINE",
"521 418 LINE",
"579 446 LINE",
"579 502 LINE",
"378 502 LINE",
"378 446 LINE",
"446 419 LINE",
"301 69 LINE",
"305 69 LINE",
"160 419 LINE",
"228 446 LINE",
"228 502 LINE",
"10 502 LINE",
"10 446 LINE",
"68 418 LINE",
"247 0 LINE"
);
}
);
width = 589;
}
);
leftKerningGroup = v;
rightKerningGroup = v;
unicode = 0076;
},
{
color = 3;
glyphname = w;
lastChange = "2015-06-02 19:14:18 +0000";
layers = (
{
anchors = (
{
name = bottom;
position = "{421, 0}";
},
{
name = top;
position = "{421, 502}";
}
);
background = {
paths = (
{
closed = 1;
nodes = (
"419 359 LINE",
"533 0 LINE",
"635 0 LINE",
"774 417 LINE",
"832 445 LINE",
"832 502 LINE",
"633 502 LINE",
"633 445 LINE",
"701 417 LINE",
"590 82 LINE",
"594 82 LINE",
"471 468 LINE",
"384 468 LINE",
"261 80 LINE",
"265 80 LINE",
"155 417 LINE",
"223 445 LINE",
"223 502 LINE",
"10 502 LINE",
"10 445 LINE",
"68 417 LINE",
"207 0 LINE",
"309 0 LINE",
"423 359 LINE"
);
}
);
};
hints = (
{
horizontal = 1;
origin = "{0, 1}";
target = "{0, 9}";
type = TTStem;
},
{
horizontal = 1;
origin = "{0, 9}";
target = "{0, 2}";
type = Align;
options = 4;
},
{
horizontal = 1;
origin = "{0, 21}";
target = "{0, 13}";
type = TTStem;
},
{
horizontal = 1;
origin = "{0, 13}";
target = "{0, 22}";
type = Align;
options = 4;
},
{
horizontal = 1;
origin = "{0, 18}";
target = "{0, 20}";
type = TTStem;
},
{
horizontal = 1;
origin = "{0, 20}";
target = "{0, 15}";
type = Align;
},
{
horizontal = 1;
origin = "{0, 6}";
target = "{0, 8}";
type = TTStem;
},
{
horizontal = 1;
origin = "{0, 8}";
target = "{0, 3}";
type = Align;
},
{
horizontal = 1;
origin = "{0, 23}";
target = "{0, 11}";
type = TTStem;
},
{
horizontal = 1;
origin = "{0, 18}";
target = "{0, 11}";
type = Align;
options = 4;
},
{
horizontal = 1;
origin = "{0, 0}";
target = "{0, 12}";
type = Align;
options = 4;
}
);
layerId = "0225C979-6A3F-4323-834E-E3153ADD1AE8";
name = Regular;
paths = (
{
closed = 1;
nodes = (
"419 359 LINE",
"533 0 LINE",
"635 0 LINE",
"774 417 LINE",
"832 445 LINE",
"832 502 LINE",
"633 502 LINE",
"633 445 LINE",
"701 417 LINE",
"590 82 LINE",
"594 82 LINE",
"471 468 LINE",
"384 468 LINE",
"261 80 LINE",
"265 80 LINE",
"155 417 LINE",
"223 445 LINE",
"223 502 LINE",
"10 502 LINE",
"10 445 LINE",
"68 417 LINE",
"207 0 LINE",
"309 0 LINE",
"423 359 LINE"
);
}
);
width = 842;
}
);
leftKerningGroup = v;
rightKerningGroup = v;
unicode = 0077;
},
{
color = 3;
glyphname = x;
lastChange = "2015-06-02 19:15:26 +0000";
layers = (
{
anchors = (
{
name = bottom;
position = "{316, 0}";
},
{
name = top;
position = "{316, 502}";
}
);
background = {
guideLines = (
{
angle = 134.375;
position = "{503, 357}";
showMeasurement = 1;
}
);
paths = (
{
closed = 1;
nodes = (
"25 502 LINE",
"25 445 LINE",
"83 417 LINE",
"439 85 LINE",
"381 55 LINE",
"381 0 LINE",
"607 0 LINE",
"607 55 LINE",
"547 85 LINE",
"192 417 LINE",
"250 445 LINE",
"250 502 LINE"
);
},
{
closed = 1;
nodes = (
"85 85 LINE",
"25 55 LINE",
"25 0 LINE",
"235 0 LINE",
"235 55 LINE",
"177 85 LINE",
"325 229 LINE",
"274 258 LINE"
);
},
{
closed = 1;
nodes = (
"399 502 LINE",
"399 445 LINE",
"457 417 LINE",
"309 275 LINE",
"357 243 LINE",
"549 417 LINE",
"607 445 LINE",
"607 502 LINE"
);
},
{
closed = 0;
nodes = (
"90 424 LINE",
"446 92 LINE"
);
},
{
closed = 0;
nodes = (
"150 442 LINE",
"506 110 LINE"
);
}
);
};
guideLines = (
{
angle = 46.8368;
position = "{333, 85}";
showMeasurement = 1;
}
);
hints = (
{
horizontal = 1;
origin = "{0, 0}";
target = "{0, 2}";
type = TTStem;
},
{
horizontal = 1;
origin = "{0, 2}";
target = "{0, 9}";
type = Align;
},
{
horizontal = 1;
origin = "{2, 0}";
target = "{2, 2}";
type = TTStem;
},
{
horizontal = 1;
origin = "{2, 2}";
target = "{2, 5}";
type = Align;
},
{
horizontal = 1;
origin = "{1, 2}";
target = "{1, 0}";
type = TTStem;
},
{
horizontal = 1;
origin = "{1, 0}";
target = "{1, 5}";
type = Align;
},
{
horizontal = 1;
origin = "{0, 5}";
target = "{0, 3}";
type = TTStem;
},
{
horizontal = 1;
origin = "{0, 3}";
target = "{0, 8}";
type = Align;
},
{
horizontal = 1;
origin = "{2, 4}";
target = "{2, 3}";
type = Align;
options = 4;
},
{
horizontal = 1;
origin = "{1, 6}";
target = "{1, 7}";
type = Align;
options = 4;
}
);
layerId = "0225C979-6A3F-4323-834E-E3153ADD1AE8";
name = Regular;
paths = (
{
closed = 1;
nodes = (
"25 502 LINE",
"25 445 LINE",
"83 417 LINE",
"439 85 LINE",
"381 55 LINE",
"381 0 LINE",
"607 0 LINE",
"607 55 LINE",
"547 85 LINE",
"192 417 LINE",
"250 445 LINE",
"250 502 LINE"
);
},
{
closed = 1;
nodes = (
"85 85 LINE",
"25 55 LINE",
"25 0 LINE",
"235 0 LINE",
"235 55 LINE",
"177 85 LINE",
"312 216 LINE",
"271 255 LINE"
);
},
{
closed = 1;
nodes = (
"399 502 LINE",
"399 445 LINE",
"457 417 LINE",
"319 284 LINE",
"360 246 LINE",
"549 417 LINE",
"607 445 LINE",
"607 502 LINE"
);
}
);
width = 632;
}
);
unicode = 0078;
},
{
color = 3;
glyphname = y;
lastChange = "2015-06-11 19:19:03 +0000";
layers = (
{
anchors = (
{
name = bottom;
position = "{493, 0}";
},
{
name = ogonek;
position = "{324, -75}";
},
{
name = top;
position = "{329, 502}";
}
);
background = {
paths = (
{
closed = 1;
nodes = (
"389 502 LINE",
"389 446 LINE",
"470 419 LINE",
"303 38 LINE",
"354 38 LINE",
"184 419 LINE",
"265 446 LINE",
"265 502 LINE",
"10 502 LINE",
"10 446 LINE",
"92 418 LINE",
"304 -45 LINE",
"294 22 LINE",
"223 -138 OFFCURVE",
"197 -153 OFFCURVE",
"124 -153 CURVE SMOOTH",
"101 -153 OFFCURVE",
"76 -152 OFFCURVE",
"51 -150 CURVE",
"51 -224 LINE",
"71 -224 LINE SMOOTH",
"219 -224 OFFCURVE",
"275 -185 OFFCURVE",
"324 -75 CURVE SMOOTH",
"545 418 LINE",
"627 446 LINE",
"627 502 LINE"
);
}
);
};
hints = (
{
horizontal = 1;
origin = "{0, 6}";
target = "{0, 8}";
type = TTStem;
},
{
horizontal = 1;
origin = "{0, 8}";
target = "{0, 3}";
type = Align;
},
{
horizontal = 1;
origin = "{0, 24}";
target = "{0, 1}";
type = TTStem;
},
{
horizontal = 1;
origin = "{0, 1}";
target = "{0, 21}";
type = Align;
},
{
horizontal = 1;
origin = "{0, 16}";
target = "{0, 15}";
type = TTStem;
},
{
horizontal = 1;
origin = "{0, 9}";
target = "{0, 2}";
type = TTStem;
}
);
layerId = "0225C979-6A3F-4323-834E-E3153ADD1AE8";
leftMetricsKey = "=v";
rightMetricsKey = "=v";
name = Regular;
paths = (
{
closed = 1;
nodes = (
"389 446 LINE",
"470 419 LINE",
"328 96 LINE",
"184 419 LINE",
"265 446 LINE",
"265 502 LINE",
"10 502 LINE",
"10 446 LINE",
"92 418 LINE",
"284 -1 LINE",
"220 -139 OFFCURVE",
"193 -153 OFFCURVE",
"124 -153 CURVE SMOOTH",
"101 -153 OFFCURVE",
"76 -152 OFFCURVE",
"51 -150 CURVE",
"51 -224 LINE",
"71 -224 LINE SMOOTH",
"219 -224 OFFCURVE",
"275 -185 OFFCURVE",
"324 -75 CURVE SMOOTH",
"545 418 LINE",
"627 446 LINE",
"627 502 LINE",
"389 502 LINE"
);
}
);
width = 637;
},
{
anchors = (
{
name = bottom;
position = "{94, -224}";
},
{
name = ogonek;
position = "{324, -75}";
},
{
name = top;
position = "{329, 502}";
}
);
associatedMasterId = "0225C979-6A3F-4323-834E-E3153ADD1AE8";
background = {
paths = (
{
closed = 1;
nodes = (
"389 502 LINE",
"389 446 LINE",
"470 419 LINE",
"303 38 LINE",
"354 38 LINE",
"184 419 LINE",
"265 446 LINE",
"265 502 LINE",
"10 502 LINE",
"10 446 LINE",
"92 418 LINE",
"304 -45 LINE",
"294 22 LINE",
"223 -138 OFFCURVE",
"197 -153 OFFCURVE",
"124 -153 CURVE SMOOTH",
"101 -153 OFFCURVE",
"76 -152 OFFCURVE",
"51 -150 CURVE",
"51 -224 LINE",
"71 -224 LINE SMOOTH",
"219 -224 OFFCURVE",
"275 -185 OFFCURVE",
"324 -75 CURVE SMOOTH",
"545 418 LINE",
"627 446 LINE",
"627 502 LINE"
);
}
);
};
hints = (
{
horizontal = 1;
origin = "{0, 8}";
target = "{0, 10}";
type = TTStem;
},
{
horizontal = 1;
origin = "{0, 10}";
target = "{0, 5}";
type = Align;
},
{
horizontal = 1;
origin = "{0, 0}";
target = "{0, 2}";
type = TTStem;
},
{
horizontal = 1;
origin = "{0, 2}";
target = "{0, 24}";
type = Align;
},
{
horizontal = 1;
origin = "{0, 19}";
target = "{0, 18}";
type = TTStem;
}
);
layerId = "70DBE42B-60DB-480E-A252-32FD84D0B7CA";
leftMetricsKey = "=v";
rightMetricsKey = "=v";
name = Overlaps;
paths = (
{
closed = 1;
nodes = (
"389 502 LINE",
"389 446 LINE",
"470 419 LINE",
"303 38 LINE",
"354 38 LINE",
"184 419 LINE",
"265 446 LINE",
"265 502 LINE",
"10 502 LINE",
"10 446 LINE",
"92 418 LINE",
"304 -45 LINE",
"294 22 LINE",
"223 -138 OFFCURVE",
"197 -153 OFFCURVE",
"124 -153 CURVE SMOOTH",
"101 -153 OFFCURVE",
"76 -152 OFFCURVE",
"51 -150 CURVE",
"51 -224 LINE",
"71 -224 LINE SMOOTH",
"219 -224 OFFCURVE",
"275 -185 OFFCURVE",
"324 -75 CURVE SMOOTH",
"545 418 LINE",
"627 446 LINE",
"627 502 LINE"
);
}
);
width = 637;
}
);
leftKerningGroup = v;
leftMetricsKey = v;
rightKerningGroup = v;
rightMetricsKey = v;
unicode = 0079;
},
{
color = 3;
glyphname = z;
lastChange = "2015-05-08 17:52:39 +0000";
layers = (
{
anchors = (
{
name = bottom;
position = "{292, 0}";
},
{
name = top;
position = "{290, 502}";
}
);
background = {
paths = (
{
closed = 1;
nodes = (
"53 502 LINE",
"53 347 LINE",
"105 347 LINE",
"126 432 LINE",
"431 432 LINE",
"431 442 LINE",
"50 77 LINE",
"50 0 LINE",
"533 0 LINE",
"533 155 LINE",
"481 155 LINE",
"462 70 LINE",
"145 70 LINE",
"145 60 LINE",
"526 425 LINE",
"526 502 LINE"
);
}
);
};
hints = (
{
horizontal = 1;
origin = "{0, 7}";
target = "{0, 12}";
type = TTStem;
},
{
horizontal = 1;
origin = "{0, 15}";
target = "{0, 4}";
type = TTStem;
},
{
horizontal = 1;
origin = "{0, 12}";
target = "{0, 6}";
type = Align;
},
{
horizontal = 1;
origin = "{0, 4}";
target = "{0, 14}";
type = Align;
}
);
layerId = "0225C979-6A3F-4323-834E-E3153ADD1AE8";
name = Regular;
paths = (
{
closed = 1;
nodes = (
"53 502 LINE",
"53 347 LINE",
"105 347 LINE",
"126 432 LINE",
"431 432 LINE",
"431 442 LINE",
"50 77 LINE",
"50 0 LINE",
"533 0 LINE",
"533 155 LINE",
"481 155 LINE",
"462 70 LINE",
"145 70 LINE",
"145 60 LINE",
"526 425 LINE",
"526 502 LINE"
);
}
);
width = 583;
}
);
leftKerningGroup = z;
rightKerningGroup = z;
unicode = 007A;
},
{
glyphname = f_f;
lastChange = "2015-06-03 03:26:52 +0000";
layers = (
{
associatedMasterId = "0225C979-6A3F-4323-834E-E3153ADD1AE8";
background = {
paths = (
{
closed = 1;
nodes = (
"172 722 OFFCURVE",
"114 654 OFFCURVE",
"114 522 CURVE SMOOTH",
"114 502 LINE",
"46 488 LINE",
"46 432 LINE",
"114 432 LINE",
"114 85 LINE",
"46 55 LINE",
"46 0 LINE",
"291 0 LINE",
"291 55 LINE",
"198 85 LINE",
"198 432 LINE",
"301 432 LINE",
"301 502 LINE",
"198 502 LINE",
"198 527 LINE SMOOTH",
"198 622 OFFCURVE",
"228 650 OFFCURVE",
"308 650 CURVE SMOOTH",
"329 650 OFFCURVE",
"354 648 OFFCURVE",
"368 645 CURVE",
"368 715 LINE",
"357 719 OFFCURVE",
"331 722 OFFCURVE",
"303 722 CURVE SMOOTH"
);
},
{
closed = 0;
nodes = (
"550 502 LINE",
"550 527 LINE SMOOTH",
"550 622 OFFCURVE",
"580 650 OFFCURVE",
"660 650 CURVE SMOOTH",
"681 650 OFFCURVE",
"706 648 OFFCURVE",
"720 645 CURVE",
"720 715 LINE",
"709 719 OFFCURVE",
"683 722 OFFCURVE",
"655 722 CURVE SMOOTH",
"524 722 OFFCURVE",
"466 654 OFFCURVE",
"466 522 CURVE SMOOTH",
"466 502 LINE"
);
}
);
};
hints = (
{
horizontal = 1;
origin = "{0, 51}";
target = "{0, 49}";
type = TTStem;
},
{
horizontal = 1;
origin = "{0, 7}";
target = "{0, 5}";
type = TTStem;
},
{
horizontal = 1;
origin = "{0, 49}";
target = "{0, 2}";
type = Align;
},
{
horizontal = 1;
origin = "{0, 5}";
target = "{0, 10}";
type = Align;
},
{
horizontal = 1;
origin = "{0, 45}";
target = "{0, 47}";
type = TTStem;
},
{
horizontal = 1;
origin = "{0, 47}";
target = "{0, 3}";
type = Align;
},
{
horizontal = 1;
origin = "{0, 47}";
target = "{0, 11}";
type = Align;
},
{
horizontal = 1;
origin = "{0, 45}";
target = "{0, 30}";
type = Align;
},
{
horizontal = 1;
origin = "{0, 14}";
target = "{0, 45}";
type = Align;
},
{
horizontal = 1;
origin = "{0, 41}";
target = "{0, 34}";
type = TTStem;
},
{
horizontal = 1;
origin = "{0, 25}";
target = "{0, 18}";
type = TTStem;
}
);
layerId = "ED2F6A0F-DC3D-438A-A07E-A06EAABE79F4";
name = "Ball Terminal";
paths = (
{
closed = 1;
nodes = (
"291 0 LINE",
"291 55 LINE",
"198 85 LINE",
"198 432 LINE",
"466 432 LINE",
"466 85 LINE",
"398 55 LINE",
"398 0 LINE",
"643 0 LINE",
"643 55 LINE",
"550 85 LINE",
"550 432 LINE",
"643 432 LINE",
"643 502 LINE",
"550 502 LINE",
"550 576 LINE SMOOTH",
"550 625 OFFCURVE",
"574 656 OFFCURVE",
"631 656 CURVE",
"658 597 LINE",
"710 597 OFFCURVE",
"729 616 OFFCURVE",
"729 651 CURVE SMOOTH",
"729 697 OFFCURVE",
"704 718 OFFCURVE",
"642 718 CURVE SMOOTH",
"529 718 OFFCURVE",
"466 664 OFFCURVE",
"466 550 CURVE SMOOTH",
"466 502 LINE",
"198 502 LINE",
"198 576 LINE SMOOTH",
"198 625 OFFCURVE",
"222 656 OFFCURVE",
"279 656 CURVE",
"306 597 LINE",
"358 597 OFFCURVE",
"377 616 OFFCURVE",
"377 651 CURVE SMOOTH",
"377 697 OFFCURVE",
"352 718 OFFCURVE",
"290 718 CURVE SMOOTH",
"177 718 OFFCURVE",
"114 664 OFFCURVE",
"114 550 CURVE SMOOTH",
"114 502 LINE",
"46 488 LINE",
"46 432 LINE",
"114 432 LINE",
"114 85 LINE",
"46 55 LINE",
"46 0 LINE"
);
}
);
width = 664;
},
{
background = {
anchors = (
{
name = bottom;
position = "{174, 0}";
},
{
name = top;
position = "{174, 680}";
}
);
hints = (
{
horizontal = 1;
origin = "{0, 9}";
target = "{0, 7}";
type = TTStem;
},
{
horizontal = 1;
origin = "{0, 27}";
target = "{0, 20}";
type = TTStem;
},
{
horizontal = 1;
origin = "{0, 24}";
type = Anchor;
},
{
horizontal = 1;
origin = "{0, 3}";
target = "{0, 6}";
type = TTStem;
},
{
horizontal = 1;
origin = "{0, 6}";
target = "{0, 13}";
type = Align;
},
{
horizontal = 1;
origin = "{0, 3}";
target = "{0, 16}";
type = Align;
},
{
horizontal = 1;
origin = "{0, 7}";
target = "{0, 12}";
type = Align;
}
);
paths = (
{
closed = 1;
nodes = (
"524 722 OFFCURVE",
"466 654 OFFCURVE",
"466 522 CURVE SMOOTH",
"466 502 LINE",
"398 488 LINE",
"398 432 LINE",
"466 432 LINE",
"466 85 LINE",
"398 55 LINE",
"398 0 LINE",
"643 0 LINE",
"643 55 LINE",
"550 85 LINE",
"550 432 LINE",
"653 432 LINE",
"653 502 LINE",
"550 502 LINE",
"550 527 LINE SMOOTH",
"550 622 OFFCURVE",
"580 650 OFFCURVE",
"660 650 CURVE SMOOTH",
"681 650 OFFCURVE",
"706 648 OFFCURVE",
"720 645 CURVE",
"720 715 LINE",
"709 719 OFFCURVE",
"683 722 OFFCURVE",
"655 722 CURVE SMOOTH"
);
}
);
};
hints = (
{
horizontal = 1;
origin = "{0, 36}";
target = "{0, 34}";
type = TTStem;
},
{
horizontal = 1;
origin = "{0, 34}";
target = "{0, 39}";
type = Align;
},
{
horizontal = 1;
origin = "{0, 44}";
target = "{0, 42}";
type = TTStem;
},
{
horizontal = 1;
origin = "{0, 42}";
target = "{0, 47}";
type = Align;
},
{
horizontal = 1;
origin = "{0, 30}";
target = "{0, 33}";
type = TTStem;
},
{
horizontal = 1;
origin = "{0, 15}";
target = "{0, 30}";
type = Align;
},
{
horizontal = 1;
origin = "{0, 30}";
target = "{0, 51}";
type = Align;
},
{
horizontal = 1;
origin = "{0, 33}";
target = "{0, 40}";
type = Align;
},
{
horizontal = 1;
origin = "{0, 33}";
target = "{0, 48}";
type = Align;
}
);
layerId = "0225C979-6A3F-4323-834E-E3153ADD1AE8";
name = Regular;
paths = (
{
closed = 1;
nodes = (
"550 527 LINE SMOOTH",
"550 622 OFFCURVE",
"580 650 OFFCURVE",
"660 650 CURVE SMOOTH",
"681 650 OFFCURVE",
"706 648 OFFCURVE",
"720 645 CURVE",
"720 715 LINE",
"709 719 OFFCURVE",
"683 722 OFFCURVE",
"655 722 CURVE SMOOTH",
"524 722 OFFCURVE",
"466 654 OFFCURVE",
"466 522 CURVE SMOOTH",
"466 502 LINE",
"198 502 LINE",
"198 527 LINE SMOOTH",
"198 622 OFFCURVE",
"228 650 OFFCURVE",
"308 650 CURVE SMOOTH",
"329 650 OFFCURVE",
"354 648 OFFCURVE",
"368 645 CURVE",
"368 715 LINE",
"357 719 OFFCURVE",
"331 722 OFFCURVE",
"303 722 CURVE SMOOTH",
"172 722 OFFCURVE",
"114 654 OFFCURVE",
"114 522 CURVE SMOOTH",
"114 502 LINE",
"46 488 LINE",
"46 432 LINE",
"114 432 LINE",
"114 85 LINE",
"46 55 LINE",
"46 0 LINE",
"291 0 LINE",
"291 55 LINE",
"198 85 LINE",
"198 432 LINE",
"466 432 LINE",
"466 85 LINE",
"398 55 LINE",
"398 0 LINE",
"643 0 LINE",
"643 55 LINE",
"550 85 LINE",
"550 432 LINE",
"653 432 LINE",
"653 502 LINE",
"550 502 LINE"
);
}
);
width = 700;
}
);
leftKerningGroup = f;
leftMetricsKey = f;
rightKerningGroup = f;
rightMetricsKey = f;
},
{
glyphname = f_f_i;
lastChange = "2015-06-02 19:26:56 +0000";
layers = (
{
background = {
paths = (
{
closed = 0;
nodes = (
"466 502 LINE",
"198 502 LINE"
);
},
{
closed = 1;
nodes = (
"550 527 LINE SMOOTH",
"550 622 OFFCURVE",
"591 650 OFFCURVE",
"700 650 CURVE SMOOTH",
"729 650 OFFCURVE",
"777 647 OFFCURVE",
"818 642 CURVE",
"818 712 LINE",
"784 718 OFFCURVE",
"735 722 OFFCURVE",
"695 722 CURVE SMOOTH",
"536 722 OFFCURVE",
"466 654 OFFCURVE",
"466 522 CURVE SMOOTH",
"466 502 LINE",
"198 502 LINE",
"198 527 LINE SMOOTH",
"198 622 OFFCURVE",
"228 650 OFFCURVE",
"308 650 CURVE SMOOTH",
"329 650 OFFCURVE",
"354 648 OFFCURVE",
"368 645 CURVE",
"368 715 LINE",
"357 719 OFFCURVE",
"331 722 OFFCURVE",
"303 722 CURVE SMOOTH",
"172 722 OFFCURVE",
"114 654 OFFCURVE",
"114 522 CURVE SMOOTH",
"114 502 LINE",
"46 488 LINE",
"46 432 LINE",
"114 432 LINE",
"114 85 LINE",
"46 55 LINE",
"46 0 LINE",
"291 0 LINE",
"291 55 LINE",
"198 85 LINE",
"198 432 LINE",
"466 432 LINE",
"466 85 LINE",
"398 55 LINE",
"398 0 LINE",
"643 0 LINE",
"643 55 LINE",
"550 85 LINE",
"550 432 LINE",
"818 432 LINE",
"818 85 LINE",
"750 55 LINE",
"750 0 LINE",
"995 0 LINE",
"995 55 LINE",
"902 85 LINE",
"902 502 LINE",
"550 502 LINE"
);
}
);
};
hints = (
{
horizontal = 1;
origin = "{0, 26}";
target = "{0, 19}";
type = TTStem;
},
{
horizontal = 1;
origin = "{0, 10}";
target = "{0, 3}";
type = TTStem;
},
{
horizontal = 1;
origin = "{0, 30}";
target = "{0, 33}";
type = TTStem;
},
{
horizontal = 1;
origin = "{0, 15}";
target = "{0, 30}";
type = Align;
},
{
horizontal = 1;
origin = "{0, 30}";
target = "{0, 57}";
type = Align;
},
{
horizontal = 1;
origin = "{0, 33}";
target = "{0, 40}";
type = Align;
},
{
horizontal = 1;
origin = "{0, 33}";
target = "{0, 48}";
type = Align;
},
{
horizontal = 1;
origin = "{0, 36}";
target = "{0, 34}";
type = TTStem;
},
{
horizontal = 1;
origin = "{0, 44}";
target = "{0, 42}";
type = TTStem;
},
{
horizontal = 1;
origin = "{0, 52}";
target = "{0, 50}";
type = TTStem;
},
{
horizontal = 1;
origin = "{0, 34}";
target = "{0, 39}";
type = Align;
},
{
horizontal = 1;
origin = "{0, 42}";
target = "{0, 47}";
type = Align;
},
{
horizontal = 1;
origin = "{0, 50}";
target = "{0, 55}";
type = Align;
}
);
layerId = "0225C979-6A3F-4323-834E-E3153ADD1AE8";
name = Regular;
paths = (
{
closed = 1;
nodes = (
"550 527 LINE SMOOTH",
"550 621 OFFCURVE",
"585 650 OFFCURVE",
"700 650 CURVE SMOOTH",
"740 650 OFFCURVE",
"768 648 OFFCURVE",
"818 640 CURVE",
"818 710 LINE",
"780 719 OFFCURVE",
"740 722 OFFCURVE",
"695 722 CURVE SMOOTH",
"540 722 OFFCURVE",
"466 658 OFFCURVE",
"466 522 CURVE SMOOTH",
"466 502 LINE",
"198 502 LINE",
"198 527 LINE SMOOTH",
"198 622 OFFCURVE",
"228 650 OFFCURVE",
"308 650 CURVE SMOOTH",
"329 650 OFFCURVE",
"354 648 OFFCURVE",
"368 645 CURVE",
"368 715 LINE",
"357 719 OFFCURVE",
"331 722 OFFCURVE",
"303 722 CURVE SMOOTH",
"172 722 OFFCURVE",
"114 654 OFFCURVE",
"114 522 CURVE SMOOTH",
"114 502 LINE",
"46 488 LINE",
"46 432 LINE",
"114 432 LINE",
"114 85 LINE",
"46 55 LINE",
"46 0 LINE",
"291 0 LINE",
"291 55 LINE",
"198 85 LINE",
"198 432 LINE",
"466 432 LINE",
"466 85 LINE",
"398 55 LINE",
"398 0 LINE",
"643 0 LINE",
"643 55 LINE",
"550 85 LINE",
"550 432 LINE",
"818 432 LINE",
"818 85 LINE",
"750 55 LINE",
"750 0 LINE",
"995 0 LINE",
"995 55 LINE",
"902 85 LINE",
"902 502 LINE",
"550 502 LINE"
);
}
);
width = 1030;
},
{
associatedMasterId = "0225C979-6A3F-4323-834E-E3153ADD1AE8";
background = {
paths = (
{
closed = 1;
nodes = (
"550 527 LINE SMOOTH",
"550 622 OFFCURVE",
"580 650 OFFCURVE",
"660 650 CURVE SMOOTH",
"681 650 OFFCURVE",
"706 648 OFFCURVE",
"720 645 CURVE",
"720 715 LINE",
"709 719 OFFCURVE",
"683 722 OFFCURVE",
"655 722 CURVE SMOOTH",
"524 722 OFFCURVE",
"466 654 OFFCURVE",
"466 522 CURVE SMOOTH",
"466 502 LINE",
"198 502 LINE",
"198 527 LINE SMOOTH",
"198 622 OFFCURVE",
"228 650 OFFCURVE",
"308 650 CURVE SMOOTH",
"329 650 OFFCURVE",
"354 648 OFFCURVE",
"368 645 CURVE",
"368 715 LINE",
"357 719 OFFCURVE",
"331 722 OFFCURVE",
"303 722 CURVE SMOOTH",
"172 722 OFFCURVE",
"114 654 OFFCURVE",
"114 522 CURVE SMOOTH",
"114 502 LINE",
"46 488 LINE",
"46 432 LINE",
"114 432 LINE",
"114 85 LINE",
"46 55 LINE",
"46 0 LINE",
"291 0 LINE",
"291 55 LINE",
"198 85 LINE",
"198 432 LINE",
"466 432 LINE",
"466 85 LINE",
"398 55 LINE",
"398 0 LINE",
"643 0 LINE",
"643 55 LINE",
"550 85 LINE",
"550 432 LINE",
"643 432 LINE",
"643 502 LINE",
"550 502 LINE"
);
}
);
};
guideLines = (
{
angle = 90;
position = "{818, 536}";
}
);
hints = (
{
horizontal = 1;
origin = "{0, 54}";
target = "{0, 56}";
type = Align;
},
{
horizontal = 1;
origin = "{0, 56}";
target = "{0, 3}";
type = Align;
},
{
horizontal = 1;
origin = "{0, 56}";
target = "{0, 11}";
type = Align;
},
{
horizontal = 1;
origin = "{0, 39}";
target = "{0, 54}";
type = Align;
},
{
horizontal = 1;
origin = "{0, 54}";
target = "{0, 20}";
type = Align;
},
{
horizontal = 1;
origin = "{0, 50}";
target = "{0, 43}";
type = TTStem;
},
{
horizontal = 1;
origin = "{0, 34}";
target = "{0, 24}";
type = Align;
},
{
horizontal = 1;
origin = "{0, 60}";
target = "{0, 58}";
type = TTStem;
},
{
horizontal = 1;
origin = "{0, 58}";
target = "{0, 2}";
type = Align;
},
{
horizontal = 1;
origin = "{0, 7}";
target = "{0, 5}";
type = TTStem;
},
{
horizontal = 1;
origin = "{0, 5}";
target = "{0, 10}";
type = Align;
},
{
horizontal = 1;
origin = "{0, 15}";
target = "{0, 13}";
type = TTStem;
},
{
horizontal = 1;
origin = "{0, 13}";
target = "{0, 18}";
type = Align;
}
);
layerId = "47ABA225-F485-4C0E-87BF-7D6CD086C3E9";
name = "Ball Terminal";
paths = (
{
closed = 0;
nodes = (
"550 502 LINE",
"550 536 LINE SMOOTH",
"550 628 OFFCURVE",
"578 656 OFFCURVE",
"670 656 CURVE SMOOTH",
"692 656 OFFCURVE",
"703 655 OFFCURVE",
"720 651 CURVE",
"747 592 LINE",
"799 592 OFFCURVE",
"818 611 OFFCURVE",
"818 646 CURVE SMOOTH",
"818 690 OFFCURVE",
"774 718 OFFCURVE",
"680 718 CURVE SMOOTH",
"525 718 OFFCURVE",
"466 663 OFFCURVE",
"466 517 CURVE SMOOTH",
"466 502 LINE",
"198 502 LINE",
"198 576 LINE SMOOTH",
"198 625 OFFCURVE",
"222 656 OFFCURVE",
"279 656 CURVE",
"306 597 LINE",
"358 597 OFFCURVE",
"377 616 OFFCURVE",
"377 651 CURVE SMOOTH",
"377 697 OFFCURVE",
"352 718 OFFCURVE",
"290 718 CURVE SMOOTH",
"177 718 OFFCURVE",
"114 664 OFFCURVE",
"114 550 CURVE SMOOTH",
"114 502 LINE",
"46 488 LINE",
"46 432 LINE",
"114 432 LINE",
"114 85 LINE",
"46 55 LINE",
"46 0 LINE",
"291 0 LINE",
"291 55 LINE",
"198 85 LINE",
"198 432 LINE",
"466 432 LINE",
"466 85 LINE",
"398 55 LINE",
"398 0 LINE",
"643 0 LINE",
"643 55 LINE",
"550 85 LINE",
"550 432 LINE",
"818 432 LINE",
"818 85 LINE",
"750 55 LINE",
"750 0 LINE",
"995 0 LINE",
"995 55 LINE",
"902 85 LINE",
"902 502 LINE",
"550 502 LINE"
);
}
);
width = 1030;
}
);
leftKerningGroup = f;
leftMetricsKey = f;
rightKerningGroup = l;
rightMetricsKey = i;
},
{
glyphname = f_f_l;
lastChange = "2015-06-03 03:22:17 +0000";
layers = (
{
background = {
paths = (
{
closed = 1;
nodes = (
"550 527 LINE SMOOTH",
"550 622 OFFCURVE",
"580 650 OFFCURVE",
"660 650 CURVE SMOOTH",
"681 650 OFFCURVE",
"706 648 OFFCURVE",
"720 645 CURVE",
"720 715 LINE",
"709 719 OFFCURVE",
"683 722 OFFCURVE",
"655 722 CURVE SMOOTH",
"524 722 OFFCURVE",
"466 654 OFFCURVE",
"466 522 CURVE SMOOTH",
"466 502 LINE",
"198 502 LINE",
"198 527 LINE SMOOTH",
"198 622 OFFCURVE",
"228 650 OFFCURVE",
"308 650 CURVE SMOOTH",
"329 650 OFFCURVE",
"354 648 OFFCURVE",
"368 645 CURVE",
"368 715 LINE",
"357 719 OFFCURVE",
"331 722 OFFCURVE",
"303 722 CURVE SMOOTH",
"172 722 OFFCURVE",
"114 654 OFFCURVE",
"114 522 CURVE SMOOTH",
"114 502 LINE",
"46 488 LINE",
"46 432 LINE",
"114 432 LINE",
"114 85 LINE",
"46 55 LINE",
"46 0 LINE",
"291 0 LINE",
"291 55 LINE",
"198 85 LINE",
"198 432 LINE",
"466 432 LINE",
"466 85 LINE",
"398 55 LINE",
"398 0 LINE",
"643 0 LINE",
"643 55 LINE",
"550 85 LINE",
"550 432 LINE",
"653 432 LINE",
"653 502 LINE",
"550 502 LINE"
);
}
);
};
hints = (
{
horizontal = 1;
origin = "{0, 20}";
target = "{0, 18}";
type = TTStem;
},
{
horizontal = 1;
origin = "{0, 28}";
target = "{0, 26}";
type = TTStem;
},
{
horizontal = 1;
origin = "{0, 45}";
target = "{0, 43}";
type = TTStem;
},
{
horizontal = 1;
origin = "{0, 43}";
target = "{0, 48}";
type = Align;
},
{
horizontal = 1;
origin = "{0, 26}";
target = "{0, 31}";
type = Align;
},
{
horizontal = 1;
origin = "{0, 18}";
target = "{0, 23}";
type = Align;
},
{
horizontal = 1;
origin = "{0, 52}";
target = "{0, 39}";
type = TTStem;
},
{
horizontal = 1;
origin = "{0, 10}";
target = "{0, 3}";
type = TTStem;
},
{
horizontal = 1;
origin = "{0, 14}";
target = "{0, 17}";
type = TTStem;
},
{
horizontal = 1;
origin = "{0, 17}";
target = "{0, 24}";
type = Align;
},
{
horizontal = 1;
origin = "{0, 17}";
target = "{0, 32}";
type = Align;
},
{
horizontal = 1;
origin = "{0, 14}";
target = "{0, 57}";
type = Align;
},
{
horizontal = 1;
origin = "{0, 14}";
target = "{0, 35}";
type = Align;
}
);
layerId = "0225C979-6A3F-4323-834E-E3153ADD1AE8";
name = Regular;
paths = (
{
closed = 1;
nodes = (
"198 527 LINE SMOOTH",
"198 622 OFFCURVE",
"228 650 OFFCURVE",
"308 650 CURVE SMOOTH",
"329 650 OFFCURVE",
"354 648 OFFCURVE",
"368 645 CURVE",
"368 715 LINE",
"357 719 OFFCURVE",
"331 722 OFFCURVE",
"303 722 CURVE SMOOTH",
"172 722 OFFCURVE",
"114 654 OFFCURVE",
"114 522 CURVE SMOOTH",
"114 502 LINE",
"46 488 LINE",
"46 432 LINE",
"114 432 LINE",
"114 85 LINE",
"46 55 LINE",
"46 0 LINE",
"291 0 LINE",
"291 55 LINE",
"198 85 LINE",
"198 432 LINE",
"466 432 LINE",
"466 85 LINE",
"398 55 LINE",
"398 0 LINE",
"643 0 LINE",
"643 55 LINE",
"550 85 LINE",
"550 432 LINE",
"658 432 LINE",
"658 502 LINE",
"550 502 LINE",
"550 527 LINE SMOOTH",
"550 621 OFFCURVE",
"585 650 OFFCURVE",
"700 650 CURVE SMOOTH",
"743 650 OFFCURVE",
"769 648 OFFCURVE",
"808 641 CURVE",
"808 85 LINE",
"740 55 LINE",
"740 0 LINE",
"960 0 LINE",
"960 55 LINE",
"892 85 LINE",
"892 702 LINE",
"830 716 OFFCURVE",
"770 722 OFFCURVE",
"705 722 CURVE SMOOTH",
"543 722 OFFCURVE",
"466 658 OFFCURVE",
"466 522 CURVE SMOOTH",
"466 502 LINE",
"198 502 LINE"
);
}
);
width = 995;
},
{
associatedMasterId = "0225C979-6A3F-4323-834E-E3153ADD1AE8";
background = {
paths = (
{
closed = 1;
nodes = (
"291 0 LINE",
"291 55 LINE",
"198 85 LINE",
"198 432 LINE",
"466 432 LINE",
"466 85 LINE",
"398 55 LINE",
"398 0 LINE",
"643 0 LINE",
"643 55 LINE",
"550 85 LINE",
"550 432 LINE",
"658 432 LINE",
"658 502 LINE",
"550 502 LINE",
"550 531 LINE SMOOTH",
"550 627 OFFCURVE",
"577 656 OFFCURVE",
"665 656 CURVE SMOOTH",
"684 656 OFFCURVE",
"694 655 OFFCURVE",
"709 651 CURVE",
"736 592 LINE",
"779 592 OFFCURVE",
"804 605 OFFCURVE",
"808 641 CURVE",
"808 85 LINE",
"740 55 LINE",
"740 0 LINE",
"960 0 LINE",
"960 55 LINE",
"892 85 LINE",
"892 710 LINE",
"749 710 LINE",
"729 715 OFFCURVE",
"705 718 OFFCURVE",
"675 718 CURVE SMOOTH",
"523 718 OFFCURVE",
"466 662 OFFCURVE",
"466 512 CURVE SMOOTH",
"466 502 LINE",
"198 502 LINE",
"198 576 LINE SMOOTH",
"198 625 OFFCURVE",
"222 656 OFFCURVE",
"279 656 CURVE",
"306 597 LINE",
"358 597 OFFCURVE",
"377 616 OFFCURVE",
"377 651 CURVE SMOOTH",
"377 697 OFFCURVE",
"352 718 OFFCURVE",
"290 718 CURVE SMOOTH",
"177 718 OFFCURVE",
"114 664 OFFCURVE",
"114 550 CURVE SMOOTH",
"114 502 LINE",
"46 488 LINE",
"46 432 LINE",
"114 432 LINE",
"114 85 LINE",
"46 55 LINE",
"46 0 LINE"
);
}
);
};
hints = (
{
horizontal = 1;
origin = "{0, 62}";
target = "{0, 60}";
type = TTStem;
},
{
horizontal = 1;
origin = "{0, 7}";
target = "{0, 5}";
type = TTStem;
},
{
horizontal = 1;
origin = "{0, 28}";
target = "{0, 26}";
type = TTStem;
},
{
horizontal = 1;
origin = "{0, 26}";
target = "{0, 31}";
type = Align;
},
{
horizontal = 1;
origin = "{0, 5}";
target = "{0, 10}";
type = Align;
},
{
horizontal = 1;
origin = "{0, 60}";
target = "{0, 2}";
type = Align;
},
{
horizontal = 1;
origin = "{0, 56}";
target = "{0, 58}";
type = TTStem;
},
{
horizontal = 1;
origin = "{0, 41}";
target = "{0, 56}";
type = Align;
},
{
horizontal = 1;
origin = "{0, 58}";
target = "{0, 3}";
type = Align;
},
{
horizontal = 1;
origin = "{0, 58}";
target = "{0, 11}";
type = Align;
},
{
horizontal = 1;
origin = "{0, 56}";
target = "{0, 14}";
type = Align;
},
{
horizontal = 1;
origin = "{0, 52}";
target = "{0, 45}";
type = TTStem;
},
{
horizontal = 1;
origin = "{0, 36}";
target = "{0, 18}";
type = TTStem;
},
{
horizontal = 1;
origin = "{0, 32}";
target = "{0, 25}";
type = TTStem;
}
);
layerId = "4C01C78F-9BA4-4617-9B79-BEBC900E2078";
name = "Ball Terminal";
paths = (
{
closed = 1;
nodes = (
"291 0 LINE",
"291 55 LINE",
"198 85 LINE",
"198 432 LINE",
"466 432 LINE",
"466 85 LINE",
"398 55 LINE",
"398 0 LINE",
"643 0 LINE",
"643 55 LINE",
"550 85 LINE",
"550 432 LINE",
"658 432 LINE",
"658 502 LINE",
"550 502 LINE",
"550 531 LINE SMOOTH",
"550 627 OFFCURVE",
"577 656 OFFCURVE",
"665 656 CURVE SMOOTH",
"684 656 OFFCURVE",
"694 655 OFFCURVE",
"709 651 CURVE",
"736 592 LINE",
"779 592 OFFCURVE",
"804 605 OFFCURVE",
"808 641 CURVE",
"808 85 LINE",
"740 55 LINE",
"740 0 LINE",
"960 0 LINE",
"960 55 LINE",
"892 85 LINE",
"892 710 LINE",
"749 710 LINE",
"729 715 OFFCURVE",
"705 718 OFFCURVE",
"675 718 CURVE SMOOTH",
"523 718 OFFCURVE",
"466 662 OFFCURVE",
"466 512 CURVE SMOOTH",
"466 502 LINE",
"198 502 LINE",
"198 576 LINE SMOOTH",
"198 625 OFFCURVE",
"222 656 OFFCURVE",
"279 656 CURVE",
"306 597 LINE",
"358 597 OFFCURVE",
"377 616 OFFCURVE",
"377 651 CURVE SMOOTH",
"377 697 OFFCURVE",
"352 718 OFFCURVE",
"290 718 CURVE SMOOTH",
"177 718 OFFCURVE",
"114 664 OFFCURVE",
"114 550 CURVE SMOOTH",
"114 502 LINE",
"46 488 LINE",
"46 432 LINE",
"114 432 LINE",
"114 85 LINE",
"46 55 LINE",
"46 0 LINE"
);
}
);
width = 995;
}
);
leftKerningGroup = f;
leftMetricsKey = f;
rightKerningGroup = l;
rightMetricsKey = l;
},
{
glyphname = f_i;
lastChange = "2015-06-03 03:24:59 +0000";
layers = (
{
background = {
guideLines = (
{
angle = 114.59;
position = "{306, 597}";
}
);
paths = (
{
closed = 1;
nodes = (
"550 527 LINE SMOOTH",
"550 622 OFFCURVE",
"580 650 OFFCURVE",
"660 650 CURVE SMOOTH",
"681 650 OFFCURVE",
"706 648 OFFCURVE",
"720 645 CURVE",
"720 715 LINE",
"709 719 OFFCURVE",
"683 722 OFFCURVE",
"655 722 CURVE SMOOTH",
"524 722 OFFCURVE",
"466 654 OFFCURVE",
"466 522 CURVE SMOOTH",
"466 502 LINE",
"198 502 LINE",
"198 527 LINE SMOOTH",
"198 622 OFFCURVE",
"228 650 OFFCURVE",
"308 650 CURVE SMOOTH",
"329 650 OFFCURVE",
"354 648 OFFCURVE",
"368 645 CURVE",
"368 715 LINE",
"357 719 OFFCURVE",
"331 722 OFFCURVE",
"303 722 CURVE SMOOTH",
"172 722 OFFCURVE",
"114 654 OFFCURVE",
"114 522 CURVE SMOOTH",
"114 502 LINE",
"46 488 LINE",
"46 432 LINE",
"114 432 LINE",
"114 85 LINE",
"46 55 LINE",
"46 0 LINE",
"291 0 LINE",
"291 55 LINE",
"198 85 LINE",
"198 432 LINE",
"466 432 LINE",
"466 85 LINE",
"398 55 LINE",
"398 0 LINE",
"643 0 LINE",
"643 55 LINE",
"550 85 LINE",
"550 432 LINE",
"643 432 LINE",
"643 502 LINE",
"550 502 LINE"
);
}
);
};
hints = (
{
horizontal = 1;
origin = "{0, 12}";
target = "{0, 14}";
type = TTStem;
},
{
horizontal = 1;
origin = "{0, 14}";
target = "{0, 9}";
type = Align;
},
{
horizontal = 1;
origin = "{0, 4}";
target = "{0, 6}";
type = TTStem;
},
{
horizontal = 1;
origin = "{0, 6}";
target = "{0, 1}";
type = Align;
},
{
horizontal = 1;
origin = "{0, 18}";
target = "{0, 15}";
type = TTStem;
},
{
horizontal = 1;
origin = "{0, 15}";
target = "{0, 8}";
type = Align;
},
{
horizontal = 1;
origin = "{0, 18}";
target = "{0, 33}";
type = Align;
},
{
horizontal = 1;
origin = "{0, 22}";
target = "{0, 29}";
type = TTStem;
}
);
layerId = "0225C979-6A3F-4323-834E-E3153ADD1AE8";
name = Regular;
paths = (
{
closed = 1;
nodes = (
"550 502 LINE",
"550 85 LINE",
"653 55 LINE",
"653 0 LINE",
"398 0 LINE",
"398 55 LINE",
"466 85 LINE",
"466 432 LINE",
"198 432 LINE",
"198 85 LINE",
"291 55 LINE",
"291 0 LINE",
"46 0 LINE",
"46 55 LINE",
"114 85 LINE",
"114 432 LINE",
"46 432 LINE",
"46 488 LINE",
"114 502 LINE",
"114 522 LINE SMOOTH",
"114 658 OFFCURVE",
"188 722 OFFCURVE",
"343 722 CURVE SMOOTH",
"388 722 OFFCURVE",
"428 719 OFFCURVE",
"466 710 CURVE",
"466 640 LINE",
"416 648 OFFCURVE",
"388 650 OFFCURVE",
"348 650 CURVE SMOOTH",
"233 650 OFFCURVE",
"198 621 OFFCURVE",
"198 527 CURVE SMOOTH",
"198 502 LINE"
);
}
);
width = 688;
},
{
associatedMasterId = "0225C979-6A3F-4323-834E-E3153ADD1AE8";
background = {
guideLines = (
{
angle = 114.59;
position = "{306, 597}";
}
);
hints = (
{
horizontal = 1;
place = "{0.000000, 0.000000}";
type = TTStem;
},
{
horizontal = 1;
place = "{0.000000, 0.000000}";
type = TTStem;
},
{
horizontal = 1;
place = "{0.000000, 0.000000}";
type = Align;
},
{
horizontal = 1;
place = "{0.000000, 0.000000}";
type = Align;
},
{
horizontal = 1;
place = "{0.000000, 0.000000}";
type = TTStem;
},
{
horizontal = 1;
place = "{0.000000, 0.000000}";
type = Align;
},
{
horizontal = 1;
place = "{0.000000, 85.000000}";
type = TTStem;
},
{
horizontal = 1;
place = "{0.000000, 502.000000}";
type = Align;
}
);
paths = (
{
closed = 1;
nodes = (
"550 502 LINE",
"550 85 LINE",
"653 55 LINE",
"653 0 LINE",
"398 0 LINE",
"398 55 LINE",
"466 85 LINE",
"466 432 LINE",
"198 432 LINE",
"198 85 LINE",
"291 55 LINE",
"291 0 LINE",
"46 0 LINE",
"46 55 LINE",
"114 85 LINE",
"114 432 LINE",
"46 432 LINE",
"46 488 LINE",
"114 502 LINE",
"114 522 LINE SMOOTH",
"114 658 OFFCURVE",
"188 722 OFFCURVE",
"343 722 CURVE SMOOTH",
"388 722 OFFCURVE",
"428 719 OFFCURVE",
"466 710 CURVE",
"466 640 LINE",
"416 648 OFFCURVE",
"388 650 OFFCURVE",
"348 650 CURVE SMOOTH",
"233 650 OFFCURVE",
"198 621 OFFCURVE",
"198 527 CURVE SMOOTH",
"198 502 LINE"
);
}
);
};
layerId = "FD29F5A9-3214-47DF-BB7B-DC35971D6F13";
name = "Ball Terminal";
paths = (
{
closed = 1;
nodes = (
"291 0 LINE",
"291 55 LINE",
"198 85 LINE",
"198 432 LINE",
"466 432 LINE",
"466 85 LINE",
"398 55 LINE",
"398 0 LINE",
"653 0 LINE",
"653 55 LINE",
"550 85 LINE",
"550 502 LINE",
"198 502 LINE",
"198 531 LINE SMOOTH",
"198 627 OFFCURVE",
"226 656 OFFCURVE",
"318 656 CURVE SMOOTH",
"340 656 OFFCURVE",
"351 655 OFFCURVE",
"368 651 CURVE",
"395 592 LINE",
"447 592 OFFCURVE",
"466 611 OFFCURVE",
"466 646 CURVE SMOOTH",
"466 690 OFFCURVE",
"422 718 OFFCURVE",
"328 718 CURVE SMOOTH",
"173 718 OFFCURVE",
"114 662 OFFCURVE",
"114 512 CURVE SMOOTH",
"114 502 LINE",
"46 488 LINE",
"46 432 LINE",
"114 432 LINE",
"114 85 LINE",
"46 55 LINE",
"46 0 LINE"
);
}
);
width = 688;
}
);
leftKerningGroup = f;
leftMetricsKey = f;
rightKerningGroup = l;
rightMetricsKey = i;
},
{
glyphname = f_j;
lastChange = "2015-06-03 03:25:40 +0000";
layers = (
{
background = {
paths = (
{
closed = 1;
nodes = (
"474 -224 OFFCURVE",
"540 -176 OFFCURVE",
"540 -66 CURVE SMOOTH",
"540 502 LINE",
"198 502 LINE",
"198 531 LINE SMOOTH",
"198 627 OFFCURVE",
"226 656 OFFCURVE",
"318 656 CURVE SMOOTH",
"340 656 OFFCURVE",
"351 655 OFFCURVE",
"368 651 CURVE",
"395 592 LINE",
"447 592 OFFCURVE",
"466 611 OFFCURVE",
"466 646 CURVE SMOOTH",
"466 690 OFFCURVE",
"422 718 OFFCURVE",
"328 718 CURVE SMOOTH",
"173 718 OFFCURVE",
"114 662 OFFCURVE",
"114 512 CURVE SMOOTH",
"114 502 LINE",
"46 488 LINE",
"46 432 LINE",
"114 432 LINE",
"114 85 LINE",
"46 55 LINE",
"46 0 LINE",
"291 0 LINE",
"291 55 LINE",
"198 85 LINE",
"198 432 LINE",
"456 432 LINE",
"456 -82 LINE SMOOTH",
"456 -130 OFFCURVE",
"433 -154 OFFCURVE",
"386 -154 CURVE",
"362 -103 LINE",
"309 -103 OFFCURVE",
"291 -122 OFFCURVE",
"291 -159 CURVE SMOOTH",
"291 -203 OFFCURVE",
"317 -224 OFFCURVE",
"380 -224 CURVE SMOOTH"
);
}
);
};
hints = (
{
horizontal = 1;
origin = "{0, 3}";
target = "{0, 10}";
type = TTStem;
},
{
horizontal = 1;
origin = "{0, 19}";
target = "{0, 21}";
type = TTStem;
},
{
horizontal = 1;
origin = "{0, 21}";
target = "{0, 16}";
type = Align;
},
{
horizontal = 1;
origin = "{0, 25}";
target = "{0, 22}";
type = TTStem;
},
{
horizontal = 1;
origin = "{0, 25}";
target = "{0, 40}";
type = Align;
},
{
horizontal = 1;
origin = "{0, 22}";
target = "{0, 15}";
type = Align;
},
{
horizontal = 1;
origin = "{0, 29}";
target = "{0, 36}";
type = TTStem;
}
);
layerId = "0225C979-6A3F-4323-834E-E3153ADD1AE8";
name = Regular;
paths = (
{
closed = 1;
nodes = (
"550 -66 LINE SMOOTH",
"550 -176 OFFCURVE",
"484 -224 OFFCURVE",
"390 -224 CURVE SMOOTH",
"327 -224 OFFCURVE",
"301 -203 OFFCURVE",
"301 -159 CURVE SMOOTH",
"301 -122 OFFCURVE",
"319 -103 OFFCURVE",
"372 -103 CURVE",
"396 -154 LINE",
"443 -154 OFFCURVE",
"466 -130 OFFCURVE",
"466 -82 CURVE SMOOTH",
"466 432 LINE",
"198 432 LINE",
"198 85 LINE",
"291 55 LINE",
"291 0 LINE",
"46 0 LINE",
"46 55 LINE",
"114 85 LINE",
"114 432 LINE",
"46 432 LINE",
"46 488 LINE",
"114 502 LINE",
"114 522 LINE SMOOTH",
"114 658 OFFCURVE",
"188 722 OFFCURVE",
"343 722 CURVE SMOOTH",
"388 722 OFFCURVE",
"428 719 OFFCURVE",
"466 710 CURVE",
"466 640 LINE",
"416 648 OFFCURVE",
"388 650 OFFCURVE",
"348 650 CURVE SMOOTH",
"233 650 OFFCURVE",
"198 621 OFFCURVE",
"198 527 CURVE SMOOTH",
"198 502 LINE",
"550 502 LINE"
);
}
);
width = 625;
},
{
associatedMasterId = "0225C979-6A3F-4323-834E-E3153ADD1AE8";
background = {
paths = (
{
closed = 1;
nodes = (
"474 -224 OFFCURVE",
"540 -176 OFFCURVE",
"540 -66 CURVE SMOOTH",
"540 502 LINE",
"198 502 LINE",
"198 531 LINE SMOOTH",
"198 627 OFFCURVE",
"226 656 OFFCURVE",
"318 656 CURVE SMOOTH",
"340 656 OFFCURVE",
"351 655 OFFCURVE",
"368 651 CURVE",
"395 592 LINE",
"447 592 OFFCURVE",
"466 611 OFFCURVE",
"466 646 CURVE SMOOTH",
"466 690 OFFCURVE",
"422 718 OFFCURVE",
"328 718 CURVE SMOOTH",
"173 718 OFFCURVE",
"114 662 OFFCURVE",
"114 512 CURVE SMOOTH",
"114 502 LINE",
"46 488 LINE",
"46 432 LINE",
"114 432 LINE",
"114 85 LINE",
"46 55 LINE",
"46 0 LINE",
"291 0 LINE",
"291 55 LINE",
"198 85 LINE",
"198 432 LINE",
"456 432 LINE",
"456 -82 LINE SMOOTH",
"456 -130 OFFCURVE",
"433 -154 OFFCURVE",
"386 -154 CURVE",
"362 -103 LINE",
"309 -103 OFFCURVE",
"291 -122 OFFCURVE",
"291 -159 CURVE SMOOTH",
"291 -203 OFFCURVE",
"317 -224 OFFCURVE",
"380 -224 CURVE SMOOTH"
);
}
);
};
hints = (
{
horizontal = 1;
origin = "{0, 26}";
type = TTStem;
},
{
horizontal = 1;
origin = "{0, 20}";
target = "{0, 20}";
type = TTStem;
},
{
horizontal = 1;
place = "{0.000000, 0.000000}";
type = Align;
},
{
horizontal = 1;
origin = "{0, 20}";
target = "{0, 20}";
type = Align;
},
{
horizontal = 1;
origin = "{0, 20}";
target = "{0, 20}";
type = TTStem;
},
{
horizontal = 1;
origin = "{0, 20}";
target = "{0, 20}";
type = Align;
},
{
horizontal = 1;
origin = "{0, 20}";
target = "{0, 20}";
type = TTStem;
}
);
layerId = "B4E159C8-FB44-46F5-95AE-99A01989DFD2";
name = "Ball Terminal";
paths = (
{
closed = 1;
nodes = (
"540 502 LINE",
"540 -66 LINE SMOOTH",
"540 -176 OFFCURVE",
"474 -224 OFFCURVE",
"380 -224 CURVE SMOOTH",
"317 -224 OFFCURVE",
"291 -203 OFFCURVE",
"291 -159 CURVE SMOOTH",
"291 -122 OFFCURVE",
"309 -103 OFFCURVE",
"362 -103 CURVE",
"386 -154 LINE",
"433 -154 OFFCURVE",
"456 -130 OFFCURVE",
"456 -82 CURVE SMOOTH",
"456 432 LINE",
"198 432 LINE",
"198 85 LINE",
"291 55 LINE",
"291 0 LINE",
"46 0 LINE",
"46 55 LINE",
"114 85 LINE",
"114 432 LINE",
"46 432 LINE",
"46 488 LINE",
"114 502 LINE",
"114 522 LINE SMOOTH",
"114 658 OFFCURVE",
"188 722 OFFCURVE",
"343 722 CURVE SMOOTH",
"388 722 OFFCURVE",
"428 719 OFFCURVE",
"466 710 CURVE",
"466 640 LINE",
"416 648 OFFCURVE",
"388 650 OFFCURVE",
"348 650 CURVE SMOOTH",
"233 650 OFFCURVE",
"198 621 OFFCURVE",
"198 527 CURVE SMOOTH",
"198 502 LINE"
);
}
);
width = 615;
}
);
leftKerningGroup = f;
leftMetricsKey = f;
rightMetricsKey = j;
},
{
glyphname = f_l;
lastChange = "2015-06-03 03:26:13 +0000";
layers = (
{
hints = (
{
horizontal = 1;
origin = "{0, 12}";
target = "{0, 10}";
type = TTStem;
},
{
horizontal = 1;
origin = "{0, 10}";
target = "{0, 15}";
type = Align;
},
{
horizontal = 1;
origin = "{0, 29}";
target = "{0, 27}";
type = TTStem;
},
{
horizontal = 1;
origin = "{0, 27}";
target = "{0, 32}";
type = Align;
},
{
horizontal = 1;
origin = "{0, 6}";
target = "{0, 9}";
type = TTStem;
},
{
horizontal = 1;
origin = "{0, 6}";
target = "{0, 19}";
type = Align;
},
{
horizontal = 1;
origin = "{0, 9}";
target = "{0, 16}";
type = Align;
},
{
horizontal = 1;
origin = "{0, 2}";
target = "{0, 23}";
type = TTStem;
}
);
layerId = "0225C979-6A3F-4323-834E-E3153ADD1AE8";
name = Regular;
paths = (
{
closed = 1;
nodes = (
"478 716 OFFCURVE",
"418 722 OFFCURVE",
"353 722 CURVE SMOOTH",
"191 722 OFFCURVE",
"114 658 OFFCURVE",
"114 522 CURVE SMOOTH",
"114 502 LINE",
"46 488 LINE",
"46 432 LINE",
"114 432 LINE",
"114 85 LINE",
"46 55 LINE",
"46 0 LINE",
"291 0 LINE",
"291 55 LINE",
"198 85 LINE",
"198 432 LINE",
"306 432 LINE",
"306 502 LINE",
"198 502 LINE",
"198 527 LINE SMOOTH",
"198 621 OFFCURVE",
"233 650 OFFCURVE",
"348 650 CURVE SMOOTH",
"391 650 OFFCURVE",
"417 648 OFFCURVE",
"456 641 CURVE",
"456 85 LINE",
"388 55 LINE",
"388 0 LINE",
"608 0 LINE",
"608 55 LINE",
"540 85 LINE",
"540 702 LINE"
);
}
);
width = 643;
},
{
associatedMasterId = "0225C979-6A3F-4323-834E-E3153ADD1AE8";
background = {
paths = (
{
closed = 1;
nodes = (
"291 0 LINE",
"291 55 LINE",
"198 85 LINE",
"198 432 LINE",
"306 432 LINE",
"306 502 LINE",
"198 502 LINE",
"198 531 LINE SMOOTH",
"198 627 OFFCURVE",
"225 656 OFFCURVE",
"313 656 CURVE SMOOTH",
"332 656 OFFCURVE",
"342 655 OFFCURVE",
"357 651 CURVE",
"384 592 LINE",
"436 592 OFFCURVE",
"453 611 OFFCURVE",
"455 641 CURVE",
"456 641 LINE",
"456 85 LINE",
"388 55 LINE",
"388 0 LINE",
"608 0 LINE",
"608 55 LINE",
"540 85 LINE",
"540 710 LINE",
"397 710 LINE",
"377 715 OFFCURVE",
"353 718 OFFCURVE",
"323 718 CURVE SMOOTH",
"171 718 OFFCURVE",
"114 662 OFFCURVE",
"114 512 CURVE SMOOTH",
"114 502 LINE",
"46 488 LINE",
"46 432 LINE",
"114 432 LINE",
"114 85 LINE",
"46 55 LINE",
"46 0 LINE"
);
}
);
};
hints = (
{
horizontal = 1;
origin = "{0, 24}";
target = "{0, 17}";
type = TTStem;
},
{
horizontal = 1;
origin = "{0, 28}";
target = "{0, 10}";
type = TTStem;
},
{
horizontal = 1;
origin = "{0, 32}";
target = "{0, 34}";
type = TTStem;
},
{
horizontal = 1;
origin = "{0, 6}";
target = "{0, 32}";
type = Align;
},
{
horizontal = 1;
origin = "{0, 34}";
target = "{0, 3}";
type = Align;
},
{
horizontal = 1;
origin = "{0, 38}";
target = "{0, 36}";
type = TTStem;
},
{
horizontal = 1;
origin = "{0, 36}";
target = "{0, 2}";
type = Align;
},
{
horizontal = 1;
origin = "{0, 20}";
target = "{0, 18}";
type = TTStem;
},
{
horizontal = 1;
origin = "{0, 18}";
target = "{0, 23}";
type = Align;
}
);
layerId = "9D23A915-DA6A-4A72-86E8-112C7ACC8753";
name = "Ball Terminal";
paths = (
{
closed = 1;
nodes = (
"291 0 LINE",
"291 55 LINE",
"198 85 LINE",
"198 432 LINE",
"306 432 LINE",
"306 502 LINE",
"198 502 LINE",
"198 531 LINE SMOOTH",
"198 627 OFFCURVE",
"225 656 OFFCURVE",
"313 656 CURVE SMOOTH",
"332 656 OFFCURVE",
"342 655 OFFCURVE",
"357 651 CURVE",
"384 592 LINE",
"427 592 OFFCURVE",
"452 605 OFFCURVE",
"456 641 CURVE",
"456 85 LINE",
"388 55 LINE",
"388 0 LINE",
"608 0 LINE",
"608 55 LINE",
"540 85 LINE",
"540 710 LINE",
"397 710 LINE",
"377 715 OFFCURVE",
"353 718 OFFCURVE",
"323 718 CURVE SMOOTH",
"171 718 OFFCURVE",
"114 662 OFFCURVE",
"114 512 CURVE SMOOTH",
"114 502 LINE",
"46 488 LINE",
"46 432 LINE",
"114 432 LINE",
"114 85 LINE",
"46 55 LINE",
"46 0 LINE"
);
}
);
width = 643;
}
);
leftKerningGroup = f;
leftMetricsKey = f;
rightKerningGroup = l;
rightMetricsKey = l;
},
{
glyphname = ordfeminine;
lastChange = "2015-05-06 16:48:20 +0000";
layers = (
{
background = {
paths = (
{
closed = 1;
nodes = (
"186 692 OFFCURVE",
"123 682 OFFCURVE",
"65 669 CURVE",
"65 598 LINE",
"126 613 OFFCURVE",
"185 621 OFFCURVE",
"249 621 CURVE SMOOTH",
"345 621 OFFCURVE",
"368 592 OFFCURVE",
"368 509 CURVE SMOOTH",
"368 473 LINE",
"345 486 OFFCURVE",
"303 500 OFFCURVE",
"245 500 CURVE SMOOTH",
"102 500 OFFCURVE",
"40 452 OFFCURVE",
"40 341 CURVE SMOOTH",
"40 235 OFFCURVE",
"95 192 OFFCURVE",
"205 192 CURVE SMOOTH",
"280 192 OFFCURVE",
"338 221 OFFCURVE",
"390 286 CURVE",
"368 286 LINE",
"398 201 LINE",
"510 201 LINE",
"510 255 LINE",
"450 284 LINE",
"450 526 LINE SMOOTH",
"450 635 OFFCURVE",
"428 692 OFFCURVE",
"253 692 CURVE SMOOTH"
);
},
{
closed = 1;
nodes = (
"288 432 OFFCURVE",
"332 429 OFFCURVE",
"368 418 CURVE",
"368 323 LINE",
"328 286 OFFCURVE",
"277 262 OFFCURVE",
"222 262 CURVE SMOOTH",
"148 262 OFFCURVE",
"126 288 OFFCURVE",
"126 347 CURVE SMOOTH",
"126 403 OFFCURVE",
"153 432 OFFCURVE",
"254 432 CURVE SMOOTH"
);
}
);
};
hints = (
{
horizontal = 1;
origin = "{0, 19}";
target = "{1, 6}";
type = TTStem;
},
{
horizontal = 1;
origin = "{1, 12}";
target = "{0, 13}";
type = TTStem;
},
{
horizontal = 1;
origin = "{0, 31}";
target = "{0, 6}";
type = TTStem;
},
{
horizontal = 1;
origin = "{0, 24}";
target = "{0, 27}";
type = TTStem;
},
{
horizontal = 1;
origin = "{0, 27}";
target = "{0, 22}";
type = Align;
}
);
layerId = "0225C979-6A3F-4323-834E-E3153ADD1AE8";
name = Regular;
paths = (
{
closed = 1;
nodes = (
"186 692 OFFCURVE",
"123 682 OFFCURVE",
"65 669 CURVE",
"65 598 LINE",
"126 613 OFFCURVE",
"185 621 OFFCURVE",
"249 621 CURVE SMOOTH",
"345 621 OFFCURVE",
"368 592 OFFCURVE",
"368 509 CURVE SMOOTH",
"368 473 LINE",
"345 486 OFFCURVE",
"303 500 OFFCURVE",
"245 500 CURVE SMOOTH",
"102 500 OFFCURVE",
"40 452 OFFCURVE",
"40 341 CURVE SMOOTH",
"40 235 OFFCURVE",
"95 192 OFFCURVE",
"205 192 CURVE SMOOTH",
"280 192 OFFCURVE",
"338 221 OFFCURVE",
"390 286 CURVE",
"368 286 LINE",
"398 201 LINE",
"510 201 LINE",
"510 255 LINE",
"450 284 LINE",
"450 526 LINE SMOOTH",
"450 635 OFFCURVE",
"428 692 OFFCURVE",
"253 692 CURVE SMOOTH"
);
},
{
closed = 1;
nodes = (
"288 432 OFFCURVE",
"332 429 OFFCURVE",
"368 418 CURVE",
"368 323 LINE",
"328 286 OFFCURVE",
"277 262 OFFCURVE",
"222 262 CURVE SMOOTH",
"148 262 OFFCURVE",
"126 288 OFFCURVE",
"126 347 CURVE SMOOTH",
"126 403 OFFCURVE",
"153 432 OFFCURVE",
"254 432 CURVE SMOOTH"
);
}
);
width = 540;
}
);
unicode = 00AA;
},
{
glyphname = ordmasculine;
lastChange = "2015-05-06 16:48:25 +0000";
layers = (
{
background = {
paths = (
{
closed = 1;
nodes = (
"135 692 OFFCURVE",
"35 625 OFFCURVE",
"35 440 CURVE SMOOTH",
"35 254 OFFCURVE",
"134 188 OFFCURVE",
"261 188 CURVE SMOOTH",
"386 188 OFFCURVE",
"485 254 OFFCURVE",
"485 440 CURVE SMOOTH",
"485 625 OFFCURVE",
"385 692 OFFCURVE",
"261 692 CURVE SMOOTH"
);
},
{
closed = 1;
nodes = (
"356 621 OFFCURVE",
"399 582 OFFCURVE",
"399 440 CURVE SMOOTH",
"399 298 OFFCURVE",
"356 258 OFFCURVE",
"261 258 CURVE SMOOTH",
"164 258 OFFCURVE",
"122 298 OFFCURVE",
"122 440 CURVE SMOOTH",
"122 582 OFFCURVE",
"164 621 OFFCURVE",
"261 621 CURVE SMOOTH"
);
}
);
};
hints = (
{
horizontal = 1;
origin = "{0, 5}";
target = "{1, 5}";
type = TTStem;
},
{
horizontal = 1;
origin = "{0, 11}";
target = "{1, 11}";
type = TTStem;
}
);
layerId = "0225C979-6A3F-4323-834E-E3153ADD1AE8";
name = Regular;
paths = (
{
closed = 1;
nodes = (
"135 692 OFFCURVE",
"35 625 OFFCURVE",
"35 440 CURVE SMOOTH",
"35 254 OFFCURVE",
"134 188 OFFCURVE",
"261 188 CURVE SMOOTH",
"386 188 OFFCURVE",
"485 254 OFFCURVE",
"485 440 CURVE SMOOTH",
"485 625 OFFCURVE",
"385 692 OFFCURVE",
"261 692 CURVE SMOOTH"
);
},
{
closed = 1;
nodes = (
"356 621 OFFCURVE",
"399 582 OFFCURVE",
"399 440 CURVE SMOOTH",
"399 298 OFFCURVE",
"356 258 OFFCURVE",
"261 258 CURVE SMOOTH",
"164 258 OFFCURVE",
"122 298 OFFCURVE",
"122 440 CURVE SMOOTH",
"122 582 OFFCURVE",
"164 621 OFFCURVE",
"261 621 CURVE SMOOTH"
);
}
);
width = 520;
}
);
unicode = 00BA;
},
{
glyphname = Delta;
lastChange = "2015-05-06 16:48:55 +0000";
layers = (
{
background = {
paths = (
{
closed = 1;
nodes = (
"270 680 LINE",
"10 55 LINE",
"10 0 LINE",
"652 0 LINE",
"652 55 LINE",
"385 680 LINE"
);
},
{
closed = 1;
nodes = (
"566 52 LINE",
"565 71 LINE",
"72 71 LINE",
"87 52 LINE",
"333 643 LINE",
"313 643 LINE"
);
}
);
};
guideLines = (
{
angle = 157.413;
position = "{107, 413}";
showMeasurement = 1;
},
{
angle = 23.1752;
position = "{563, 375}";
showMeasurement = 1;
}
);
hints = (
{
horizontal = 1;
origin = "{0, 2}";
target = "{1, 2}";
type = TTStem;
},
{
horizontal = 1;
origin = "{0, 0}";
target = "{1, 5}";
type = TTStem;
}
);
layerId = "0225C979-6A3F-4323-834E-E3153ADD1AE8";
name = Regular;
paths = (
{
closed = 1;
nodes = (
"270 680 LINE",
"10 55 LINE",
"10 0 LINE",
"652 0 LINE",
"652 55 LINE",
"385 680 LINE"
);
},
{
closed = 1;
nodes = (
"566 52 LINE",
"565 71 LINE",
"72 71 LINE",
"87 52 LINE",
"333 643 LINE",
"313 643 LINE"
);
}
);
width = 662;
}
);
unicode = 0394;
},
{
glyphname = Omega;
lastChange = "2015-05-06 16:49:27 +0000";
layers = (
{
background = {
paths = (
{
closed = 1;
nodes = (
"185 692 OFFCURVE",
"75 593 OFFCURVE",
"75 421 CURVE SMOOTH",
"75 278 OFFCURVE",
"149 192 OFFCURVE",
"248 162 CURVE",
"248 71 LINE",
"74 71 LINE",
"97 51 LINE",
"78 156 LINE",
"25 156 LINE",
"25 0 LINE",
"324 0 LINE",
"324 210 LINE",
"208 232 OFFCURVE",
"165 312 OFFCURVE",
"165 419 CURVE SMOOTH",
"165 559 OFFCURVE",
"240 618 OFFCURVE",
"374 618 CURVE SMOOTH",
"508 618 OFFCURVE",
"583 559 OFFCURVE",
"583 419 CURVE SMOOTH",
"583 312 OFFCURVE",
"540 232 OFFCURVE",
"424 210 CURVE",
"424 0 LINE",
"723 0 LINE",
"723 156 LINE",
"670 156 LINE",
"651 51 LINE",
"674 71 LINE",
"500 71 LINE",
"500 162 LINE",
"599 192 OFFCURVE",
"673 278 OFFCURVE",
"673 421 CURVE SMOOTH",
"673 593 OFFCURVE",
"564 692 OFFCURVE",
"374 692 CURVE SMOOTH"
);
}
);
};
hints = (
{
horizontal = 1;
origin = "{0, 39}";
target = "{0, 19}";
type = TTStem;
},
{
horizontal = 1;
origin = "{0, 11}";
target = "{0, 7}";
type = TTStem;
},
{
horizontal = 1;
origin = "{0, 26}";
target = "{0, 32}";
type = TTStem;
},
{
horizontal = 1;
origin = "{0, 5}";
target = "{0, 13}";
type = TTStem;
},
{
horizontal = 1;
origin = "{0, 13}";
target = "{0, 25}";
type = Align;
},
{
horizontal = 1;
origin = "{0, 5}";
target = "{0, 33}";
type = Align;
}
);
layerId = "0225C979-6A3F-4323-834E-E3153ADD1AE8";
name = Regular;
paths = (
{
closed = 1;
nodes = (
"185 692 OFFCURVE",
"75 593 OFFCURVE",
"75 421 CURVE SMOOTH",
"75 278 OFFCURVE",
"149 192 OFFCURVE",
"248 162 CURVE",
"248 71 LINE",
"74 71 LINE",
"97 51 LINE",
"78 156 LINE",
"25 156 LINE",
"25 0 LINE",
"324 0 LINE",
"324 210 LINE",
"208 232 OFFCURVE",
"165 312 OFFCURVE",
"165 419 CURVE SMOOTH",
"165 559 OFFCURVE",
"240 618 OFFCURVE",
"374 618 CURVE SMOOTH",
"508 618 OFFCURVE",
"583 559 OFFCURVE",
"583 419 CURVE SMOOTH",
"583 312 OFFCURVE",
"540 232 OFFCURVE",
"424 210 CURVE",
"424 0 LINE",
"723 0 LINE",
"723 156 LINE",
"670 156 LINE",
"651 51 LINE",
"674 71 LINE",
"500 71 LINE",
"500 162 LINE",
"599 192 OFFCURVE",
"673 278 OFFCURVE",
"673 421 CURVE SMOOTH",
"673 593 OFFCURVE",
"564 692 OFFCURVE",
"374 692 CURVE SMOOTH"
);
}
);
width = 748;
}
);
unicode = 03A9;
},
{
glyphname = mu;
lastChange = "2015-06-03 03:29:54 +0000";
layers = (
{
background = {
anchors = (
{
name = bottom;
position = "{324, 0}";
},
{
name = ogonek;
position = "{525, 10}";
},
{
name = top;
position = "{322, 502}";
},
{
name = topright;
position = "{628, 502}";
}
);
hints = (
{
horizontal = 1;
origin = "{1, 16}";
target = "{1, 18}";
type = TTStem;
},
{
horizontal = 1;
origin = "{1, 5}";
target = "{1, 7}";
type = TTStem;
},
{
horizontal = 1;
origin = "{0, 3}";
target = "{1, 11}";
type = TTStem;
},
{
horizontal = 1;
origin = "{0, 8}";
target = "{1, 3}";
type = TTStem;
},
{
horizontal = 1;
origin = "{1, 3}";
target = "{0, 6}";
type = Align;
}
);
paths = (
{
closed = 0;
nodes = (
"169 3 LINE",
"192 -6 OFFCURVE",
"220 -10 OFFCURVE",
"255 -10 CURVE SMOOTH",
"346 -10 OFFCURVE",
"411 21 OFFCURVE",
"470 90 CURVE",
"447 90 LINE",
"480 0 LINE"
);
},
{
closed = 0;
nodes = (
"480 0 LINE",
"599 0 LINE",
"599 55 LINE",
"531 85 LINE",
"531 502 LINE",
"379 502 LINE",
"379 447 LINE",
"447 419 LINE",
"447 128 LINE",
"397 86 OFFCURVE",
"344 63 OFFCURVE",
"281 63 CURVE SMOOTH",
"210 63 OFFCURVE",
"169 94 OFFCURVE",
"169 175 CURVE SMOOTH",
"169 502 LINE",
"17 502 LINE",
"17 447 LINE",
"85 417 LINE",
"85 186 LINE SMOOTH",
"85 83 OFFCURVE",
"107 26 OFFCURVE",
"169 3 CURVE"
);
}
);
};
hints = (
{
horizontal = 1;
origin = "{0, 22}";
type = Anchor;
},
{
horizontal = 1;
origin = "{0, 21}";
type = Anchor;
},
{
horizontal = 1;
origin = "{0, 21}";
target = "{0, 12}";
type = Align;
},
{
horizontal = 1;
origin = "{0, 2}";
target = "{0, 16}";
type = TTStem;
},
{
horizontal = 1;
origin = "{0, 7}";
target = "{0, 10}";
type = TTStem;
},
{
horizontal = 1;
origin = "{0, 10}";
target = "{0, 5}";
type = Align;
}
);
layerId = "0225C979-6A3F-4323-834E-E3153ADD1AE8";
name = Regular;
paths = (
{
closed = 1;
nodes = (
"192 -4 OFFCURVE",
"220 -10 OFFCURVE",
"255 -10 CURVE SMOOTH",
"346 -10 OFFCURVE",
"411 21 OFFCURVE",
"470 90 CURVE",
"447 90 LINE",
"480 0 LINE",
"599 0 LINE",
"599 55 LINE",
"531 85 LINE",
"531 502 LINE",
"447 502 LINE",
"447 128 LINE",
"397 86 OFFCURVE",
"344 63 OFFCURVE",
"281 63 CURVE SMOOTH",
"210 63 OFFCURVE",
"169 94 OFFCURVE",
"169 175 CURVE",
"169 502 LINE",
"85 502 LINE",
"85 -224 LINE",
"169 -224 LINE",
"169 8 LINE"
);
}
);
width = 634;
}
);
unicode = 03BC;
},
{
glyphname = pi;
lastChange = "2015-05-06 16:50:14 +0000";
layers = (
{
background = {
paths = (
{
closed = 1;
nodes = (
"46 502 LINE",
"46 446 LINE",
"114 417 LINE",
"114 0 LINE",
"198 0 LINE",
"198 432 LINE",
"454 432 LINE",
"454 150 LINE SMOOTH",
"454 35 OFFCURVE",
"512 -8 OFFCURVE",
"604 -8 CURVE SMOOTH",
"667 -8 OFFCURVE",
"693 13 OFFCURVE",
"693 57 CURVE SMOOTH",
"693 94 OFFCURVE",
"675 113 OFFCURVE",
"622 113 CURVE",
"600 64 LINE",
"560 64 OFFCURVE",
"538 86 OFFCURVE",
"538 134 CURVE SMOOTH",
"538 432 LINE",
"668 432 LINE",
"668 502 LINE"
);
}
);
};
guideLines = (
{
position = "{997, 944}";
}
);
hints = (
{
horizontal = 1;
origin = "{0, 10}";
target = "{0, 17}";
type = TTStem;
},
{
horizontal = 1;
origin = "{0, 3}";
type = Anchor;
},
{
horizontal = 1;
origin = "{0, 0}";
target = "{0, 2}";
type = TTStem;
},
{
horizontal = 1;
origin = "{0, 2}";
target = "{0, 5}";
type = Align;
},
{
horizontal = 1;
origin = "{0, 2}";
target = "{0, 21}";
type = Align;
}
);
layerId = "0225C979-6A3F-4323-834E-E3153ADD1AE8";
leftMetricsKey = "=n";
name = Regular;
paths = (
{
closed = 1;
nodes = (
"46 502 LINE",
"46 446 LINE",
"114 417 LINE",
"114 0 LINE",
"198 0 LINE",
"198 432 LINE",
"454 432 LINE",
"454 150 LINE SMOOTH",
"454 35 OFFCURVE",
"512 -8 OFFCURVE",
"604 -8 CURVE SMOOTH",
"667 -8 OFFCURVE",
"693 13 OFFCURVE",
"693 57 CURVE SMOOTH",
"693 94 OFFCURVE",
"675 113 OFFCURVE",
"622 113 CURVE",
"600 64 LINE",
"560 64 OFFCURVE",
"538 86 OFFCURVE",
"538 134 CURVE SMOOTH",
"538 432 LINE",
"668 432 LINE",
"668 502 LINE"
);
}
);
width = 718;
}
);
leftMetricsKey = n;
unicode = 03C0;
},
{
glyphname = "a-deva";
lastChange = "2015-06-14 03:57:14 +0000";
layers = (
{
anchors = (
{
name = bottom;
position = "{630, 0}";
},
{
name = nukta;
position = "{20, 0}";
},
{
name = top;
position = "{630, 680}";
}
);
background = {
paths = (
{
closed = 1;
nodes = (
"597 614 LINE",
"597 0 LINE",
"665 0 LINE",
"665 614 LINE"
);
},
{
closed = 1;
nodes = (
"461 680 LINE",
"461 604 LINE",
"766 604 LINE",
"766 680 LINE"
);
},
{
closed = 1;
nodes = (
"275 385 LINE",
"339 307 LINE",
"607 307 LINE",
"607 385 LINE"
);
},
{
closed = 1;
nodes = (
"289 385 LINE",
"345 385 OFFCURVE",
"389 426 OFFCURVE",
"389 531 CURVE SMOOTH",
"389 638 OFFCURVE",
"342 688 OFFCURVE",
"209 688 CURVE SMOOTH",
"162 688 OFFCURVE",
"109 682 OFFCURVE",
"65 671 CURVE",
"65 589 LINE",
"108 600 OFFCURVE",
"160 606 OFFCURVE",
"212 606 CURVE SMOOTH",
"301 606 OFFCURVE",
"317 588 OFFCURVE",
"317 523 CURVE SMOOTH",
"317 445 OFFCURVE",
"294 423 OFFCURVE",
"214 423 CURVE SMOOTH",
"114 423 LINE",
"114 345 LINE",
"214 345 LINE SMOOTH",
"299 345 OFFCURVE",
"328 316 OFFCURVE",
"328 243 CURVE SMOOTH",
"328 164 OFFCURVE",
"295 136 OFFCURVE",
"183 136 CURVE SMOOTH",
"110 136 OFFCURVE",
"70 148 OFFCURVE",
"22 167 CURVE",
"22 85 LINE",
"60 69 OFFCURVE",
"122 54 OFFCURVE",
"194 54 CURVE SMOOTH",
"339 54 OFFCURVE",
"400 115 OFFCURVE",
"400 231 CURVE SMOOTH",
"400 315 OFFCURVE",
"368 363 OFFCURVE",
"289 383 CURVE"
);
}
);
};
hints = (
{
horizontal = 1;
origin = "{0, 1}";
type = Anchor;
},
{
horizontal = 1;
origin = "{3, 35}";
target = "{3, 28}";
type = TTStem;
},
{
horizontal = 1;
origin = "{1, 0}";
target = "{1, 1}";
type = TTStem;
},
{
horizontal = 1;
origin = "{3, 21}";
target = "{3, 20}";
type = TTStem;
},
{
horizontal = 1;
origin = "{3, 6}";
target = "{3, 13}";
type = TTStem;
},
{
horizontal = 1;
origin = "{3, 20}";
target = "{3, 21}";
other1 = "{3, 0}";
type = Interpolate;
},
{
horizontal = 1;
origin = "{2, 1}";
target = "{3, 0}";
type = TTStem;
},
{
horizontal = 1;
origin = "{1, 1}";
target = "{0, 3}";
type = Align;
}
);
layerId = "0225C979-6A3F-4323-834E-E3153ADD1AE8";
name = Regular;
paths = (
{
closed = 1;
nodes = (
"597 614 LINE",
"597 0 LINE",
"665 0 LINE",
"665 614 LINE"
);
},
{
closed = 1;
nodes = (
"461 680 LINE",
"461 604 LINE",
"766 604 LINE",
"766 680 LINE"
);
},
{
closed = 1;
nodes = (
"275 385 LINE",
"339 307 LINE",
"607 307 LINE",
"607 385 LINE"
);
},
{
closed = 1;
nodes = (
"289 385 LINE",
"345 385 OFFCURVE",
"389 426 OFFCURVE",
"389 531 CURVE SMOOTH",
"389 638 OFFCURVE",
"342 688 OFFCURVE",
"209 688 CURVE SMOOTH",
"162 688 OFFCURVE",
"109 682 OFFCURVE",
"65 671 CURVE",
"65 589 LINE",
"108 600 OFFCURVE",
"160 606 OFFCURVE",
"212 606 CURVE SMOOTH",
"301 606 OFFCURVE",
"317 588 OFFCURVE",
"317 523 CURVE SMOOTH",
"317 445 OFFCURVE",
"294 423 OFFCURVE",
"214 423 CURVE SMOOTH",
"114 423 LINE",
"114 345 LINE",
"214 345 LINE SMOOTH",
"299 345 OFFCURVE",
"328 316 OFFCURVE",
"328 243 CURVE SMOOTH",
"328 164 OFFCURVE",
"295 136 OFFCURVE",
"183 136 CURVE SMOOTH",
"110 136 OFFCURVE",
"70 148 OFFCURVE",
"22 167 CURVE",
"22 85 LINE",
"60 69 OFFCURVE",
"122 54 OFFCURVE",
"194 54 CURVE SMOOTH",
"339 54 OFFCURVE",
"400 115 OFFCURVE",
"400 231 CURVE SMOOTH",
"400 315 OFFCURVE",
"368 363 OFFCURVE",
"289 383 CURVE"
);
}
);
width = 756;
}
);
leftKerningGroup = "a-deva";
rightKerningGroup = "pa-deva";
rightMetricsKey = "pa-deva";
unicode = 0905;
},
{
glyphname = "aa-deva";
lastChange = "2015-05-08 19:29:03 +0000";
layers = (
{
background = {
components = (
{
name = "a-deva";
},
{
name = "aaMatra-deva";
transform = "{1, 0, 0, 1, 756, 0}";
}
);
};
components = (
{
name = "a-deva";
},
{
name = "aaMatra-deva";
transform = "{1, 0, 0, 1, 756, 0}";
}
);
layerId = "0225C979-6A3F-4323-834E-E3153ADD1AE8";
name = Regular;
width = 1016;
},
{
anchors = (
{
name = bottom;
position = "{886, 0}";
},
{
name = nukta;
position = "{20, 0}";
},
{
name = top;
position = "{886, 680}";
}
);
associatedMasterId = "0225C979-6A3F-4323-834E-E3153ADD1AE8";
background = {
components = (
{
name = "a-deva";
},
{
name = "aaMatra-deva";
transform = "{1, 0, 0, 1, 756, 0}";
}
);
};
hints = (
{
horizontal = 1;
origin = "{0, 47}";
type = Anchor;
},
{
horizontal = 1;
origin = "{0, 39}";
target = "{0, 32}";
type = TTStem;
},
{
horizontal = 1;
origin = "{0, 0}";
target = "{0, 1}";
type = TTStem;
},
{
horizontal = 1;
origin = "{0, 25}";
target = "{0, 24}";
type = TTStem;
},
{
horizontal = 1;
origin = "{0, 10}";
target = "{0, 17}";
type = TTStem;
},
{
horizontal = 1;
origin = "{0, 24}";
target = "{0, 25}";
other1 = "{0, 4}";
type = Interpolate;
},
{
horizontal = 1;
origin = "{0, 45}";
target = "{0, 4}";
type = TTStem;
},
{
horizontal = 1;
origin = "{0, 1}";
target = "{0, 49}";
type = Align;
},
{
horizontal = 1;
origin = "{0, 51}";
type = Anchor;
},
{
horizontal = 1;
origin = "{0, 55}";
target = "{0, 49}";
type = TTStem;
},
{
horizontal = 1;
origin = "{0, 49}";
target = "{0, 53}";
type = Align;
}
);
layerId = "81FC11BF-A301-4488-9B4B-01D4F70712DD";
name = "Regular May 8 15, 13:29";
paths = (
{
closed = 1;
nodes = (
"461 680 LINE",
"461 604 LINE",
"597 604 LINE",
"597 385 LINE",
"289 385 LINE",
"345 385 OFFCURVE",
"389 426 OFFCURVE",
"389 531 CURVE SMOOTH",
"389 638 OFFCURVE",
"342 688 OFFCURVE",
"209 688 CURVE SMOOTH",
"162 688 OFFCURVE",
"109 682 OFFCURVE",
"65 671 CURVE",
"65 589 LINE",
"108 600 OFFCURVE",
"160 606 OFFCURVE",
"212 606 CURVE SMOOTH",
"301 606 OFFCURVE",
"317 588 OFFCURVE",
"317 523 CURVE SMOOTH",
"317 445 OFFCURVE",
"294 423 OFFCURVE",
"214 423 CURVE SMOOTH",
"114 423 LINE",
"114 345 LINE",
"214 345 LINE SMOOTH",
"299 345 OFFCURVE",
"328 316 OFFCURVE",
"328 243 CURVE SMOOTH",
"328 164 OFFCURVE",
"295 136 OFFCURVE",
"183 136 CURVE SMOOTH",
"110 136 OFFCURVE",
"70 148 OFFCURVE",
"22 167 CURVE",
"22 85 LINE",
"60 69 OFFCURVE",
"122 54 OFFCURVE",
"194 54 CURVE SMOOTH",
"339 54 OFFCURVE",
"400 115 OFFCURVE",
"400 231 CURVE SMOOTH",
"400 261 OFFCURVE",
"396 286 OFFCURVE",
"387 307 CURVE",
"597 307 LINE",
"597 0 LINE",
"665 0 LINE",
"665 604 LINE",
"852 604 LINE",
"852 0 LINE",
"920 0 LINE",
"920 604 LINE",
"1026 604 LINE",
"1026 680 LINE"
);
}
);
width = 1016;
}
);
leftKerningGroup = "a-deva";
rightKerningGroup = "pa-deva";
unicode = 0906;
},
{
glyphname = "i-deva";
lastChange = "2015-05-04 16:46:18 +0000";
layers = (
{
anchors = (
{
name = bottom;
position = "{285, 0}";
},
{
name = top;
position = "{419, 680}";
}
);
background = {
guideLines = (
{
angle = 90;
position = "{282, -28}";
},
{
angle = 90;
position = "{50, 360}";
}
);
paths = (
{
closed = 0;
nodes = (
"-10 604 LINE"
);
},
{
closed = 1;
nodes = (
"549 604 LINE",
"549 680 LINE",
"-10 680 LINE",
"-10 604 LINE"
);
},
{
closed = 1;
nodes = (
"428 -8 OFFCURVE",
"494 44 OFFCURVE",
"494 168 CURVE SMOOTH",
"494 247 OFFCURVE",
"467 308 OFFCURVE",
"363 308 CURVE SMOOTH",
"297 308 OFFCURVE",
"247 284 OFFCURVE",
"192 284 CURVE SMOOTH",
"143 284 OFFCURVE",
"122 303 OFFCURVE",
"122 355 CURVE SMOOTH",
"122 406 OFFCURVE",
"143 423 OFFCURVE",
"212 423 CURVE SMOOTH",
"454 423 LINE",
"454 614 LINE",
"384 614 LINE",
"384 484 LINE",
"404 501 LINE",
"204 501 LINE SMOOTH",
"92 501 OFFCURVE",
"50 452 OFFCURVE",
"50 359 CURVE SMOOTH",
"50 260 OFFCURVE",
"98 204 OFFCURVE",
"191 204 CURVE SMOOTH",
"252 204 OFFCURVE",
"311 228 OFFCURVE",
"360 228 CURVE SMOOTH",
"403 228 OFFCURVE",
"422 209 OFFCURVE",
"422 162 CURVE SMOOTH",
"422 102 OFFCURVE",
"391 74 OFFCURVE",
"285 74 CURVE SMOOTH",
"225 74 OFFCURVE",
"167 83 OFFCURVE",
"138 107 CURVE",
"71 97 LINE",
"71 -108 LINE",
"139 -108 LINE",
"139 58 LINE",
"183 58 LINE",
"138 186 LINE",
"81 186 OFFCURVE",
"50 166 OFFCURVE",
"50 116 CURVE SMOOTH",
"50 28 OFFCURVE",
"147 -8 OFFCURVE",
"275 -8 CURVE SMOOTH"
);
}
);
};
hints = (
{
horizontal = 1;
origin = "{1, 50}";
target = "{1, 35}";
type = TTStem;
},
{
horizontal = 1;
origin = "{1, 26}";
target = "{1, 8}";
type = TTStem;
},
{
horizontal = 1;
origin = "{1, 14}";
target = "{1, 20}";
type = TTStem;
},
{
horizontal = 1;
origin = "{0, 2}";
target = "{0, 3}";
type = TTStem;
},
{
horizontal = 1;
origin = "{1, 29}";
target = "{1, 5}";
type = TTStem;
},
{
horizontal = 1;
place = "{58.000000, 44.000000}";
},
{
horizontal = 1;
origin = "{0, 3}";
target = "{1, 16}";
type = Align;
}
);
layerId = "0225C979-6A3F-4323-834E-E3153ADD1AE8";
name = Regular;
paths = (
{
closed = 1;
nodes = (
"549 604 LINE",
"549 680 LINE",
"-10 680 LINE",
"-10 604 LINE"
);
},
{
closed = 1;
nodes = (
"428 -8 OFFCURVE",
"494 44 OFFCURVE",
"494 168 CURVE SMOOTH",
"494 247 OFFCURVE",
"467 308 OFFCURVE",
"363 308 CURVE SMOOTH",
"297 308 OFFCURVE",
"247 284 OFFCURVE",
"192 284 CURVE SMOOTH",
"143 284 OFFCURVE",
"122 303 OFFCURVE",
"122 355 CURVE SMOOTH",
"122 406 OFFCURVE",
"143 423 OFFCURVE",
"212 423 CURVE SMOOTH",
"454 423 LINE",
"454 614 LINE",
"384 614 LINE",
"384 484 LINE",
"404 501 LINE",
"204 501 LINE SMOOTH",
"92 501 OFFCURVE",
"50 452 OFFCURVE",
"50 359 CURVE SMOOTH",
"50 260 OFFCURVE",
"98 204 OFFCURVE",
"191 204 CURVE SMOOTH",
"252 204 OFFCURVE",
"311 228 OFFCURVE",
"360 228 CURVE SMOOTH",
"403 228 OFFCURVE",
"422 209 OFFCURVE",
"422 162 CURVE SMOOTH",
"422 102 OFFCURVE",
"391 74 OFFCURVE",
"285 74 CURVE SMOOTH",
"225 74 OFFCURVE",
"167 83 OFFCURVE",
"138 107 CURVE",
"71 97 LINE",
"71 -108 LINE",
"139 -108 LINE",
"139 58 LINE",
"183 58 LINE",
"138 186 LINE",
"81 186 OFFCURVE",
"50 166 OFFCURVE",
"50 116 CURVE SMOOTH",
"50 28 OFFCURVE",
"147 -8 OFFCURVE",
"275 -8 CURVE SMOOTH"
);
}
);
width = 539;
}
);
leftKerningGroup = "i-deva";
rightKerningGroup = "dda-deva";
rightMetricsKey = "pa-deva";
unicode = 0907;
},
